ISO-10303-21;
HEADER;
FILE_DESCRIPTION (( 'STEP AP214' ),
    '1' );
FILE_NAME ('AMK107ABJ106KAHT.STEP',
    '2019-12-26T22:41:10',
    ( '' ),
    ( '' ),
    'SwSTEP 2.0',
    'SolidWorks 2018',
    '' );
FILE_SCHEMA (( 'AUTOMOTIVE_DESIGN' ));
ENDSEC;

DATA;
#1 = AXIS2_PLACEMENT_3D ( 'NONE', #689, #116, #1023 ) ;
#2 = DIRECTION ( 'NONE',  ( 0.0000000000000000000, 0.0000000000000000000, 1.000000000000000000 ) ) ;
#3 = EDGE_CURVE ( 'NONE', #946, #1150, #174, .T. ) ;
#4 = CARTESIAN_POINT ( 'NONE',  ( -0.7599999999999997868, 0.9100000000000000311, -0.3999999999999998557 ) ) ;
#5 = VECTOR ( 'NONE', #15, 1000.000000000000000 ) ;
#6 = FACE_OUTER_BOUND ( 'NONE', #934, .T. ) ;
#7 = ADVANCED_FACE ( 'NONE', ( #1091 ), #772, .T. ) ;
#8 = APPLICATION_PROTOCOL_DEFINITION ( 'draft international standard', 'automotive_design', 1998, #93 ) ;
#9 = ORIENTED_EDGE ( 'NONE', *, *, #489, .T. ) ;
#10 = CARTESIAN_POINT ( 'NONE',  ( 0.7599999999999996758, 0.03999999999999999389, 0.3600000000000000977 ) ) ;
#11 = ORIENTED_EDGE ( 'NONE', *, *, #1044, .F. ) ;
#12 = EDGE_LOOP ( 'NONE', ( #503, #560, #11 ) ) ;
#13 = ORIENTED_EDGE ( 'NONE', *, *, #293, .F. ) ;
#14 = VERTEX_POINT ( 'NONE', #301 ) ;
#15 = DIRECTION ( 'NONE',  ( -0.0000000000000000000, 1.000000000000000000, -0.0000000000000000000 ) ) ;
#16 = CARTESIAN_POINT ( 'NONE',  ( 0.7599999999999997868, 0.9100000000000000311, -0.3599999999999998757 ) ) ;
#17 = PLANE ( 'NONE',  #1248 ) ;
#18 = VECTOR ( 'NONE', #1064, 1000.000000000000000 ) ;
#19 = EDGE_CURVE ( 'NONE', #163, #1060, #1041, .T. ) ;
#20 = PLANE ( 'NONE',  #813 ) ;
#21 = MECHANICAL_DESIGN_GEOMETRIC_PRESENTATION_REPRESENTATION (  '', ( #1081 ), #500 ) ;
#22 = DIRECTION ( 'NONE',  ( -1.000000000000000000, -0.0000000000000000000, -0.0000000000000000000 ) ) ;
#23 = CARTESIAN_POINT ( 'NONE',  ( 0.7999999999999997113, 0.9499999999999999556, 0.4000000000000000777 ) ) ;
#24 = LINE ( 'NONE', #461, #661 ) ;
#25 = ORIENTED_EDGE ( 'NONE', *, *, #110, .T. ) ;
#26 =( NAMED_UNIT ( * ) SI_UNIT ( $, .STERADIAN. ) SOLID_ANGLE_UNIT ( ) );
#27 = VERTEX_POINT ( 'NONE', #4 ) ;
#28 = ORIENTED_EDGE ( 'NONE', *, *, #173, .F. ) ;
#29 = ORIENTED_EDGE ( 'NONE', *, *, #1035, .T. ) ;
#30 = CARTESIAN_POINT ( 'NONE',  ( -0.4499999999999997891, 0.9100000000000000311, 0.3866666666666667140 ) ) ;
#31 = EDGE_CURVE ( 'NONE', #138, #828, #927, .T. ) ;
#32 = DIRECTION ( 'NONE',  ( 0.0000000000000000000, 1.000000000000000000, 0.0000000000000000000 ) ) ;
#33 = DIRECTION ( 'NONE',  ( 0.0000000000000000000, 0.0000000000000000000, 1.000000000000000000 ) ) ;
#34 = DIRECTION ( 'NONE',  ( 1.000000000000000000, 0.0000000000000000000, -1.355252715606880789E-16 ) ) ;
#35 = DIRECTION ( 'NONE',  ( 0.0000000000000000000, 0.0000000000000000000, 1.000000000000000000 ) ) ;
#36 = FILL_AREA_STYLE_COLOUR ( '', #745 ) ;
#37 = AXIS2_PLACEMENT_3D ( 'NONE', #1039, #449, #1250 ) ;
#38 = CYLINDRICAL_SURFACE ( 'NONE', #555, 0.03999999999999999389 ) ;
#39 = CARTESIAN_POINT ( 'NONE',  ( 0.7999999999999997113, 0.03999999999999999389, 0.3600000000000000977 ) ) ;
#40 = CIRCLE ( 'NONE', #433, 0.03999999999999999389 ) ;
#41 = LINE ( 'NONE', #165, #783 ) ;
#42 = EDGE_LOOP ( 'NONE', ( #501, #149, #151, #307 ) ) ;
#43 = ORIENTED_EDGE ( 'NONE', *, *, #408, .T. ) ;
#44 = VERTEX_POINT ( 'NONE', #1073 ) ;
#45 = ORIENTED_EDGE ( 'NONE', *, *, #1162, .T. ) ;
#46 = EDGE_CURVE ( 'NONE', #67, #946, #257, .T. ) ;
#47 = DIRECTION ( 'NONE',  ( 0.0000000000000000000, 0.0000000000000000000, -1.000000000000000000 ) ) ;
#48 = LINE ( 'NONE', #1270, #797 ) ;
#49 = AXIS2_PLACEMENT_3D ( 'NONE', #364, #1049, #354 ) ;
#50 = CARTESIAN_POINT ( 'NONE',  ( -0.4499999999999998446, 0.0000000000000000000, -0.3999999999999998557 ) ) ;
#51 = EDGE_CURVE ( 'NONE', #962, #14, #456, .T. ) ;
#52 = VECTOR ( 'NONE', #261, 1000.000000000000000 ) ;
#53 = DIRECTION ( 'NONE',  ( -1.355252715606880789E-16, 0.0000000000000000000, -1.000000000000000000 ) ) ;
#54 = VERTEX_POINT ( 'NONE', #502 ) ;
#55 = ORIENTED_EDGE ( 'NONE', *, *, #173, .T. ) ;
#56 = ORIENTED_EDGE ( 'NONE', *, *, #489, .F. ) ;
#57 = DIRECTION ( 'NONE',  ( 0.0000000000000000000, -1.000000000000000000, 0.0000000000000000000 ) ) ;
#58 = CARTESIAN_POINT ( 'NONE',  ( -0.7599999999999997868, 0.9499999999999999556, -0.3999999999999998557 ) ) ;
#59 = AXIS2_PLACEMENT_3D ( 'NONE', #656, #857, #844 ) ;
#60 = FACE_OUTER_BOUND ( 'NONE', #212, .T. ) ;
#61 = UNCERTAINTY_MEASURE_WITH_UNIT (LENGTH_MEASURE( 1.000000000000000082E-05 ), #1003, 'distance_accuracy_value', 'NONE');
#62 = DIRECTION ( 'NONE',  ( 1.355252715606880789E-16, 0.0000000000000000000, -1.000000000000000000 ) ) ;
#63 = DIRECTION ( 'NONE',  ( -6.776263578034403945E-17, -0.0000000000000000000, -1.000000000000000000 ) ) ;
#64 = EDGE_CURVE ( 'NONE', #1226, #326, #1194, .T. ) ;
#65 = EDGE_CURVE ( 'NONE', #1060, #27, #1208, .T. ) ;
#66 = VECTOR ( 'NONE', #939, 1000.000000000000000 ) ;
#67 = VERTEX_POINT ( 'NONE', #393 ) ;
#68 = ORIENTED_EDGE ( 'NONE', *, *, #660, .F. ) ;
#69 = ORIENTED_EDGE ( 'NONE', *, *, #267, .F. ) ;
#70 = EDGE_LOOP ( 'NONE', ( #993, #368, #69, #310 ) ) ;
#71 = ORIENTED_EDGE ( 'NONE', *, *, #549, .T. ) ;
#72 = CARTESIAN_POINT ( 'NONE',  ( -0.4499999999999998446, 0.9499999999999999556, -0.3999999999999998557 ) ) ;
#73 = CARTESIAN_POINT ( 'NONE',  ( -0.4499999999999998446, 0.9100000000000000311, -0.3999999999999998557 ) ) ;
#74 = DIRECTION ( 'NONE',  ( 0.0000000000000000000, -1.000000000000000000, 0.0000000000000000000 ) ) ;
#75 = AXIS2_PLACEMENT_3D ( 'NONE', #365, #464, #455 ) ;
#76 = CIRCLE ( 'NONE', #1143, 0.03999999999999999389 ) ;
#77 = ADVANCED_FACE ( 'NONE', ( #1276 ), #1028, .T. ) ;
#78 = PLANE ( 'NONE',  #234 ) ;
#79 = LINE ( 'NONE', #195, #676 ) ;
#80 =( NAMED_UNIT ( * ) SI_UNIT ( $, .STERADIAN. ) SOLID_ANGLE_UNIT ( ) );
#81 = FACE_OUTER_BOUND ( 'NONE', #369, .T. ) ;
#82 = EDGE_CURVE ( 'NONE', #790, #137, #803, .T. ) ;
#83 = EDGE_LOOP ( 'NONE', ( #530, #885, #884, #1042, #439, #339, #593, #917 ) ) ;
#84 = AXIS2_PLACEMENT_3D ( 'NONE', #1031, #529, #741 ) ;
#85 = ORIENTED_EDGE ( 'NONE', *, *, #46, .T. ) ;
#86 = ADVANCED_FACE ( 'NONE', ( #543 ), #491, .F. ) ;
#87 = DIRECTION ( 'NONE',  ( 0.0000000000000000000, 1.000000000000000000, 0.0000000000000000000 ) ) ;
#88 = ADVANCED_FACE ( 'NONE', ( #397 ), #675, .F. ) ;
#89 = CARTESIAN_POINT ( 'NONE',  ( 0.7599999999999996758, 0.03999999999999999389, 0.3600000000000000977 ) ) ;
#90 = EDGE_CURVE ( 'NONE', #54, #1178, #1011, .T. ) ;
#91 = CARTESIAN_POINT ( 'NONE',  ( -0.7599999999999997868, 0.04000000000000000083, -0.3599999999999998757 ) ) ;
#92 = ADVANCED_FACE ( 'NONE', ( #528 ), #296, .F. ) ;
#93 = APPLICATION_CONTEXT ( 'automotive_design' ) ;
#94 = LINE ( 'NONE', #728, #5 ) ;
#95 = CARTESIAN_POINT ( 'NONE',  ( -0.7999999999999997113, 0.9499999999999999556, 0.4000000000000000777 ) ) ;
#96 = FACE_OUTER_BOUND ( 'NONE', #1253, .T. ) ;
#97 = APPLICATION_PROTOCOL_DEFINITION ( 'draft international standard', 'automotive_design', 1998, #499 ) ;
#98 = AXIS2_PLACEMENT_3D ( 'NONE', #1240, #1020, #814 ) ;
#99 = CARTESIAN_POINT ( 'NONE',  ( -0.7599999999999996758, 0.03999999999999999389, 0.4000000000000000777 ) ) ;
#100 = ORIENTED_EDGE ( 'NONE', *, *, #371, .F. ) ;
#101 = ADVANCED_FACE ( 'NONE', ( #363 ), #302, .T. ) ;
#102 = ORIENTED_EDGE ( 'NONE', *, *, #770, .T. ) ;
#103 = ORIENTED_EDGE ( 'NONE', *, *, #681, .T. ) ;
#104 = ORIENTED_EDGE ( 'NONE', *, *, #600, .F. ) ;
#105 = EDGE_LOOP ( 'NONE', ( #152, #103, #1029 ) ) ;
#106 = AXIS2_PLACEMENT_3D ( 'NONE', #23, #805, #223 ) ;
#107 = MANIFOLD_SOLID_BREP ( 'Boss-Extrude2', #821 ) ;
#108 = CARTESIAN_POINT ( 'NONE',  ( -0.7599999999999997868, 0.9100000000000000311, -0.3599999999999998757 ) ) ;
#109 = CARTESIAN_POINT ( 'NONE',  ( 500000.0000000000582, 0.9366666666666666474, -0.3600000000433680181 ) ) ;
#110 = EDGE_CURVE ( 'NONE', #1212, #416, #587, .T. ) ;
#111 = DIRECTION ( 'NONE',  ( 0.0000000000000000000, -1.000000000000000000, 0.0000000000000000000 ) ) ;
#112 = VECTOR ( 'NONE', #153, 1000.000000000000000 ) ;
#113 = CARTESIAN_POINT ( 'NONE',  ( -0.4499999999999997891, 0.04000000000000043104, 0.3866666666666667140 ) ) ;
#114 = DIRECTION ( 'NONE',  ( 1.000000000000000000, 0.0000000000000000000, 0.0000000000000000000 ) ) ;
#115 = FACE_OUTER_BOUND ( 'NONE', #933, .T. ) ;
#116 = DIRECTION ( 'NONE',  ( 1.000000000000000000, 0.0000000000000000000, 6.776263578034403945E-17 ) ) ;
#117 = CIRCLE ( 'NONE', #563, 0.03999999999999999389 ) ;
#118 = CARTESIAN_POINT ( 'NONE',  ( -0.4499999999999997891, 0.9499999999999999556, 0.3600000000000000977 ) ) ;
#119 = ORIENTED_EDGE ( 'NONE', *, *, #1204, .T. ) ;
#120 = EDGE_LOOP ( 'NONE', ( #666, #734, #1195, #901 ) ) ;
#121 = CARTESIAN_POINT ( 'NONE',  ( -0.7599999999999996758, 0.9100000000000000311, 0.3600000000000000977 ) ) ;
#122 = EDGE_CURVE ( 'NONE', #27, #1212, #850, .T. ) ;
#123 = EDGE_LOOP ( 'NONE', ( #881, #706, #1148, #342 ) ) ;
#124 = ORIENTED_EDGE ( 'NONE', *, *, #859, .T. ) ;
#125 = DIRECTION ( 'NONE',  ( 0.0000000000000000000, 0.0000000000000000000, 1.000000000000000000 ) ) ;
#126 = ORIENTED_EDGE ( 'NONE', *, *, #1215, .F. ) ;
#127 = PLANE ( 'NONE',  #1279 ) ;
#128 = DIRECTION ( 'NONE',  ( 1.000000000000000000, 0.0000000000000000000, -8.673617379884036705E-17 ) ) ;
#129 = CARTESIAN_POINT ( 'NONE',  ( 0.0000000000000000000, 0.9100000000000000311, 0.3600000000000000977 ) ) ;
#130 = CARTESIAN_POINT ( 'NONE',  ( 0.0000000000000000000, 0.9100000000000000311, -0.3599999999999998757 ) ) ;
#131 = VECTOR ( 'NONE', #1165, 1000.000000000000000 ) ;
#132 = CARTESIAN_POINT ( 'NONE',  ( 0.0000000000000000000, 0.0000000000000000000, 0.3600000000000000977 ) ) ;
#133 = AXIS2_PLACEMENT_3D ( 'NONE', #264, #361, #1058 ) ;
#134 = DIRECTION ( 'NONE',  ( 1.355252715606880789E-16, -0.0000000000000000000, -1.000000000000000000 ) ) ;
#135 = SPHERICAL_SURFACE ( 'NONE', #84, 0.04000000000000000083 ) ;
#136 = CARTESIAN_POINT ( 'NONE',  ( 0.4499999999999997891, 0.9100000000000000311, 0.4000000000000000777 ) ) ;
#137 = VERTEX_POINT ( 'NONE', #136 ) ;
#138 = VERTEX_POINT ( 'NONE', #323 ) ;
#139 = DIRECTION ( 'NONE',  ( -6.776263578034403945E-17, -0.0000000000000000000, -1.000000000000000000 ) ) ;
#140 = ORIENTED_EDGE ( 'NONE', *, *, #408, .F. ) ;
#141 = EDGE_CURVE ( 'NONE', #589, #697, #1056, .T. ) ;
#142 = DIRECTION ( 'NONE',  ( 1.000000000000000000, -0.0000000000000000000, 0.0000000000000000000 ) ) ;
#143 = PLANE ( 'NONE',  #182 ) ;
#144 = PRESENTATION_STYLE_ASSIGNMENT (( #1185 ) ) ;
#145 = SHAPE_DEFINITION_REPRESENTATION ( #936, #294 ) ;
#146 = DIRECTION ( 'NONE',  ( 0.0000000000000000000, 0.0000000000000000000, 1.000000000000000000 ) ) ;
#147 = PRESENTATION_LAYER_ASSIGNMENT (  '', '', ( #1081 ) ) ;
#148 = VECTOR ( 'NONE', #340, 1000.000000000000000 ) ;
#149 = ORIENTED_EDGE ( 'NONE', *, *, #371, .T. ) ;
#150 = ORIENTED_EDGE ( 'NONE', *, *, #432, .T. ) ;
#151 = ORIENTED_EDGE ( 'NONE', *, *, #750, .F. ) ;
#152 = ORIENTED_EDGE ( 'NONE', *, *, #631, .T. ) ;
#153 = DIRECTION ( 'NONE',  ( -1.000000000000000000, -0.0000000000000000000, 8.673617379884036705E-17 ) ) ;
#154 = AXIS2_PLACEMENT_3D ( 'NONE', #1257, #57, #650 ) ;
#155 = DIRECTION ( 'NONE',  ( -0.0000000000000000000, -1.000000000000000000, -0.0000000000000000000 ) ) ;
#156 = LINE ( 'NONE', #376, #1249 ) ;
#157 = VECTOR ( 'NONE', #318, 1000.000000000000000 ) ;
#158 = EDGE_CURVE ( 'NONE', #935, #214, #210, .T. ) ;
#159 = CYLINDRICAL_SURFACE ( 'NONE', #1237, 0.03999999999999999389 ) ;
#160 = VECTOR ( 'NONE', #1236, 1000.000000000000000 ) ;
#161 = EDGE_LOOP ( 'NONE', ( #1267, #903, #1061 ) ) ;
#162 = EDGE_LOOP ( 'NONE', ( #1161, #428, #1213, #958 ) ) ;
#163 = VERTEX_POINT ( 'NONE', #808 ) ;
#164 = CARTESIAN_POINT ( 'NONE',  ( 0.7599999999999997868, 0.04000000000000000083, -0.3599999999999998757 ) ) ;
#165 = CARTESIAN_POINT ( 'NONE',  ( 0.4499999999999997891, 0.9499999999999999556, 0.4000000000000000777 ) ) ;
#166 = AXIS2_PLACEMENT_3D ( 'NONE', #344, #1140, #336 ) ;
#167 = EDGE_CURVE ( 'NONE', #1014, #230, #1235, .T. ) ;
#168 = PLANE ( 'NONE',  #1131 ) ;
#169 = AXIS2_PLACEMENT_3D ( 'NONE', #327, #1113, #715 ) ;
#170 = CARTESIAN_POINT ( 'NONE',  ( -0.4499999999999997891, 0.0000000000000000000, 0.3599999999999998757 ) ) ;
#171 = CARTESIAN_POINT ( 'NONE',  ( 0.7599999999999996758, 0.0000000000000000000, 0.3600000000000000977 ) ) ;
#172 = CIRCLE ( 'NONE', #1013, 0.03999999999999999389 ) ;
#173 = EDGE_CURVE ( 'NONE', #230, #790, #1252, .T. ) ;
#174 = LINE ( 'NONE', #1193, #270 ) ;
#175 = PLANE ( 'NONE',  #430 ) ;
#176 = VERTEX_POINT ( 'NONE', #1130 ) ;
#177 = EDGE_LOOP ( 'NONE', ( #441, #472, #9, #351 ) ) ;
#178 = ADVANCED_FACE ( 'NONE', ( #989 ), #897, .T. ) ;
#179 = ORIENTED_EDGE ( 'NONE', *, *, #834, .T. ) ;
#180 = ORIENTED_EDGE ( 'NONE', *, *, #537, .T. ) ;
#181 = ORIENTED_EDGE ( 'NONE', *, *, #704, .F. ) ;
#182 = AXIS2_PLACEMENT_3D ( 'NONE', #1137, #925, #636 ) ;
#183 = EDGE_CURVE ( 'NONE', #561, #457, #334, .T. ) ;
#184 = ADVANCED_FACE ( 'NONE', ( #633 ), #517, .T. ) ;
#185 = DIRECTION ( 'NONE',  ( 0.0000000000000000000, 0.0000000000000000000, 1.000000000000000000 ) ) ;
#186 = CARTESIAN_POINT ( 'NONE',  ( -0.7999999999999997113, 0.03999999999999999389, 0.3600000000000000977 ) ) ;
#187 = VECTOR ( 'NONE', #730, 1000.000000000000000 ) ;
#188 = VECTOR ( 'NONE', #134, 1000.000000000000000 ) ;
#189 = DIRECTION ( 'NONE',  ( -0.0000000000000000000, 1.000000000000000000, 0.0000000000000000000 ) ) ;
#190 = VECTOR ( 'NONE', #738, 1000.000000000000000 ) ;
#191 = DIRECTION ( 'NONE',  ( 0.0000000000000000000, -0.0000000000000000000, -1.000000000000000000 ) ) ;
#192 = AXIS2_PLACEMENT_3D ( 'NONE', #130, #1221, #1022 ) ;
#193 = ORIENTED_EDGE ( 'NONE', *, *, #141, .T. ) ;
#194 = ORIENTED_EDGE ( 'NONE', *, *, #357, .T. ) ;
#195 = CARTESIAN_POINT ( 'NONE',  ( 500000.0000000000582, 0.01333333333333333245, -0.3600000000433677960 ) ) ;
#196 = DIRECTION ( 'NONE',  ( -1.000000000000000000, 0.0000000000000000000, -0.0000000000000000000 ) ) ;
#197 = ADVANCED_FACE ( 'NONE', ( #718 ), #20, .F. ) ;
#198 = UNCERTAINTY_MEASURE_WITH_UNIT (LENGTH_MEASURE( 1.000000000000000082E-05 ), #581, 'distance_accuracy_value', 'NONE');
#199 = EDGE_CURVE ( 'NONE', #1256, #995, #1089, .T. ) ;
#200 = DIRECTION ( 'NONE',  ( -1.000000000000000000, 0.0000000000000000000, 0.0000000000000000000 ) ) ;
#201 = SURFACE_STYLE_FILL_AREA ( #1202 ) ;
#202 =( LENGTH_UNIT ( ) NAMED_UNIT ( * ) SI_UNIT ( .MILLI., .METRE. ) );
#203 = LINE ( 'NONE', #717, #526 ) ;
#204 = ADVANCED_FACE ( 'NONE', ( #454 ), #942, .T. ) ;
#205 = DIRECTION ( 'NONE',  ( 0.0000000000000000000, 0.0000000000000000000, 1.000000000000000000 ) ) ;
#206 = DIRECTION ( 'NONE',  ( 0.0000000000000000000, -1.000000000000000000, 0.0000000000000000000 ) ) ;
#207 = LINE ( 'NONE', #981, #754 ) ;
#208 = AXIS2_PLACEMENT_3D ( 'NONE', #710, #206, #1144 ) ;
#209 = DIRECTION ( 'NONE',  ( 1.000000000000000000, 0.0000000000000000000, 0.0000000000000000000 ) ) ;
#210 = CIRCLE ( 'NONE', #1084, 0.02666666666666664756 ) ;
#211 = CARTESIAN_POINT ( 'NONE',  ( 0.7599999999999996758, 0.9499999999999999556, 0.4000000000000000777 ) ) ;
#212 = EDGE_LOOP ( 'NONE', ( #286, #1062, #607, #634 ) ) ;
#213 = VERTEX_POINT ( 'NONE', #832 ) ;
#214 = VERTEX_POINT ( 'NONE', #835 ) ;
#215 = ORIENTED_EDGE ( 'NONE', *, *, #750, .T. ) ;
#216 = CARTESIAN_POINT ( 'NONE',  ( 0.7599999999999996758, 0.03999999999999999389, 0.4000000000000000777 ) ) ;
#217 = CARTESIAN_POINT ( 'NONE',  ( 0.7999999999999998224, 0.9499999999999999556, -0.3599999999999998757 ) ) ;
#218 = DIRECTION ( 'NONE',  ( -0.0000000000000000000, -0.0000000000000000000, -1.000000000000000000 ) ) ;
#219 = AXIS2_PLACEMENT_3D ( 'NONE', #476, #1274, #570 ) ;
#220 = LINE ( 'NONE', #50, #346 ) ;
#221 = PLANE ( 'NONE',  #1034 ) ;
#222 = LINE ( 'NONE', #612, #188 ) ;
#223 = DIRECTION ( 'NONE',  ( 1.000000000000000000, 0.0000000000000000000, 0.0000000000000000000 ) ) ;
#224 = DIRECTION ( 'NONE',  ( 0.0000000000000000000, -1.000000000000000000, 0.0000000000000000000 ) ) ;
#225 = VECTOR ( 'NONE', #848, 1000.000000000000000 ) ;
#226 = AXIS2_PLACEMENT_3D ( 'NONE', #417, #233, #713 ) ;
#227 = DIRECTION ( 'NONE',  ( -0.0000000000000000000, 1.000000000000000000, -0.0000000000000000000 ) ) ;
#228 = VECTOR ( 'NONE', #693, 1000.000000000000000 ) ;
#229 = EDGE_CURVE ( 'NONE', #589, #138, #1071, .T. ) ;
#230 = VERTEX_POINT ( 'NONE', #899 ) ;
#231 = ORIENTED_EDGE ( 'NONE', *, *, #90, .T. ) ;
#232 = CARTESIAN_POINT ( 'NONE',  ( -0.7599999999999996758, 0.9499999999999999556, 0.4000000000000000777 ) ) ;
#233 = DIRECTION ( 'NONE',  ( 1.000000000000000000, -0.0000000000000000000, -6.776263578034403945E-17 ) ) ;
#234 = AXIS2_PLACEMENT_3D ( 'NONE', #1168, #762, #185 ) ;
#235 = SPHERICAL_SURFACE ( 'NONE', #208, 0.04000000000000000083 ) ;
#236 = EDGE_CURVE ( 'NONE', #306, #935, #847, .T. ) ;
#237 = LINE ( 'NONE', #698, #752 ) ;
#238 = AXIS2_PLACEMENT_3D ( 'NONE', #353, #349, #928 ) ;
#239 = SPHERICAL_SURFACE ( 'NONE', #1199, 0.04000000000000000083 ) ;
#240 = ORIENTED_EDGE ( 'NONE', *, *, #1002, .F. ) ;
#241 = CARTESIAN_POINT ( 'NONE',  ( 0.7599999999999997868, 0.03999999999999999389, -0.3599999999999998757 ) ) ;
#242 = ORIENTED_EDGE ( 'NONE', *, *, #1204, .F. ) ;
#243 = ORIENTED_EDGE ( 'NONE', *, *, #1035, .F. ) ;
#244 = ORIENTED_EDGE ( 'NONE', *, *, #1110, .F. ) ;
#245 = EDGE_LOOP ( 'NONE', ( #1059, #56, #1242, #1151 ) ) ;
#246 = EDGE_CURVE ( 'NONE', #325, #400, #1224, .T. ) ;
#247 = DIRECTION ( 'NONE',  ( 1.000000000000000000, 0.0000000000000000000, -8.673617379884036705E-17 ) ) ;
#248 = CARTESIAN_POINT ( 'NONE',  ( 500000.0000000000582, 0.01333333333333333245, 0.3599999999566317332 ) ) ;
#249 = CARTESIAN_POINT ( 'NONE',  ( -0.7999999999999998224, 0.9100000000000000311, -0.3599999999999998757 ) ) ;
#250 = AXIS2_PLACEMENT_3D ( 'NONE', #875, #678, #986 ) ;
#251 = CYLINDRICAL_SURFACE ( 'NONE', #250, 0.02666666666666664756 ) ;
#252 = EDGE_CURVE ( 'NONE', #385, #918, #744, .T. ) ;
#253 = DIRECTION ( 'NONE',  ( 1.000000000000000000, 0.0000000000000000000, 6.776263578034403945E-17 ) ) ;
#254 = CARTESIAN_POINT ( 'NONE',  ( 0.4500000000007275958, 0.03999999999999999389, -0.3599999999999999867 ) ) ;
#255 = VECTOR ( 'NONE', #474, 1000.000000000000000 ) ;
#256 = LINE ( 'NONE', #843, #225 ) ;
#257 = LINE ( 'NONE', #211, #228 ) ;
#258 = CARTESIAN_POINT ( 'NONE',  ( 0.4500000000007275958, 0.9100000000000000311, 0.3866666666666666030 ) ) ;
#259 = EDGE_LOOP ( 'NONE', ( #381, #45, #825, #55 ) ) ;
#260 = ORIENTED_EDGE ( 'NONE', *, *, #46, .F. ) ;
#261 = DIRECTION ( 'NONE',  ( -0.0000000000000000000, 1.000000000000000000, -0.0000000000000000000 ) ) ;
#262 = AXIS2_PLACEMENT_3D ( 'NONE', #540, #142, #47 ) ;
#263 = DIRECTION ( 'NONE',  ( 1.000000000000000000, 0.0000000000000000000, 1.355252715606882022E-16 ) ) ;
#264 = CARTESIAN_POINT ( 'NONE',  ( 0.7999999999999998224, 0.9499999999999999556, -0.3999999999999998557 ) ) ;
#265 = AXIS2_PLACEMENT_3D ( 'NONE', #91, #191, #406 ) ;
#266 = SPHERICAL_SURFACE ( 'NONE', #319, 0.04000000000000000083 ) ;
#267 = EDGE_CURVE ( 'NONE', #1060, #1226, #117, .T. ) ;
#268 = CYLINDRICAL_SURFACE ( 'NONE', #757, 0.03999999999999999389 ) ;
#269 = CARTESIAN_POINT ( 'NONE',  ( -0.7999999999999997113, 0.03999999999999999389, 0.4000000000000000777 ) ) ;
#270 = VECTOR ( 'NONE', #200, 1000.000000000000000 ) ;
#271 = EDGE_LOOP ( 'NONE', ( #959, #789, #544, #775 ) ) ;
#272 = ORIENTED_EDGE ( 'NONE', *, *, #1043, .T. ) ;
#273 = ORIENTED_EDGE ( 'NONE', *, *, #600, .T. ) ;
#274 = ORIENTED_EDGE ( 'NONE', *, *, #908, .F. ) ;
#275 =( GEOMETRIC_REPRESENTATION_CONTEXT ( 3 ) GLOBAL_UNCERTAINTY_ASSIGNED_CONTEXT ( ( #1129 ) ) GLOBAL_UNIT_ASSIGNED_CONTEXT ( ( #1189, #991, #687 ) ) REPRESENTATION_CONTEXT ( 'NONE', 'WORKASPACE' ) );
#276 = ADVANCED_FACE ( 'NONE', ( #649 ), #135, .T. ) ;
#277 = DIRECTION ( 'NONE',  ( -1.000000000000000000, -0.0000000000000000000, 2.710505431213761479E-15 ) ) ;
#278 = CARTESIAN_POINT ( 'NONE',  ( 0.7599999999999997868, 0.9499999999999999556, -0.3599999999999998757 ) ) ;
#279 = LINE ( 'NONE', #862, #845 ) ;
#280 = CARTESIAN_POINT ( 'NONE',  ( 0.4499999999999998446, 0.04000000000000021594, -0.3999999999999998557 ) ) ;
#281 = ADVANCED_FACE ( 'NONE', ( #1146 ), #1158, .T. ) ;
#282 = FACE_OUTER_BOUND ( 'NONE', #1133, .T. ) ;
#283 = CYLINDRICAL_SURFACE ( 'NONE', #725, 0.02666666666666664756 ) ;
#284 =( GEOMETRIC_REPRESENTATION_CONTEXT ( 3 ) GLOBAL_UNCERTAINTY_ASSIGNED_CONTEXT ( ( #198 ) ) GLOBAL_UNIT_ASSIGNED_CONTEXT ( ( #581, #868, #80 ) ) REPRESENTATION_CONTEXT ( 'NONE', 'WORKASPACE' ) );
#285 = DIRECTION ( 'NONE',  ( 0.0000000000000000000, 0.0000000000000000000, -1.000000000000000000 ) ) ;
#286 = ORIENTED_EDGE ( 'NONE', *, *, #1122, .F. ) ;
#287 = EDGE_LOOP ( 'NONE', ( #341, #1164, #684, #1265, #837, #1277, #1211, #807 ) ) ;
#288 = ORIENTED_EDGE ( 'NONE', *, *, #314, .T. ) ;
#289 = ORIENTED_EDGE ( 'NONE', *, *, #795, .F. ) ;
#290 = ADVANCED_FACE ( 'NONE', ( #677 ), #1275, .T. ) ;
#291 = AXIS2_PLACEMENT_3D ( 'NONE', #586, #1117, #317 ) ;
#292 = DIRECTION ( 'NONE',  ( 0.0000000000000000000, -1.000000000000000000, 0.0000000000000000000 ) ) ;
#293 = EDGE_CURVE ( 'NONE', #905, #1033, #860, .T. ) ;
#294 = ADVANCED_BREP_SHAPE_REPRESENTATION ( 'AMK107ABJ106KAHT', ( #556, #749, #107, #387 ), #275 ) ;
#295 = CARTESIAN_POINT ( 'NONE',  ( 500000.0000000000582, 0.9100000000000000311, 0.3866666666232986271 ) ) ;
#296 = PLANE ( 'NONE',  #291 ) ;
#297 = LINE ( 'NONE', #980, #477 ) ;
#298 = VECTOR ( 'NONE', #333, 1000.000000000000000 ) ;
#299 = DIRECTION ( 'NONE',  ( -6.776263578034403945E-17, 0.0000000000000000000, 1.000000000000000000 ) ) ;
#300 = CIRCLE ( 'NONE', #892, 0.02666666666666664756 ) ;
#301 = CARTESIAN_POINT ( 'NONE',  ( 0.4500000000007275958, 0.9366666666666666474, -0.3599999999999999867 ) ) ;
#302 = CYLINDRICAL_SURFACE ( 'NONE', #588, 0.03999999999999999389 ) ;
#303 = EDGE_CURVE ( 'NONE', #54, #533, #348, .T. ) ;
#304 = ADVANCED_FACE ( 'NONE', ( #394 ), #379, .T. ) ;
#305 = CARTESIAN_POINT ( 'NONE',  ( 0.4500000000007275958, 0.9366666666666666474, -0.3600000000772492492 ) ) ;
#306 = VERTEX_POINT ( 'NONE', #1136 ) ;
#307 = ORIENTED_EDGE ( 'NONE', *, *, #898, .T. ) ;
#308 = FILL_AREA_STYLE_COLOUR ( '', #1190 ) ;
#309 = EDGE_LOOP ( 'NONE', ( #839, #652, #194, #150, #380, #700, #505, #71 ) ) ;
#310 = ORIENTED_EDGE ( 'NONE', *, *, #19, .F. ) ;
#311 = CARTESIAN_POINT ( 'NONE',  ( -0.7999999999999998224, 0.9499999999999999556, -0.3999999999999998557 ) ) ;
#312 = CARTESIAN_POINT ( 'NONE',  ( -0.4499999999999999001, 0.01333333333333333245, -0.3599999999999996536 ) ) ;
#313 = CARTESIAN_POINT ( 'NONE',  ( 0.7599999999999996758, 0.9100000000000000311, 0.3600000000000000977 ) ) ;
#314 = EDGE_CURVE ( 'NONE', #1060, #828, #585, .T. ) ;
#315 = CARTESIAN_POINT ( 'NONE',  ( 0.0000000000000000000, 0.9100000000000000311, -0.3599999999999998757 ) ) ;
#316 = VECTOR ( 'NONE', #568, 1000.000000000000000 ) ;
#317 = DIRECTION ( 'NONE',  ( 1.000000000000000000, 0.0000000000000000000, -8.673617379884036705E-17 ) ) ;
#318 = DIRECTION ( 'NONE',  ( 1.000000000000000000, -0.0000000000000000000, 0.0000000000000000000 ) ) ;
#319 = AXIS2_PLACEMENT_3D ( 'NONE', #1047, #642, #1153 ) ;
#320 = DIRECTION ( 'NONE',  ( 0.0000000000000000000, 0.0000000000000000000, 1.000000000000000000 ) ) ;
#321 = EDGE_CURVE ( 'NONE', #776, #44, #620, .T. ) ;
#322 = LINE ( 'NONE', #58, #52 ) ;
#323 = CARTESIAN_POINT ( 'NONE',  ( -0.7599999999999997868, 0.0000000000000000000, -0.3599999999999998757 ) ) ;
#324 = ORIENTED_EDGE ( 'NONE', *, *, #1110, .T. ) ;
#325 = VERTEX_POINT ( 'NONE', #829 ) ;
#326 = VERTEX_POINT ( 'NONE', #629 ) ;
#327 = CARTESIAN_POINT ( 'NONE',  ( -0.4499999999999997891, 0.03999999999999999389, 0.3600000000000000977 ) ) ;
#328 = CARTESIAN_POINT ( 'NONE',  ( 0.4499999999999997891, 0.9499999999999999556, 0.3599999999999998757 ) ) ;
#329 = CARTESIAN_POINT ( 'NONE',  ( -0.4499999999999999001, 0.9099999999999998090, -0.3866666666666664920 ) ) ;
#330 = DIRECTION ( 'NONE',  ( 1.000000000000000000, -0.0000000000000000000, -0.0000000000000000000 ) ) ;
#331 = AXIS2_PLACEMENT_3D ( 'NONE', #1050, #855, #955 ) ;
#332 = CARTESIAN_POINT ( 'NONE',  ( 0.7599999999999998979, 0.9499999999999999556, -0.3599999999999998757 ) ) ;
#333 = DIRECTION ( 'NONE',  ( -0.0000000000000000000, -1.000000000000000000, -0.0000000000000000000 ) ) ;
#334 = LINE ( 'NONE', #132, #974 ) ;
#335 = PRESENTATION_LAYER_ASSIGNMENT (  '', '', ( #486 ) ) ;
#336 = DIRECTION ( 'NONE',  ( -1.000000000000000000, 0.0000000000000000000, 1.355252715606882022E-16 ) ) ;
#337 = VECTOR ( 'NONE', #1111, 1000.000000000000000 ) ;
#338 = ORIENTED_EDGE ( 'NONE', *, *, #252, .T. ) ;
#339 = ORIENTED_EDGE ( 'NONE', *, *, #948, .F. ) ;
#340 = DIRECTION ( 'NONE',  ( 0.0000000000000000000, -1.000000000000000000, -0.0000000000000000000 ) ) ;
#341 = ORIENTED_EDGE ( 'NONE', *, *, #575, .F. ) ;
#342 = ORIENTED_EDGE ( 'NONE', *, *, #785, .T. ) ;
#343 = DIRECTION ( 'NONE',  ( 0.0000000000000000000, 0.0000000000000000000, 1.000000000000000000 ) ) ;
#344 = CARTESIAN_POINT ( 'NONE',  ( -0.7599999999999997868, 0.9100000000000000311, 1.029992063861229212E-16 ) ) ;
#345 = DIRECTION ( 'NONE',  ( 0.0000000000000000000, 0.0000000000000000000, 1.000000000000000000 ) ) ;
#346 = VECTOR ( 'NONE', #139, 1000.000000000000000 ) ;
#347 = CIRCLE ( 'NONE', #1054, 0.03999999999999999389 ) ;
#348 = LINE ( 'NONE', #726, #148 ) ;
#349 = DIRECTION ( 'NONE',  ( -1.000000000000000000, 0.0000000000000000000, 0.0000000000000000000 ) ) ;
#350 = ORIENTED_EDGE ( 'NONE', *, *, #432, .F. ) ;
#351 = ORIENTED_EDGE ( 'NONE', *, *, #122, .T. ) ;
#352 = DIRECTION ( 'NONE',  ( -6.776263578034403945E-17, 0.0000000000000000000, 1.000000000000000000 ) ) ;
#353 = CARTESIAN_POINT ( 'NONE',  ( 0.7999999999999997113, 0.03999999999999999389, 0.3600000000000000977 ) ) ;
#354 = DIRECTION ( 'NONE',  ( 0.0000000000000000000, 0.0000000000000000000, 1.000000000000000000 ) ) ;
#355 = PLANE ( 'NONE',  #781 ) ;
#356 = AXIS2_PLACEMENT_3D ( 'NONE', #511, #1012, #33 ) ;
#357 = EDGE_CURVE ( 'NONE', #590, #1114, #820, .T. ) ;
#358 = LINE ( 'NONE', #1175, #1141 ) ;
#359 = DIRECTION ( 'NONE',  ( 1.000000000000000000, 0.0000000000000000000, 0.0000000000000000000 ) ) ;
#360 = LINE ( 'NONE', #510, #298 ) ;
#361 = DIRECTION ( 'NONE',  ( -1.000000000000000000, 0.0000000000000000000, -1.355252715606880789E-16 ) ) ;
#362 = VECTOR ( 'NONE', #538, 1000.000000000000000 ) ;
#363 = FACE_OUTER_BOUND ( 'NONE', #123, .T. ) ;
#364 = CARTESIAN_POINT ( 'NONE',  ( -0.7999999999999998224, 0.03999999999999999389, -0.3599999999999998757 ) ) ;
#365 = CARTESIAN_POINT ( 'NONE',  ( 500000.0000000000582, 0.9100000000000000311, 0.3866666666232985716 ) ) ;
#366 = EDGE_LOOP ( 'NONE', ( #274, #651, #732 ) ) ;
#367 = ORIENTED_EDGE ( 'NONE', *, *, #876, .F. ) ;
#368 = ORIENTED_EDGE ( 'NONE', *, *, #64, .F. ) ;
#369 = EDGE_LOOP ( 'NONE', ( #350, #827, #947, #1241 ) ) ;
#370 = CARTESIAN_POINT ( 'NONE',  ( -0.7599999999999997868, 0.03999999999999999389, -0.3999999999999998557 ) ) ;
#371 = EDGE_CURVE ( 'NONE', #697, #866, #771, .T. ) ;
#372 = CARTESIAN_POINT ( 'NONE',  ( -0.4499999999999997891, 0.9366666666666666474, 0.3599999999999996536 ) ) ;
#373 = AXIS2_PLACEMENT_3D ( 'NONE', #386, #1070, #496 ) ;
#374 = CARTESIAN_POINT ( 'NONE',  ( 0.4500000000007275958, 0.9100000000000000311, 0.3866666666666666585 ) ) ;
#375 = EDGE_CURVE ( 'NONE', #306, #546, #300, .T. ) ;
#376 = CARTESIAN_POINT ( 'NONE',  ( 0.7999999999999998224, 0.9499999999999999556, -0.3599999999999998757 ) ) ;
#377 = FACE_OUTER_BOUND ( 'NONE', #1135, .T. ) ;
#378 = CARTESIAN_POINT ( 'NONE',  ( -0.4499999999999999001, 0.9366666666666666474, -0.3599999999999998757 ) ) ;
#379 = CYLINDRICAL_SURFACE ( 'NONE', #262, 0.03999999999999999389 ) ;
#380 = ORIENTED_EDGE ( 'NONE', *, *, #375, .T. ) ;
#381 = ORIENTED_EDGE ( 'NONE', *, *, #82, .T. ) ;
#382 = ADVANCED_FACE ( 'NONE', ( #483 ), #168, .F. ) ;
#383 = DIRECTION ( 'NONE',  ( -8.673617379884036705E-17, 0.0000000000000000000, -1.000000000000000000 ) ) ;
#384 = ORIENTED_EDGE ( 'NONE', *, *, #1021, .F. ) ;
#385 = VERTEX_POINT ( 'NONE', #372 ) ;
#386 = CARTESIAN_POINT ( 'NONE',  ( -0.7599999999999998979, 0.9100000000000000311, -0.3599999999999998757 ) ) ;
#387 = AXIS2_PLACEMENT_3D ( 'NONE', #778, #869, #1098 ) ;
#388 = DIRECTION ( 'NONE',  ( -1.000000000000000000, 0.0000000000000000000, -0.0000000000000000000 ) ) ;
#389 = DIRECTION ( 'NONE',  ( 0.0000000000000000000, 0.0000000000000000000, -1.000000000000000000 ) ) ;
#390 = ADVANCED_FACE ( 'NONE', ( #1055 ), #551, .F. ) ;
#391 = FACE_OUTER_BOUND ( 'NONE', #70, .T. ) ;
#392 = CARTESIAN_POINT ( 'NONE',  ( 0.4499999999999998446, 0.0000000000000000000, -0.3999999999999998557 ) ) ;
#393 = CARTESIAN_POINT ( 'NONE',  ( 0.7599999999999996758, 0.9100000000000000311, 0.4000000000000000777 ) ) ;
#394 = FACE_OUTER_BOUND ( 'NONE', #957, .T. ) ;
#395 = PRESENTATION_LAYER_ASSIGNMENT (  '', '', ( #956 ) ) ;
#396 = DIRECTION ( 'NONE',  ( 0.0000000000000000000, 0.0000000000000000000, 1.000000000000000000 ) ) ;
#397 = FACE_OUTER_BOUND ( 'NONE', #42, .T. ) ;
#398 = DIRECTION ( 'NONE',  ( -0.0000000000000000000, -1.000000000000000000, -0.0000000000000000000 ) ) ;
#399 = ORIENTED_EDGE ( 'NONE', *, *, #681, .F. ) ;
#400 = VERTEX_POINT ( 'NONE', #1172 ) ;
#401 = CARTESIAN_POINT ( 'NONE',  ( -0.4499999999999999001, 0.03999999999999999389, -0.3599999999999998757 ) ) ;
#402 = EDGE_CURVE ( 'NONE', #697, #592, #604, .T. ) ;
#403 = ADVANCED_FACE ( 'NONE', ( #81 ), #466, .F. ) ;
#404 = DIRECTION ( 'NONE',  ( -1.000000000000000000, 0.0000000000000000000, 0.0000000000000000000 ) ) ;
#405 = DIRECTION ( 'NONE',  ( -1.000000000000000000, 0.0000000000000000000, 0.0000000000000000000 ) ) ;
#406 = DIRECTION ( 'NONE',  ( -1.000000000000000000, 0.0000000000000000000, 0.0000000000000000000 ) ) ;
#407 =( NAMED_UNIT ( * ) SI_UNIT ( $, .STERADIAN. ) SOLID_ANGLE_UNIT ( ) );
#408 = EDGE_CURVE ( 'NONE', #1278, #54, #256, .T. ) ;
#409 = LINE ( 'NONE', #392, #1038 ) ;
#410 = FACE_OUTER_BOUND ( 'NONE', #287, .T. ) ;
#411 = CARTESIAN_POINT ( 'NONE',  ( 0.4500000000007275958, 0.9099999999999998090, -0.3866666666666666030 ) ) ;
#412 = ORIENTED_EDGE ( 'NONE', *, *, #1215, .T. ) ;
#413 = ORIENTED_EDGE ( 'NONE', *, *, #183, .F. ) ;
#414 = CARTESIAN_POINT ( 'NONE',  ( 0.7599999999999996758, 0.04000000000000000083, 0.3600000000000000977 ) ) ;
#415 = ORIENTED_EDGE ( 'NONE', *, *, #1145, .T. ) ;
#416 = VERTEX_POINT ( 'NONE', #1262 ) ;
#417 = CARTESIAN_POINT ( 'NONE',  ( -0.4499999999999998446, 0.9100000000000000311, -0.3599999999999998757 ) ) ;
#418 = AXIS2_PLACEMENT_3D ( 'NONE', #580, #292, #285 ) ;
#419 = CARTESIAN_POINT ( 'NONE',  ( -0.7999999999999998224, 0.03999999999999999389, -0.3999999999999998557 ) ) ;
#420 = DIRECTION ( 'NONE',  ( 0.0000000000000000000, 0.0000000000000000000, -1.000000000000000000 ) ) ;
#421 = FACE_OUTER_BOUND ( 'NONE', #1180, .T. ) ;
#422 = AXIS2_PLACEMENT_3D ( 'NONE', #1139, #443, #146 ) ;
#423 = CYLINDRICAL_SURFACE ( 'NONE', #418, 0.03999999999999999389 ) ;
#424 = EDGE_CURVE ( 'NONE', #176, #416, #879, .T. ) ;
#425 = CYLINDRICAL_SURFACE ( 'NONE', #459, 0.03999999999999999389 ) ;
#426 = DIRECTION ( 'NONE',  ( 0.0000000000000000000, 0.0000000000000000000, 1.000000000000000000 ) ) ;
#427 = ORIENTED_EDGE ( 'NONE', *, *, #972, .F. ) ;
#428 = ORIENTED_EDGE ( 'NONE', *, *, #1138, .T. ) ;
#429 = CARTESIAN_POINT ( 'NONE',  ( 0.4499999999999997891, 0.9499999999999999556, 0.3600000000000000977 ) ) ;
#430 = AXIS2_PLACEMENT_3D ( 'NONE', #966, #856, #383 ) ;
#431 = CARTESIAN_POINT ( 'NONE',  ( 500000.0000000000582, 0.04000000000000043104, 0.3866666666232985716 ) ) ;
#432 = EDGE_CURVE ( 'NONE', #1114, #306, #915, .T. ) ;
#433 = AXIS2_PLACEMENT_3D ( 'NONE', #16, #1118, #890 ) ;
#434 = CYLINDRICAL_SURFACE ( 'NONE', #192, 0.03999999999999999389 ) ;
#435 = PRODUCT ( 'AMK107ABJ106KAHT', 'AMK107ABJ106KAHT', '', ( #493 ) ) ;
#436 = CARTESIAN_POINT ( 'NONE',  ( -0.4499999999999997891, 0.9100000000000000311, 0.3600000000000000977 ) ) ;
#437 = SURFACE_STYLE_FILL_AREA ( #1214 ) ;
#438 = CARTESIAN_POINT ( 'NONE',  ( -0.7599999999999997868, 0.9100000000000000311, 0.3600000000000000977 ) ) ;
#439 = ORIENTED_EDGE ( 'NONE', *, *, #158, .F. ) ;
#440 = EDGE_CURVE ( 'NONE', #137, #1150, #41, .T. ) ;
#441 = ORIENTED_EDGE ( 'NONE', *, *, #470, .T. ) ;
#442 = ORIENTED_EDGE ( 'NONE', *, *, #1120, .T. ) ;
#443 = DIRECTION ( 'NONE',  ( 1.000000000000000000, -0.0000000000000000000, -6.776263578034403945E-17 ) ) ;
#444 = ORIENTED_EDGE ( 'NONE', *, *, #1120, .F. ) ;
#445 = ORIENTED_EDGE ( 'NONE', *, *, #199, .T. ) ;
#446 = CLOSED_SHELL ( 'NONE', ( #874, #88, #382, #86, #968, #662, #184, #281, #304, #766, #7, #686, #969, #1181, #1065, #576, #276, #567 ) ) ;
#447 = CARTESIAN_POINT ( 'NONE',  ( -0.7599999999999996758, 0.9499999999999999556, 0.3600000000000000977 ) ) ;
#448 = AXIS2_PLACEMENT_3D ( 'NONE', #164, #639, #359 ) ;
#449 = DIRECTION ( 'NONE',  ( -1.000000000000000000, 2.710505431213761479E-15, -0.0000000000000000000 ) ) ;
#450 = VECTOR ( 'NONE', #1261, 1000.000000000000000 ) ;
#451 = LINE ( 'NONE', #811, #846 ) ;
#452 = CIRCLE ( 'NONE', #373, 0.03999999999999999389 ) ;
#453 = DIRECTION ( 'NONE',  ( 0.0000000000000000000, 1.000000000000000000, 0.0000000000000000000 ) ) ;
#454 = FACE_OUTER_BOUND ( 'NONE', #1196, .T. ) ;
#455 = DIRECTION ( 'NONE',  ( -1.000000000000000000, 0.0000000000000000000, 8.673617379884036705E-17 ) ) ;
#456 = CIRCLE ( 'NONE', #727, 0.02666666666666669960 ) ;
#457 = VERTEX_POINT ( 'NONE', #171 ) ;
#458 = ORIENTED_EDGE ( 'NONE', *, *, #932, .F. ) ;
#459 = AXIS2_PLACEMENT_3D ( 'NONE', #278, #74, #389 ) ;
#460 = PLANE ( 'NONE',  #887 ) ;
#461 = CARTESIAN_POINT ( 'NONE',  ( -0.4499999999999998446, 0.9499999999999999556, -0.3999999999999998557 ) ) ;
#462 = AXIS2_PLACEMENT_3D ( 'NONE', #108, #398, #205 ) ;
#463 = CARTESIAN_POINT ( 'NONE',  ( 0.0000000000000000000, 0.0000000000000000000, -0.3599999999999998757 ) ) ;
#464 = DIRECTION ( 'NONE',  ( -8.673617379884036705E-17, 0.0000000000000000000, -1.000000000000000000 ) ) ;
#465 = VECTOR ( 'NONE', #997, 1000.000000000000000 ) ;
#466 = PLANE ( 'NONE',  #75 ) ;
#467 = AXIS2_PLACEMENT_3D ( 'NONE', #438, #1245, #532 ) ;
#468 = EDGE_LOOP ( 'NONE', ( #180, #29, #506, #85 ) ) ;
#469 = ORIENTED_EDGE ( 'NONE', *, *, #267, .T. ) ;
#470 = EDGE_CURVE ( 'NONE', #1212, #995, #24, .T. ) ;
#471 = EDGE_LOOP ( 'NONE', ( #1268, #773, #104, #719 ) ) ;
#472 = ORIENTED_EDGE ( 'NONE', *, *, #515, .T. ) ;
#473 = CARTESIAN_POINT ( 'NONE',  ( -0.7599999999999996758, 0.9100000000000000311, 0.4000000000000000777 ) ) ;
#474 = DIRECTION ( 'NONE',  ( -1.000000000000000000, 0.0000000000000000000, 0.0000000000000000000 ) ) ;
#475 = ADVANCED_FACE ( 'NONE', ( #410 ), #355, .F. ) ;
#476 = CARTESIAN_POINT ( 'NONE',  ( 0.7599999999999997868, 0.9100000000000000311, 0.3600000000000000977 ) ) ;
#477 = VECTOR ( 'NONE', #695, 1000.000000000000000 ) ;
#478 = LINE ( 'NONE', #645, #112 ) ;
#479 = ADVANCED_FACE ( 'NONE', ( #1174 ), #572, .T. ) ;
#480 = CARTESIAN_POINT ( 'NONE',  ( 500000.0000000000582, 0.9099999999999998090, -0.3866666667100346344 ) ) ;
#481 = AXIS2_PLACEMENT_3D ( 'NONE', #414, #1108, #2 ) ;
#482 = CARTESIAN_POINT ( 'NONE',  ( -0.7599999999999997868, 0.03999999999999999389, -0.3999999999999998557 ) ) ;
#483 = FACE_OUTER_BOUND ( 'NONE', #699, .T. ) ;
#484 = VECTOR ( 'NONE', #894, 1000.000000000000000 ) ;
#485 = DIRECTION ( 'NONE',  ( 0.0000000000000000000, 0.0000000000000000000, -1.000000000000000000 ) ) ;
#486 = STYLED_ITEM ( 'NONE', ( #977 ), #107 ) ;
#487 = EDGE_LOOP ( 'NONE', ( #978, #444, #746, #1132 ) ) ;
#488 = ORIENTED_EDGE ( 'NONE', *, *, #898, .F. ) ;
#489 = EDGE_CURVE ( 'NONE', #558, #27, #322, .T. ) ;
#490 = ADVANCED_FACE ( 'NONE', ( #801 ), #283, .T. ) ;
#491 = PLANE ( 'NONE',  #679 ) ;
#492 = ADVANCED_FACE ( 'NONE', ( #96 ), #425, .T. ) ;
#493 = PRODUCT_CONTEXT ( 'NONE', #499, 'mechanical' ) ;
#494 = AXIS2_PLACEMENT_3D ( 'NONE', #1128, #736, #1025 ) ;
#495 = VECTOR ( 'NONE', #388, 1000.000000000000000 ) ;
#496 = DIRECTION ( 'NONE',  ( -2.710505431213761479E-15, 0.0000000000000000000, 1.000000000000000000 ) ) ;
#497 = LINE ( 'NONE', #810, #953 ) ;
#498 = PRESENTATION_STYLE_ASSIGNMENT (( #671 ) ) ;
#499 = APPLICATION_CONTEXT ( 'automotive_design' ) ;
#500 =( GEOMETRIC_REPRESENTATION_CONTEXT ( 3 ) GLOBAL_UNCERTAINTY_ASSIGNED_CONTEXT ( ( #1167 ) ) GLOBAL_UNIT_ASSIGNED_CONTEXT ( ( #202, #888, #407 ) ) REPRESENTATION_CONTEXT ( 'NONE', 'WORKASPACE' ) );
#501 = ORIENTED_EDGE ( 'NONE', *, *, #972, .T. ) ;
#502 = CARTESIAN_POINT ( 'NONE',  ( 0.4499999999999998446, 0.9100000000000000311, -0.3999999999999998557 ) ) ;
#503 = ORIENTED_EDGE ( 'NONE', *, *, #711, .F. ) ;
#504 = VERTEX_POINT ( 'NONE', #1191 ) ;
#505 = ORIENTED_EDGE ( 'NONE', *, *, #246, .T. ) ;
#506 = ORIENTED_EDGE ( 'NONE', *, *, #711, .T. ) ;
#507 = EDGE_CURVE ( 'NONE', #1094, #230, #542, .T. ) ;
#508 = DIRECTION ( 'NONE',  ( 0.0000000000000000000, 0.0000000000000000000, 1.000000000000000000 ) ) ;
#509 = CARTESIAN_POINT ( 'NONE',  ( -0.4499999999999999001, 0.9366666666666666474, -0.3599999999999998757 ) ) ;
#510 = CARTESIAN_POINT ( 'NONE',  ( -0.4499999999999997891, 0.9499999999999999556, 0.4000000000000000777 ) ) ;
#511 = CARTESIAN_POINT ( 'NONE',  ( -0.7599999999999996758, 0.04000000000000000083, 0.3600000000000000977 ) ) ;
#512 = FACE_OUTER_BOUND ( 'NONE', #120, .T. ) ;
#513 = CARTESIAN_POINT ( 'NONE',  ( 0.4499999999999998446, 0.9499999999999999556, -0.3999999999999998557 ) ) ;
#514 = DIRECTION ( 'NONE',  ( 1.000000000000000000, 0.0000000000000000000, 0.0000000000000000000 ) ) ;
#515 = EDGE_CURVE ( 'NONE', #995, #558, #1040, .T. ) ;
#516 = DIRECTION ( 'NONE',  ( 0.0000000000000000000, 0.0000000000000000000, -1.000000000000000000 ) ) ;
#517 = CYLINDRICAL_SURFACE ( 'NONE', #613, 0.03999999999999999389 ) ;
#518 = DIRECTION ( 'NONE',  ( 1.355252715606880789E-16, -0.0000000000000000000, 1.000000000000000000 ) ) ;
#519 = ORIENTED_EDGE ( 'NONE', *, *, #1251, .T. ) ;
#520 = DIRECTION ( 'NONE',  ( 0.0000000000000000000, 1.000000000000000000, 0.0000000000000000000 ) ) ;
#521 = ORIENTED_EDGE ( 'NONE', *, *, #617, .T. ) ;
#522 = ORIENTED_EDGE ( 'NONE', *, *, #815, .T. ) ;
#523 = DIRECTION ( 'NONE',  ( 0.0000000000000000000, 0.0000000000000000000, -1.000000000000000000 ) ) ;
#524 = CARTESIAN_POINT ( 'NONE',  ( 0.4499999999999997891, 0.03999999999999999389, 0.3600000000000000977 ) ) ;
#525 = LINE ( 'NONE', #480, #450 ) ;
#526 = VECTOR ( 'NONE', #913, 1000.000000000000000 ) ;
#527 = AXIS2_PLACEMENT_3D ( 'NONE', #95, #780, #196 ) ;
#528 = FACE_OUTER_BOUND ( 'NONE', #578, .T. ) ;
#529 = DIRECTION ( 'NONE',  ( 0.0000000000000000000, 1.000000000000000000, 0.0000000000000000000 ) ) ;
#530 = ORIENTED_EDGE ( 'NONE', *, *, #770, .F. ) ;
#531 = ORIENTED_EDGE ( 'NONE', *, *, #31, .T. ) ;
#532 = DIRECTION ( 'NONE',  ( 1.000000000000000000, 0.0000000000000000000, 0.0000000000000000000 ) ) ;
#533 = VERTEX_POINT ( 'NONE', #280 ) ;
#534 = ORIENTED_EDGE ( 'NONE', *, *, #834, .F. ) ;
#535 = DIRECTION ( 'NONE',  ( 0.0000000000000000000, -1.000000000000000000, 0.0000000000000000000 ) ) ;
#536 = AXIS2_PLACEMENT_3D ( 'NONE', #248, #826, #621 ) ;
#537 = EDGE_CURVE ( 'NONE', #946, #1033, #347, .T. ) ;
#538 = DIRECTION ( 'NONE',  ( -1.355252715606880789E-16, 0.0000000000000000000, 1.000000000000000000 ) ) ;
#539 = LINE ( 'NONE', #553, #673 ) ;
#540 = CARTESIAN_POINT ( 'NONE',  ( -0.7999999999999997113, 0.03999999999999999389, 0.3600000000000000977 ) ) ;
#541 = SURFACE_STYLE_FILL_AREA ( #1186 ) ;
#542 = CIRCLE ( 'NONE', #219, 0.03999999999999999389 ) ;
#543 = FACE_OUTER_BOUND ( 'NONE', #177, .T. ) ;
#544 = ORIENTED_EDGE ( 'NONE', *, *, #64, .T. ) ;
#545 = AXIS2_PLACEMENT_3D ( 'NONE', #436, #247, #1152 ) ;
#546 = VERTEX_POINT ( 'NONE', #877 ) ;
#547 = ORIENTED_EDGE ( 'NONE', *, *, #470, .F. ) ;
#548 = CARTESIAN_POINT ( 'NONE',  ( 0.4499999999999998446, 0.9499999999999999556, -0.3999999999999998557 ) ) ;
#549 = EDGE_CURVE ( 'NONE', #400, #962, #207, .T. ) ;
#550 = EDGE_CURVE ( 'NONE', #325, #900, #79, .T. ) ;
#551 = PLANE ( 'NONE',  #133 ) ;
#552 = FACE_OUTER_BOUND ( 'NONE', #735, .T. ) ;
#553 = CARTESIAN_POINT ( 'NONE',  ( 500000.0000000000582, 0.9366666666666666474, 0.3599999999566315112 ) ) ;
#554 = VECTOR ( 'NONE', #53, 1000.000000000000000 ) ;
#555 = AXIS2_PLACEMENT_3D ( 'NONE', #370, #1170, #665 ) ;
#556 = MANIFOLD_SOLID_BREP ( 'Fillet1', #446 ) ;
#557 = CARTESIAN_POINT ( 'NONE',  ( 0.7599999999999997868, 0.9100000000000000311, -0.3599999999999998757 ) ) ;
#558 = VERTEX_POINT ( 'NONE', #482 ) ;
#559 = EDGE_LOOP ( 'NONE', ( #1177, #427, #1147, #864 ) ) ;
#560 = ORIENTED_EDGE ( 'NONE', *, *, #507, .T. ) ;
#561 = VERTEX_POINT ( 'NONE', #1078 ) ;
#562 = DIRECTION ( 'NONE',  ( -1.000000000000000000, 0.0000000000000000000, 6.776263578034403945E-17 ) ) ;
#563 = AXIS2_PLACEMENT_3D ( 'NONE', #1247, #1142, #921 ) ;
#564 = CARTESIAN_POINT ( 'NONE',  ( 0.4499999999999998446, 0.9499999999999999556, -0.3599999999999998757 ) ) ;
#565 = DIRECTION ( 'NONE',  ( 1.000000000000000000, 0.0000000000000000000, 0.0000000000000000000 ) ) ;
#566 = EDGE_CURVE ( 'NONE', #1114, #918, #1222, .T. ) ;
#567 = ADVANCED_FACE ( 'NONE', ( #1206 ), #423, .T. ) ;
#568 = DIRECTION ( 'NONE',  ( 6.776263578034403945E-17, 0.0000000000000000000, -1.000000000000000000 ) ) ;
#569 = LINE ( 'NONE', #463, #872 ) ;
#570 = DIRECTION ( 'NONE',  ( -1.000000000000000000, 0.0000000000000000000, 0.0000000000000000000 ) ) ;
#571 = VECTOR ( 'NONE', #967, 1000.000000000000000 ) ;
#572 = CYLINDRICAL_SURFACE ( 'NONE', #59, 0.02666666666666664756 ) ;
#573 = DIRECTION ( 'NONE',  ( -1.000000000000000000, -0.0000000000000000000, 8.673617379884036705E-17 ) ) ;
#574 = EDGE_LOOP ( 'NONE', ( #231, #1166, #1209, #43 ) ) ;
#575 = EDGE_CURVE ( 'NONE', #561, #504, #409, .T. ) ;
#576 = ADVANCED_FACE ( 'NONE', ( #282 ), #239, .T. ) ;
#577 = ORIENTED_EDGE ( 'NONE', *, *, #549, .F. ) ;
#578 = EDGE_LOOP ( 'NONE', ( #577, #272, #622, #126 ) ) ;
#579 =( NAMED_UNIT ( * ) SI_UNIT ( $, .STERADIAN. ) SOLID_ANGLE_UNIT ( ) );
#580 = CARTESIAN_POINT ( 'NONE',  ( -0.7599999999999997868, 0.9499999999999999556, -0.3599999999999998757 ) ) ;
#581 =( LENGTH_UNIT ( ) NAMED_UNIT ( * ) SI_UNIT ( .MILLI., .METRE. ) );
#582 = CYLINDRICAL_SURFACE ( 'NONE', #166, 0.03999999999999999389 ) ;
#583 = LINE ( 'NONE', #513, #1026 ) ;
#584 = MECHANICAL_DESIGN_GEOMETRIC_PRESENTATION_REPRESENTATION (  '', ( #956 ), #284 ) ;
#585 = LINE ( 'NONE', #1027, #160 ) ;
#586 = CARTESIAN_POINT ( 'NONE',  ( 500000.0000000000582, 0.03999999999999999389, -0.3866666667100346344 ) ) ;
#587 = CIRCLE ( 'NONE', #226, 0.03999999999999999389 ) ;
#588 = AXIS2_PLACEMENT_3D ( 'NONE', #919, #796, #619 ) ;
#589 = VERTEX_POINT ( 'NONE', #680 ) ;
#590 = VERTEX_POINT ( 'NONE', #769 ) ;
#591 = DIRECTION ( 'NONE',  ( -0.0000000000000000000, -1.000000000000000000, -0.0000000000000000000 ) ) ;
#592 = VERTEX_POINT ( 'NONE', #186 ) ;
#593 = ORIENTED_EDGE ( 'NONE', *, *, #252, .F. ) ;
#594 = DIRECTION ( 'NONE',  ( 1.000000000000000000, 0.0000000000000000000, 6.776263578034403945E-17 ) ) ;
#595 = DIRECTION ( 'NONE',  ( 0.0000000000000000000, -1.000000000000000000, 0.0000000000000000000 ) ) ;
#596 = DIRECTION ( 'NONE',  ( 1.000000000000000000, 0.0000000000000000000, 6.776263578034403945E-17 ) ) ;
#597 = DIRECTION ( 'NONE',  ( 0.0000000000000000000, -1.000000000000000000, 0.0000000000000000000 ) ) ;
#598 = AXIS2_PLACEMENT_3D ( 'NONE', #10, #1080, #404 ) ;
#599 = DIRECTION ( 'NONE',  ( 0.0000000000000000000, 0.0000000000000000000, -1.000000000000000000 ) ) ;
#600 = EDGE_CURVE ( 'NONE', #1226, #27, #452, .T. ) ;
#601 = CIRCLE ( 'NONE', #929, 0.03999999999999999389 ) ;
#602 = CARTESIAN_POINT ( 'NONE',  ( -0.7599999999999996758, 0.04000000000000000083, 0.3600000000000000977 ) ) ;
#603 = CARTESIAN_POINT ( 'NONE',  ( -0.4499999999999997891, 0.9100000000000000311, 0.3600000000000000977 ) ) ;
#604 = CIRCLE ( 'NONE', #154, 0.03999999999999999389 ) ;
#605 = ORIENTED_EDGE ( 'NONE', *, *, #859, .F. ) ;
#606 = EDGE_LOOP ( 'NONE', ( #731, #531, #683 ) ) ;
#607 = ORIENTED_EDGE ( 'NONE', *, *, #841, .T. ) ;
#608 = DIRECTION ( 'NONE',  ( -1.000000000000000000, -0.0000000000000000000, 8.673617379884036705E-17 ) ) ;
#609 = DIRECTION ( 'NONE',  ( 1.000000000000000000, 0.0000000000000000000, -8.673617379884036705E-17 ) ) ;
#610 = CARTESIAN_POINT ( 'NONE',  ( 0.7599999999999997868, 0.9499999999999999556, 0.4000000000000000777 ) ) ;
#611 = AXIS2_PLACEMENT_3D ( 'NONE', #447, #535, #1244 ) ;
#612 = CARTESIAN_POINT ( 'NONE',  ( 0.7999999999999998224, 0.9100000000000000311, -0.3999999999999998557 ) ) ;
#613 = AXIS2_PLACEMENT_3D ( 'NONE', #1018, #1007, #426 ) ;
#614 = FACE_OUTER_BOUND ( 'NONE', #309, .T. ) ;
#615 = DIRECTION ( 'NONE',  ( 0.0000000000000000000, 0.0000000000000000000, 1.000000000000000000 ) ) ;
#616 = CYLINDRICAL_SURFACE ( 'NONE', #696, 0.02666666666666664756 ) ;
#617 = EDGE_CURVE ( 'NONE', #930, #385, #941, .T. ) ;
#618 = DIRECTION ( 'NONE',  ( 1.000000000000000000, 0.0000000000000000000, 0.0000000000000000000 ) ) ;
#619 = DIRECTION ( 'NONE',  ( 0.0000000000000000000, 0.0000000000000000000, 1.000000000000000000 ) ) ;
#620 = CIRCLE ( 'NONE', #1173, 0.03999999999999999389 ) ;
#621 = DIRECTION ( 'NONE',  ( 0.0000000000000000000, -0.0000000000000000000, 1.000000000000000000 ) ) ;
#622 = ORIENTED_EDGE ( 'NONE', *, *, #878, .T. ) ;
#623 = ORIENTED_EDGE ( 'NONE', *, *, #424, .F. ) ;
#624 = ORIENTED_EDGE ( 'NONE', *, *, #1145, .F. ) ;
#625 = CARTESIAN_POINT ( 'NONE',  ( 0.7999999999999998224, 0.03999999999999999389, -0.3999999999999998557 ) ) ;
#626 = ORIENTED_EDGE ( 'NONE', *, *, #236, .T. ) ;
#627 = ORIENTED_EDGE ( 'NONE', *, *, #785, .F. ) ;
#628 = PRESENTATION_LAYER_ASSIGNMENT (  '', '', ( #1258 ) ) ;
#629 = CARTESIAN_POINT ( 'NONE',  ( -0.7599999999999997868, 0.9499999999999999556, 0.3600000000000000977 ) ) ;
#630 = AXIS2_PLACEMENT_3D ( 'NONE', #109, #595, #1104 ) ;
#631 = EDGE_CURVE ( 'NONE', #163, #1179, #716, .T. ) ;
#632 = CARTESIAN_POINT ( 'NONE',  ( 0.4499999999999998446, 0.9499999999999999556, -0.3999999999999998557 ) ) ;
#633 = FACE_OUTER_BOUND ( 'NONE', #1238, .T. ) ;
#634 = ORIENTED_EDGE ( 'NONE', *, *, #550, .F. ) ;
#635 = EDGE_LOOP ( 'NONE', ( #979, #1163, #519, #1266 ) ) ;
#636 = DIRECTION ( 'NONE',  ( 0.0000000000000000000, -0.0000000000000000000, 1.000000000000000000 ) ) ;
#637 = ORIENTED_EDGE ( 'NONE', *, *, #3, .F. ) ;
#638 = ORIENTED_EDGE ( 'NONE', *, *, #1087, .F. ) ;
#639 = DIRECTION ( 'NONE',  ( 0.0000000000000000000, -0.0000000000000000000, 1.000000000000000000 ) ) ;
#640 = DIRECTION ( 'NONE',  ( 0.0000000000000000000, 0.0000000000000000000, -1.000000000000000000 ) ) ;
#641 = EDGE_CURVE ( 'NONE', #589, #592, #1109, .T. ) ;
#642 = DIRECTION ( 'NONE',  ( 0.0000000000000000000, -1.000000000000000000, 0.0000000000000000000 ) ) ;
#643 = DIRECTION ( 'NONE',  ( -6.776263578034403945E-17, 0.0000000000000000000, 1.000000000000000000 ) ) ;
#644 = CYLINDRICAL_SURFACE ( 'NONE', #1127, 0.03999999999999999389 ) ;
#645 = CARTESIAN_POINT ( 'NONE',  ( 500000.0000000000582, 0.9366666666666666474, -0.3600000000433680181 ) ) ;
#646 = FACE_OUTER_BOUND ( 'NONE', #259, .T. ) ;
#647 = DIRECTION ( 'NONE',  ( 6.776263578034403945E-17, 0.0000000000000000000, 1.000000000000000000 ) ) ;
#648 = FACE_OUTER_BOUND ( 'NONE', #162, .T. ) ;
#649 = FACE_OUTER_BOUND ( 'NONE', #606, .T. ) ;
#650 = DIRECTION ( 'NONE',  ( 0.0000000000000000000, 0.0000000000000000000, -1.000000000000000000 ) ) ;
#651 = ORIENTED_EDGE ( 'NONE', *, *, #1021, .T. ) ;
#652 = ORIENTED_EDGE ( 'NONE', *, *, #1271, .T. ) ;
#653 = CLOSED_SHELL ( 'NONE', ( #390, #784, #475, #197, #1183, #774, #867, #178, #204, #1079, #964, #764, #1072, #669, #101, #77, #290, #492 ) ) ;
#654 =( GEOMETRIC_REPRESENTATION_CONTEXT ( 3 ) GLOBAL_UNCERTAINTY_ASSIGNED_CONTEXT ( ( #61 ) ) GLOBAL_UNIT_ASSIGNED_CONTEXT ( ( #1003, #1228, #26 ) ) REPRESENTATION_CONTEXT ( 'NONE', 'WORKASPACE' ) );
#655 = DIRECTION ( 'NONE',  ( 0.0000000000000000000, -1.000000000000000000, 0.0000000000000000000 ) ) ;
#656 = CARTESIAN_POINT ( 'NONE',  ( 500000.0000000000582, 0.03999999999999999389, 0.3599999999566319553 ) ) ;
#657 = CARTESIAN_POINT ( 'NONE',  ( -0.7599999999999998979, 0.9499999999999999556, -0.3599999999999998757 ) ) ;
#658 = PRESENTATION_STYLE_ASSIGNMENT (( #786 ) ) ;
#659 = CARTESIAN_POINT ( 'NONE',  ( -0.7999999999999998224, 0.03999999999999999389, -0.3999999999999998557 ) ) ;
#660 = EDGE_CURVE ( 'NONE', #457, #946, #954, .T. ) ;
#661 = VECTOR ( 'NONE', #155, 1000.000000000000000 ) ;
#662 = ADVANCED_FACE ( 'NONE', ( #377 ), #17, .F. ) ;
#663 = EDGE_LOOP ( 'NONE', ( #840, #140, #458, #289 ) ) ;
#664 = ORIENTED_EDGE ( 'NONE', *, *, #357, .F. ) ;
#665 = DIRECTION ( 'NONE',  ( 1.000000000000000000, 0.0000000000000000000, 0.0000000000000000000 ) ) ;
#666 = ORIENTED_EDGE ( 'NONE', *, *, #641, .T. ) ;
#667 = ORIENTED_EDGE ( 'NONE', *, *, #19, .T. ) ;
#668 = SURFACE_SIDE_STYLE ('',( #541 ) ) ;
#669 = ADVANCED_FACE ( 'NONE', ( #648 ), #159, .T. ) ;
#670 = DIRECTION ( 'NONE',  ( 1.000000000000000000, -0.0000000000000000000, -0.0000000000000000000 ) ) ;
#671 = SURFACE_STYLE_USAGE ( .BOTH. , #668 ) ;
#672 = AXIS2_PLACEMENT_3D ( 'NONE', #121, #1197, #320 ) ;
#673 = VECTOR ( 'NONE', #573, 1000.000000000000000 ) ;
#674 = CIRCLE ( 'NONE', #849, 0.03999999999999999389 ) ;
#675 = PLANE ( 'NONE',  #527 ) ;
#676 = VECTOR ( 'NONE', #1086, 1000.000000000000000 ) ;
#677 = FACE_OUTER_BOUND ( 'NONE', #161, .T. ) ;
#678 = DIRECTION ( 'NONE',  ( -1.000000000000000000, -0.0000000000000000000, 8.673617379884036705E-17 ) ) ;
#679 = AXIS2_PLACEMENT_3D ( 'NONE', #311, #508, #1105 ) ;
#680 = CARTESIAN_POINT ( 'NONE',  ( -0.7599999999999996758, 0.0000000000000000000, 0.3600000000000000977 ) ) ;
#681 = EDGE_CURVE ( 'NONE', #1179, #326, #895, .T. ) ;
#682 = DIRECTION ( 'NONE',  ( 0.0000000000000000000, 0.0000000000000000000, 1.000000000000000000 ) ) ;
#683 = ORIENTED_EDGE ( 'NONE', *, *, #1063, .F. ) ;
#684 = ORIENTED_EDGE ( 'NONE', *, *, #440, .F. ) ;
#685 = ORIENTED_EDGE ( 'NONE', *, *, #51, .F. ) ;
#686 = ADVANCED_FACE ( 'NONE', ( #926 ), #268, .T. ) ;
#687 =( NAMED_UNIT ( * ) SI_UNIT ( $, .STERADIAN. ) SOLID_ANGLE_UNIT ( ) );
#688 = PLANE ( 'NONE',  #630 ) ;
#689 = CARTESIAN_POINT ( 'NONE',  ( 0.4499999999999998446, 0.9100000000000000311, -0.3599999999999998757 ) ) ;
#690 = PRODUCT_RELATED_PRODUCT_CATEGORY ( 'part', '', ( #435 ) ) ;
#691 = DIRECTION ( 'NONE',  ( 0.0000000000000000000, -1.000000000000000000, -0.0000000000000000000 ) ) ;
#692 = ADVANCED_FACE ( 'NONE', ( #115 ), #688, .F. ) ;
#693 = DIRECTION ( 'NONE',  ( 0.0000000000000000000, -1.000000000000000000, 0.0000000000000000000 ) ) ;
#694 = VECTOR ( 'NONE', #597, 1000.000000000000000 ) ;
#695 = DIRECTION ( 'NONE',  ( -0.0000000000000000000, 1.000000000000000000, -0.0000000000000000000 ) ) ;
#696 = AXIS2_PLACEMENT_3D ( 'NONE', #707, #608, #1004 ) ;
#697 = VERTEX_POINT ( 'NONE', #99 ) ;
#698 = CARTESIAN_POINT ( 'NONE',  ( 0.7599999999999997868, 0.9499999999999999556, -0.3999999999999998557 ) ) ;
#699 = EDGE_LOOP ( 'NONE', ( #788, #445, #547, #25, #623, #179, #215, #124 ) ) ;
#700 = ORIENTED_EDGE ( 'NONE', *, *, #1122, .T. ) ;
#701 = CARTESIAN_POINT ( 'NONE',  ( -0.7599999999999996758, 0.03999999999999999389, 0.3600000000000000977 ) ) ;
#702 = VERTEX_POINT ( 'NONE', #1001 ) ;
#703 = ORIENTED_EDGE ( 'NONE', *, *, #815, .F. ) ;
#704 = EDGE_CURVE ( 'NONE', #1178, #1014, #1069, .T. ) ;
#705 = CARTESIAN_POINT ( 'NONE',  ( -0.4499999999999998446, 0.9100000000000000311, -0.3999999999999998557 ) ) ;
#706 = ORIENTED_EDGE ( 'NONE', *, *, #795, .T. ) ;
#707 = CARTESIAN_POINT ( 'NONE',  ( 500000.0000000000582, 0.9100000000000000311, -0.3600000000433680181 ) ) ;
#708 = DIRECTION ( 'NONE',  ( 0.0000000000000000000, 1.000000000000000000, 0.0000000000000000000 ) ) ;
#709 = CARTESIAN_POINT ( 'NONE',  ( 0.7999999999999998224, 0.9499999999999999556, -0.3999999999999998557 ) ) ;
#710 = CARTESIAN_POINT ( 'NONE',  ( 0.7599999999999996758, 0.04000000000000000083, 0.3600000000000000977 ) ) ;
#711 = EDGE_CURVE ( 'NONE', #1094, #67, #1234, .T. ) ;
#712 = FACE_OUTER_BOUND ( 'NONE', #863, .T. ) ;
#713 = DIRECTION ( 'NONE',  ( 0.0000000000000000000, 0.0000000000000000000, 1.000000000000000000 ) ) ;
#714 = SPHERICAL_SURFACE ( 'NONE', #1225, 0.04000000000000000083 ) ;
#715 = DIRECTION ( 'NONE',  ( 0.0000000000000000000, 0.0000000000000000000, 1.000000000000000000 ) ) ;
#716 = CIRCLE ( 'NONE', #672, 0.03999999999999999389 ) ;
#717 = CARTESIAN_POINT ( 'NONE',  ( 0.0000000000000000000, 0.0000000000000000000, -0.3599999999999998757 ) ) ;
#718 = FACE_OUTER_BOUND ( 'NONE', #663, .T. ) ;
#719 = ORIENTED_EDGE ( 'NONE', *, *, #1182, .F. ) ;
#720 = DIRECTION ( 'NONE',  ( -1.355252715606880789E-16, 0.0000000000000000000, 1.000000000000000000 ) ) ;
#721 = ORIENTED_EDGE ( 'NONE', *, *, #1187, .F. ) ;
#722 = EDGE_LOOP ( 'NONE', ( #260, #759, #806, #637 ) ) ;
#723 = DIRECTION ( 'NONE',  ( -1.355252715606880789E-16, 0.0000000000000000000, -1.000000000000000000 ) ) ;
#724 = CARTESIAN_POINT ( 'NONE',  ( -0.4499999999999997891, 0.03999999999999999389, 0.3600000000000000977 ) ) ;
#725 = AXIS2_PLACEMENT_3D ( 'NONE', #756, #971, #396 ) ;
#726 = CARTESIAN_POINT ( 'NONE',  ( 0.4499999999999998446, 0.9499999999999999556, -0.3999999999999998557 ) ) ;
#727 = AXIS2_PLACEMENT_3D ( 'NONE', #1201, #594, #1100 ) ;
#728 = CARTESIAN_POINT ( 'NONE',  ( 0.7999999999999997113, 0.9499999999999999556, 0.3600000000000000977 ) ) ;
#729 = LINE ( 'NONE', #419, #1233 ) ;
#730 = DIRECTION ( 'NONE',  ( 0.0000000000000000000, -1.000000000000000000, 0.0000000000000000000 ) ) ;
#731 = ORIENTED_EDGE ( 'NONE', *, *, #988, .T. ) ;
#732 = ORIENTED_EDGE ( 'NONE', *, *, #1230, .F. ) ;
#733 = CARTESIAN_POINT ( 'NONE',  ( 0.7599999999999997868, 0.04000000000000000083, -0.3599999999999998757 ) ) ;
#734 = ORIENTED_EDGE ( 'NONE', *, *, #910, .F. ) ;
#735 = EDGE_LOOP ( 'NONE', ( #760, #522, #1210, #1093 ) ) ;
#736 = DIRECTION ( 'NONE',  ( -1.000000000000000000, -0.0000000000000000000, -0.0000000000000000000 ) ) ;
#737 = EDGE_CURVE ( 'NONE', #776, #905, #172, .T. ) ;
#738 = DIRECTION ( 'NONE',  ( -1.000000000000000000, -0.0000000000000000000, 8.673617379884036705E-17 ) ) ;
#739 = CARTESIAN_POINT ( 'NONE',  ( 0.7999999999999997113, 0.9100000000000000311, 0.3600000000000000977 ) ) ;
#740 = COLOUR_RGB ( '',0.7921568627450980005, 0.8196078431372548767, 0.9333333333333333481 ) ;
#741 = DIRECTION ( 'NONE',  ( 1.000000000000000000, 0.0000000000000000000, 0.0000000000000000000 ) ) ;
#742 = CIRCLE ( 'NONE', #467, 0.03999999999999999389 ) ;
#743 = COLOUR_RGB ( '',0.7921568627450980005, 0.8196078431372548767, 0.9333333333333333481 ) ;
#744 = CIRCLE ( 'NONE', #545, 0.02666666666666669960 ) ;
#745 = COLOUR_RGB ( '',0.4862745098039215619, 0.2352941176470588203, 0.01568627450980392135 ) ;
#746 = ORIENTED_EDGE ( 'NONE', *, *, #988, .F. ) ;
#747 = ORIENTED_EDGE ( 'NONE', *, *, #3, .T. ) ;
#748 = AXIS2_PLACEMENT_3D ( 'NONE', #1232, #224, #420 ) ;
#749 = MANIFOLD_SOLID_BREP ( 'Mirror2', #653 ) ;
#750 = EDGE_CURVE ( 'NONE', #1015, #866, #360, .T. ) ;
#751 = DIRECTION ( 'NONE',  ( 0.0000000000000000000, 0.0000000000000000000, -1.000000000000000000 ) ) ;
#752 = VECTOR ( 'NONE', #227, 1000.000000000000000 ) ;
#753 = VECTOR ( 'NONE', #792, 1000.000000000000000 ) ;
#754 = VECTOR ( 'NONE', #189, 1000.000000000000000 ) ;
#755 = CARTESIAN_POINT ( 'NONE',  ( -0.4499999999999998446, 0.0000000000000000000, -0.3599999999999998757 ) ) ;
#756 = CARTESIAN_POINT ( 'NONE',  ( 500000.0000000000582, 0.9100000000000000311, 0.3599999999566319553 ) ) ;
#757 = AXIS2_PLACEMENT_3D ( 'NONE', #315, #209, #1005 ) ;
#758 = ORIENTED_EDGE ( 'NONE', *, *, #158, .T. ) ;
#759 = ORIENTED_EDGE ( 'NONE', *, *, #1162, .F. ) ;
#760 = ORIENTED_EDGE ( 'NONE', *, *, #507, .F. ) ;
#761 = ORIENTED_EDGE ( 'NONE', *, *, #910, .T. ) ;
#762 = DIRECTION ( 'NONE',  ( 0.0000000000000000000, 1.000000000000000000, 0.0000000000000000000 ) ) ;
#763 = EDGE_CURVE ( 'NONE', #1150, #561, #1008, .T. ) ;
#764 = ADVANCED_FACE ( 'NONE', ( #912 ), #434, .T. ) ;
#765 = FACE_OUTER_BOUND ( 'NONE', #635, .T. ) ;
#766 = ADVANCED_FACE ( 'NONE', ( #893 ), #714, .T. ) ;
#767 = CIRCLE ( 'NONE', #1000, 0.03999999999999999389 ) ;
#768 = CARTESIAN_POINT ( 'NONE',  ( 0.0000000000000000000, 0.0000000000000000000, 0.3600000000000000977 ) ) ;
#769 = CARTESIAN_POINT ( 'NONE',  ( 0.4500000000007275958, 0.9366666666666666474, 0.3599999999999995426 ) ) ;
#770 = EDGE_CURVE ( 'NONE', #791, #930, #873, .T. ) ;
#771 = LINE ( 'NONE', #269, #1192 ) ;
#772 = SPHERICAL_SURFACE ( 'NONE', #945, 0.04000000000000000083 ) ;
#773 = ORIENTED_EDGE ( 'NONE', *, *, #122, .F. ) ;
#774 = ADVANCED_FACE ( 'NONE', ( #1171 ), #127, .F. ) ;
#775 = ORIENTED_EDGE ( 'NONE', *, *, #842, .T. ) ;
#776 = VERTEX_POINT ( 'NONE', #1121 ) ;
#777 = DIRECTION ( 'NONE',  ( 0.0000000000000000000, 0.0000000000000000000, -1.000000000000000000 ) ) ;
#778 = CARTESIAN_POINT ( 'NONE',  ( 0.0000000000000000000, 0.0000000000000000000, 0.0000000000000000000 ) ) ;
#779 = DIRECTION ( 'NONE',  ( -0.0000000000000000000, 1.000000000000000000, -0.0000000000000000000 ) ) ;
#780 = DIRECTION ( 'NONE',  ( 0.0000000000000000000, 0.0000000000000000000, -1.000000000000000000 ) ) ;
#781 = AXIS2_PLACEMENT_3D ( 'NONE', #548, #1048, #643 ) ;
#782 = CYLINDRICAL_SURFACE ( 'NONE', #49, 0.03999999999999999389 ) ;
#783 = VECTOR ( 'NONE', #1254, 1000.000000000000000 ) ;
#784 = ADVANCED_FACE ( 'NONE', ( #1052 ), #816, .F. ) ;
#785 = EDGE_CURVE ( 'NONE', #44, #504, #203, .T. ) ;
#786 = SURFACE_STYLE_USAGE ( .BOTH. , #984 ) ;
#787 = VECTOR ( 'NONE', #720, 1000.000000000000000 ) ;
#788 = ORIENTED_EDGE ( 'NONE', *, *, #1002, .T. ) ;
#789 = ORIENTED_EDGE ( 'NONE', *, *, #1182, .T. ) ;
#790 = VERTEX_POINT ( 'NONE', #328 ) ;
#791 = VERTEX_POINT ( 'NONE', #329 ) ;
#792 = DIRECTION ( 'NONE',  ( 0.0000000000000000000, 1.000000000000000000, 0.0000000000000000000 ) ) ;
#793 = PRODUCT_DEFINITION_FORMATION_WITH_SPECIFIED_SOURCE ( 'ANY', '', #435, .NOT_KNOWN. ) ;
#794 = CARTESIAN_POINT ( 'NONE',  ( 0.0000000000000000000, 0.0000000000000000000, 0.0000000000000000000 ) ) ;
#795 = EDGE_CURVE ( 'NONE', #533, #776, #451, .T. ) ;
#796 = DIRECTION ( 'NONE',  ( 1.000000000000000000, 0.0000000000000000000, 0.0000000000000000000 ) ) ;
#797 = VECTOR ( 'NONE', #1057, 1000.000000000000000 ) ;
#798 = CARTESIAN_POINT ( 'NONE',  ( -0.4499999999999997891, 0.01333333333333333245, 0.3599999999999998757 ) ) ;
#799 = DIRECTION ( 'NONE',  ( -1.355252715606880789E-16, 0.0000000000000000000, 1.000000000000000000 ) ) ;
#800 = VECTOR ( 'NONE', #883, 1000.000000000000000 ) ;
#801 = FACE_OUTER_BOUND ( 'NONE', #865, .T. ) ;
#802 = DIRECTION ( 'NONE',  ( 1.000000000000000000, 0.0000000000000000000, 0.0000000000000000000 ) ) ;
#803 = CIRCLE ( 'NONE', #1229, 0.03999999999999999389 ) ;
#804 = ORIENTED_EDGE ( 'NONE', *, *, #932, .T. ) ;
#805 = DIRECTION ( 'NONE',  ( 0.0000000000000000000, 0.0000000000000000000, -1.000000000000000000 ) ) ;
#806 = ORIENTED_EDGE ( 'NONE', *, *, #440, .T. ) ;
#807 = ORIENTED_EDGE ( 'NONE', *, *, #973, .F. ) ;
#808 = CARTESIAN_POINT ( 'NONE',  ( -0.7999999999999997113, 0.9100000000000000311, 0.3600000000000000977 ) ) ;
#809 = AXIS2_PLACEMENT_3D ( 'NONE', #906, #1099, #994 ) ;
#810 = CARTESIAN_POINT ( 'NONE',  ( -0.7999999999999997113, 0.9100000000000000311, 0.4000000000000000777 ) ) ;
#811 = CARTESIAN_POINT ( 'NONE',  ( 0.7999999999999998224, 0.03999999999999999389, -0.3999999999999998557 ) ) ;
#812 = SURFACE_SIDE_STYLE ('',( #880 ) ) ;
#813 = AXIS2_PLACEMENT_3D ( 'NONE', #709, #125, #1223 ) ;
#814 = DIRECTION ( 'NONE',  ( 0.0000000000000000000, 0.0000000000000000000, 1.000000000000000000 ) ) ;
#815 = EDGE_CURVE ( 'NONE', #1094, #702, #222, .T. ) ;
#816 = PLANE ( 'NONE',  #106 ) ;
#817 = FACE_OUTER_BOUND ( 'NONE', #12, .T. ) ;
#818 = SURFACE_STYLE_USAGE ( .BOTH. , #812 ) ;
#819 = PLANE ( 'NONE',  #536 ) ;
#820 = CIRCLE ( 'NONE', #331, 0.02666666666666669960 ) ;
#821 = CLOSED_SHELL ( 'NONE', ( #1097, #1200, #92, #1272, #982, #479, #403, #490, #692, #861 ) ) ;
#822 = DIRECTION ( 'NONE',  ( -1.000000000000000000, 0.0000000000000000000, 0.0000000000000000000 ) ) ;
#823 = AXIS2_PLACEMENT_3D ( 'NONE', #401, #975, #485 ) ;
#824 = ORIENTED_EDGE ( 'NONE', *, *, #183, .T. ) ;
#825 = ORIENTED_EDGE ( 'NONE', *, *, #1044, .T. ) ;
#826 = DIRECTION ( 'NONE',  ( 0.0000000000000000000, 1.000000000000000000, 0.0000000000000000000 ) ) ;
#827 = ORIENTED_EDGE ( 'NONE', *, *, #566, .T. ) ;
#828 = VERTEX_POINT ( 'NONE', #1219 ) ;
#829 = CARTESIAN_POINT ( 'NONE',  ( 0.4500000000007275958, 0.01333333333333333245, -0.3599999999999997646 ) ) ;
#830 = AXIS2_PLACEMENT_3D ( 'NONE', #129, #802, #615 ) ;
#831 = CARTESIAN_POINT ( 'NONE',  ( -0.4499999999999997891, 0.9100000000000000311, 0.4000000000000000777 ) ) ;
#832 = CARTESIAN_POINT ( 'NONE',  ( -0.4499999999999999001, 0.03999999999999999389, -0.3866666666666664920 ) ) ;
#833 = CIRCLE ( 'NONE', #494, 0.03999999999999999389 ) ;
#834 = EDGE_CURVE ( 'NONE', #176, #1015, #674, .T. ) ;
#835 = CARTESIAN_POINT ( 'NONE',  ( -0.4499999999999997891, 0.01333333333333334286, 0.3599999999999998757 ) ) ;
#836 = VECTOR ( 'NONE', #1176, 1000.000000000000000 ) ;
#837 = ORIENTED_EDGE ( 'NONE', *, *, #876, .T. ) ;
#838 = DIRECTION ( 'NONE',  ( 0.0000000000000000000, -1.000000000000000000, 0.0000000000000000000 ) ) ;
#839 = ORIENTED_EDGE ( 'NONE', *, *, #51, .T. ) ;
#840 = ORIENTED_EDGE ( 'NONE', *, *, #303, .F. ) ;
#841 = EDGE_CURVE ( 'NONE', #214, #900, #1203, .T. ) ;
#842 = EDGE_CURVE ( 'NONE', #326, #176, #924, .T. ) ;
#843 = CARTESIAN_POINT ( 'NONE',  ( 0.4499999999999998446, 0.9100000000000000311, -0.3999999999999998557 ) ) ;
#844 = DIRECTION ( 'NONE',  ( 0.0000000000000000000, 0.0000000000000000000, 1.000000000000000000 ) ) ;
#845 = VECTOR ( 'NONE', #1075, 1000.000000000000000 ) ;
#846 = VECTOR ( 'NONE', #618, 1000.000000000000000 ) ;
#847 = LINE ( 'NONE', #431, #190 ) ;
#848 = DIRECTION ( 'NONE',  ( -1.000000000000000000, -0.0000000000000000000, -0.0000000000000000000 ) ) ;
#849 = AXIS2_PLACEMENT_3D ( 'NONE', #603, #1101, #1016 ) ;
#850 = LINE ( 'NONE', #705, #337 ) ;
#851 = ORIENTED_EDGE ( 'NONE', *, *, #1246, .T. ) ;
#852 = CARTESIAN_POINT ( 'NONE',  ( 0.4499999999999997891, 0.04000000000000021594, 0.4000000000000000777 ) ) ;
#853 = EDGE_LOOP ( 'NONE', ( #703, #243, #13, #244 ) ) ;
#854 = EDGE_LOOP ( 'NONE', ( #367, #28, #931, #181 ) ) ;
#855 = DIRECTION ( 'NONE',  ( 1.000000000000000000, 0.0000000000000000000, 6.776263578034403945E-17 ) ) ;
#856 = DIRECTION ( 'NONE',  ( 1.000000000000000000, 0.0000000000000000000, -8.673617379884036705E-17 ) ) ;
#857 = DIRECTION ( 'NONE',  ( -1.000000000000000000, -0.0000000000000000000, 8.673617379884036705E-17 ) ) ;
#858 = CARTESIAN_POINT ( 'NONE',  ( 0.7599999999999998979, 0.9100000000000000311, -0.3599999999999998757 ) ) ;
#859 = EDGE_CURVE ( 'NONE', #866, #1239, #1260, .T. ) ;
#860 = LINE ( 'NONE', #625, #362 ) ;
#861 = ADVANCED_FACE ( 'NONE', ( #421 ), #616, .T. ) ;
#862 = CARTESIAN_POINT ( 'NONE',  ( 500000.0000000000582, 0.01333333333333334286, 0.3599999999566317332 ) ) ;
#863 = EDGE_LOOP ( 'NONE', ( #68, #851, #882 ) ) ;
#864 = ORIENTED_EDGE ( 'NONE', *, *, #1264, .F. ) ;
#865 = EDGE_LOOP ( 'NONE', ( #664, #119, #338, #1045 ) ) ;
#866 = VERTEX_POINT ( 'NONE', #1107 ) ;
#867 = ADVANCED_FACE ( 'NONE', ( #646 ), #1157, .T. ) ;
#868 =( NAMED_UNIT ( * ) PLANE_ANGLE_UNIT ( ) SI_UNIT ( $, .RADIAN. ) );
#869 = DIRECTION ( 'NONE',  ( 0.0000000000000000000, 0.0000000000000000000, 1.000000000000000000 ) ) ;
#870 = AXIS2_PLACEMENT_3D ( 'NONE', #313, #591, #1090 ) ;
#871 = DIRECTION ( 'NONE',  ( 0.0000000000000000000, 1.000000000000000000, 0.0000000000000000000 ) ) ;
#872 = VECTOR ( 'NONE', #670, 1000.000000000000000 ) ;
#873 = CIRCLE ( 'NONE', #920, 0.02666666666666669960 ) ;
#874 = ADVANCED_FACE ( 'NONE', ( #6 ), #221, .F. ) ;
#875 = CARTESIAN_POINT ( 'NONE',  ( 500000.0000000000582, 0.03999999999999999389, -0.3600000000433680181 ) ) ;
#876 = EDGE_CURVE ( 'NONE', #790, #1178, #583, .T. ) ;
#877 = CARTESIAN_POINT ( 'NONE',  ( 0.4500000000007275958, 0.01333333333333334286, 0.3599999999999997646 ) ) ;
#878 = EDGE_CURVE ( 'NONE', #213, #791, #1126, .T. ) ;
#879 = LINE ( 'NONE', #72, #1112 ) ;
#880 = SURFACE_STYLE_FILL_AREA ( #1217 ) ;
#881 = ORIENTED_EDGE ( 'NONE', *, *, #973, .T. ) ;
#882 = ORIENTED_EDGE ( 'NONE', *, *, #537, .F. ) ;
#883 = DIRECTION ( 'NONE',  ( 1.000000000000000000, 0.0000000000000000000, 0.0000000000000000000 ) ) ;
#884 = ORIENTED_EDGE ( 'NONE', *, *, #1251, .F. ) ;
#885 = ORIENTED_EDGE ( 'NONE', *, *, #878, .F. ) ;
#886 = DIRECTION ( 'NONE',  ( 1.000000000000000000, 0.0000000000000000000, 0.0000000000000000000 ) ) ;
#887 = AXIS2_PLACEMENT_3D ( 'NONE', #632, #253, #352 ) ;
#888 =( NAMED_UNIT ( * ) PLANE_ANGLE_UNIT ( ) SI_UNIT ( $, .RADIAN. ) );
#889 = DIRECTION ( 'NONE',  ( -1.000000000000000000, 0.0000000000000000000, 0.0000000000000000000 ) ) ;
#890 = DIRECTION ( 'NONE',  ( 1.000000000000000000, 0.0000000000000000000, 0.0000000000000000000 ) ) ;
#891 =( LENGTH_UNIT ( ) NAMED_UNIT ( * ) SI_UNIT ( .MILLI., .METRE. ) );
#892 = AXIS2_PLACEMENT_3D ( 'NONE', #1159, #1053, #751 ) ;
#893 = FACE_OUTER_BOUND ( 'NONE', #105, .T. ) ;
#894 = DIRECTION ( 'NONE',  ( -1.355252715606880789E-16, -0.0000000000000000000, -1.000000000000000000 ) ) ;
#895 = CIRCLE ( 'NONE', #809, 0.03999999999999999389 ) ;
#896 = CARTESIAN_POINT ( 'NONE',  ( 0.7599999999999997868, 0.03999999999999999389, -0.3999999999999998557 ) ) ;
#897 = CYLINDRICAL_SURFACE ( 'NONE', #748, 0.03999999999999999389 ) ;
#898 = EDGE_CURVE ( 'NONE', #1015, #1179, #497, .T. ) ;
#899 = CARTESIAN_POINT ( 'NONE',  ( 0.7599999999999997868, 0.9499999999999999556, 0.3600000000000000977 ) ) ;
#900 = VERTEX_POINT ( 'NONE', #312 ) ;
#901 = ORIENTED_EDGE ( 'NONE', *, *, #229, .F. ) ;
#902 = EDGE_LOOP ( 'NONE', ( #1116, #626, #758, #721 ) ) ;
#903 = ORIENTED_EDGE ( 'NONE', *, *, #737, .T. ) ;
#904 = CARTESIAN_POINT ( 'NONE',  ( 0.7999999999999998224, 0.03999999999999999389, -0.3599999999999998757 ) ) ;
#905 = VERTEX_POINT ( 'NONE', #904 ) ;
#906 = CARTESIAN_POINT ( 'NONE',  ( -0.7599999999999996758, 0.9100000000000000311, 0.3600000000000000977 ) ) ;
#907 = DIRECTION ( 'NONE',  ( 6.776263578034403945E-17, -0.0000000000000000000, -1.000000000000000000 ) ) ;
#908 = EDGE_CURVE ( 'NONE', #702, #1014, #40, .T. ) ;
#909 = DIRECTION ( 'NONE',  ( 0.0000000000000000000, 0.0000000000000000000, 1.000000000000000000 ) ) ;
#910 = EDGE_CURVE ( 'NONE', #828, #592, #729, .T. ) ;
#911 = LINE ( 'NONE', #232, #187 ) ;
#912 = FACE_OUTER_BOUND ( 'NONE', #574, .T. ) ;
#913 = DIRECTION ( 'NONE',  ( -1.000000000000000000, -0.0000000000000000000, -0.0000000000000000000 ) ) ;
#914 = DIRECTION ( 'NONE',  ( -1.000000000000000000, 0.0000000000000000000, 0.0000000000000000000 ) ) ;
#915 = LINE ( 'NONE', #258, #66 ) ;
#916 = CARTESIAN_POINT ( 'NONE',  ( -0.4499999999999998446, 0.04000000000000021594, -0.3999999999999998557 ) ) ;
#917 = ORIENTED_EDGE ( 'NONE', *, *, #617, .F. ) ;
#918 = VERTEX_POINT ( 'NONE', #990 ) ;
#919 = CARTESIAN_POINT ( 'NONE',  ( 0.7999999999999998224, 0.03999999999999999389, -0.3599999999999998757 ) ) ;
#920 = AXIS2_PLACEMENT_3D ( 'NONE', #1017, #609, #523 ) ;
#921 = DIRECTION ( 'NONE',  ( -1.000000000000000000, 0.0000000000000000000, 0.0000000000000000000 ) ) ;
#922 = UNCERTAINTY_MEASURE_WITH_UNIT (LENGTH_MEASURE( 1.000000000000000082E-05 ), #891, 'distance_accuracy_value', 'NONE');
#923 = DIRECTION ( 'NONE',  ( -1.000000000000000000, 0.0000000000000000000, 0.0000000000000000000 ) ) ;
#924 = LINE ( 'NONE', #118, #157 ) ;
#925 = DIRECTION ( 'NONE',  ( 0.0000000000000000000, 1.000000000000000000, 0.0000000000000000000 ) ) ;
#926 = FACE_OUTER_BOUND ( 'NONE', #471, .T. ) ;
#927 = CIRCLE ( 'NONE', #265, 0.03999999999999999389 ) ;
#928 = DIRECTION ( 'NONE',  ( 0.0000000000000000000, 0.0000000000000000000, -1.000000000000000000 ) ) ;
#929 = AXIS2_PLACEMENT_3D ( 'NONE', #557, #1088, #345 ) ;
#930 = VERTEX_POINT ( 'NONE', #509 ) ;
#931 = ORIENTED_EDGE ( 'NONE', *, *, #167, .F. ) ;
#932 = EDGE_CURVE ( 'NONE', #776, #1278, #237, .T. ) ;
#933 = EDGE_LOOP ( 'NONE', ( #961, #1227, #521, #242 ) ) ;
#934 = EDGE_LOOP ( 'NONE', ( #667, #288, #761, #1074 ) ) ;
#935 = VERTEX_POINT ( 'NONE', #113 ) ;
#936 = PRODUCT_DEFINITION_SHAPE ( 'NONE', 'NONE',  #952 ) ;
#937 = CARTESIAN_POINT ( 'NONE',  ( -0.7599999999999997868, 0.0000000000000000000, 1.029992063861229212E-16 ) ) ;
#938 = LINE ( 'NONE', #768, #495 ) ;
#939 = DIRECTION ( 'NONE',  ( 0.0000000000000000000, -1.000000000000000000, 0.0000000000000000000 ) ) ;
#940 = AXIS2_PLACEMENT_3D ( 'NONE', #254, #1149, #640 ) ;
#941 = LINE ( 'NONE', #378, #571 ) ;
#942 = CYLINDRICAL_SURFACE ( 'NONE', #238, 0.03999999999999999389 ) ;
#943 = CARTESIAN_POINT ( 'NONE',  ( 0.7599999999999997868, 0.9100000000000000311, 1.029992063861229212E-16 ) ) ;
#944 = DIRECTION ( 'NONE',  ( 1.000000000000000000, -0.0000000000000000000, 0.0000000000000000000 ) ) ;
#945 = AXIS2_PLACEMENT_3D ( 'NONE', #602, #871, #886 ) ;
#946 = VERTEX_POINT ( 'NONE', #216 ) ;
#947 = ORIENTED_EDGE ( 'NONE', *, *, #948, .T. ) ;
#948 = EDGE_CURVE ( 'NONE', #918, #935, #985, .T. ) ;
#949 = CARTESIAN_POINT ( 'NONE',  ( 500000.0000000000582, 0.03999999999999999389, -0.3866666667100346344 ) ) ;
#950 = CARTESIAN_POINT ( 'NONE',  ( 0.7599999999999997868, 0.0000000000000000000, 1.029992063861229212E-16 ) ) ;
#951 = CARTESIAN_POINT ( 'NONE',  ( -0.4499999999999998446, 0.9499999999999999556, -0.3999999999999998557 ) ) ;
#952 = PRODUCT_DEFINITION ( 'UNKNOWN', '', #793, #998 ) ;
#953 = VECTOR ( 'NONE', #22, 1000.000000000000000 ) ;
#954 = CIRCLE ( 'NONE', #481, 0.03999999999999999389 ) ;
#955 = DIRECTION ( 'NONE',  ( 0.0000000000000000000, 0.0000000000000000000, -1.000000000000000000 ) ) ;
#956 = STYLED_ITEM ( 'NONE', ( #498 ), #556 ) ;
#957 = EDGE_LOOP ( 'NONE', ( #605, #100, #1030, #624 ) ) ;
#958 = ORIENTED_EDGE ( 'NONE', *, *, #293, .T. ) ;
#959 = ORIENTED_EDGE ( 'NONE', *, *, #424, .T. ) ;
#960 = DIRECTION ( 'NONE',  ( 2.710505431213761479E-15, 0.0000000000000000000, 1.000000000000000000 ) ) ;
#961 = ORIENTED_EDGE ( 'NONE', *, *, #1271, .F. ) ;
#962 = VERTEX_POINT ( 'NONE', #411 ) ;
#963 = FILL_AREA_STYLE_COLOUR ( '', #743 ) ;
#964 = ADVANCED_FACE ( 'NONE', ( #712 ), #235, .T. ) ;
#965 = EDGE_CURVE ( 'NONE', #163, #326, #742, .T. ) ;
#966 = CARTESIAN_POINT ( 'NONE',  ( -0.4499999999999999001, 0.9100000000000000311, -0.3599999999999998757 ) ) ;
#967 = DIRECTION ( 'NONE',  ( 1.505836350674312727E-16, 0.0000000000000000000, 1.000000000000000000 ) ) ;
#968 = ADVANCED_FACE ( 'NONE', ( #1068 ), #143, .T. ) ;
#969 = ADVANCED_FACE ( 'NONE', ( #391 ), #582, .T. ) ;
#970 = CARTESIAN_POINT ( 'NONE',  ( 0.4500000000007275958, 0.01333333333333333245, 0.3599999999227504466 ) ) ;
#971 = DIRECTION ( 'NONE',  ( -1.000000000000000000, -0.0000000000000000000, 8.673617379884036705E-17 ) ) ;
#972 = EDGE_CURVE ( 'NONE', #1179, #697, #911, .T. ) ;
#973 = EDGE_CURVE ( 'NONE', #504, #533, #1218, .T. ) ;
#974 = VECTOR ( 'NONE', #330, 1000.000000000000000 ) ;
#975 = DIRECTION ( 'NONE',  ( 1.000000000000000000, 0.0000000000000000000, -8.673617379884036705E-17 ) ) ;
#976 = CARTESIAN_POINT ( 'NONE',  ( -0.7599999999999997868, 0.9100000000000000311, -0.3599999999999998757 ) ) ;
#977 = PRESENTATION_STYLE_ASSIGNMENT (( #818 ) ) ;
#978 = ORIENTED_EDGE ( 'NONE', *, *, #199, .F. ) ;
#979 = ORIENTED_EDGE ( 'NONE', *, *, #246, .F. ) ;
#980 = CARTESIAN_POINT ( 'NONE',  ( -0.7999999999999997113, 0.9499999999999999556, 0.3600000000000000977 ) ) ;
#981 = CARTESIAN_POINT ( 'NONE',  ( 0.4500000000007275958, 0.03999999999999999389, -0.3866666666666666030 ) ) ;
#982 = ADVANCED_FACE ( 'NONE', ( #60 ), #819, .F. ) ;
#983 =( NAMED_UNIT ( * ) PLANE_ANGLE_UNIT ( ) SI_UNIT ( $, .RADIAN. ) );
#984 = SURFACE_SIDE_STYLE ('',( #437 ) ) ;
#985 = LINE ( 'NONE', #30, #694 ) ;
#986 = DIRECTION ( 'NONE',  ( 0.0000000000000000000, 0.0000000000000000000, 1.000000000000000000 ) ) ;
#987 = DIRECTION ( 'NONE',  ( 0.0000000000000000000, -0.0000000000000000000, 1.000000000000000000 ) ) ;
#988 = EDGE_CURVE ( 'NONE', #558, #138, #833, .T. ) ;
#989 = FACE_OUTER_BOUND ( 'NONE', #468, .T. ) ;
#990 = CARTESIAN_POINT ( 'NONE',  ( -0.4499999999999997891, 0.9100000000000000311, 0.3866666666666667695 ) ) ;
#991 =( NAMED_UNIT ( * ) PLANE_ANGLE_UNIT ( ) SI_UNIT ( $, .RADIAN. ) );
#992 = ORIENTED_EDGE ( 'NONE', *, *, #641, .F. ) ;
#993 = ORIENTED_EDGE ( 'NONE', *, *, #965, .T. ) ;
#994 = DIRECTION ( 'NONE',  ( 2.710505431213761479E-15, -1.000000000000000000, 0.0000000000000000000 ) ) ;
#995 = VERTEX_POINT ( 'NONE', #916 ) ;
#996 = EDGE_LOOP ( 'NONE', ( #193, #1076, #992 ) ) ;
#997 = DIRECTION ( 'NONE',  ( 1.355252715606880789E-16, -0.0000000000000000000, 1.000000000000000000 ) ) ;
#998 = PRODUCT_DEFINITION_CONTEXT ( 'detailed design', #93, 'design' ) ;
#999 = DIRECTION ( 'NONE',  ( -1.505836350674312727E-16, 0.0000000000000000000, -1.000000000000000000 ) ) ;
#1000 = AXIS2_PLACEMENT_3D ( 'NONE', #858, #277, #960 ) ;
#1001 = CARTESIAN_POINT ( 'NONE',  ( 0.7999999999999998224, 0.9100000000000000311, -0.3599999999999998757 ) ) ;
#1002 = EDGE_CURVE ( 'NONE', #1239, #1256, #220, .T. ) ;
#1003 =( LENGTH_UNIT ( ) NAMED_UNIT ( * ) SI_UNIT ( .MILLI., .METRE. ) );
#1004 = DIRECTION ( 'NONE',  ( 0.0000000000000000000, 0.0000000000000000000, 1.000000000000000000 ) ) ;
#1005 = DIRECTION ( 'NONE',  ( 0.0000000000000000000, 0.0000000000000000000, -1.000000000000000000 ) ) ;
#1006 = CIRCLE ( 'NONE', #823, 0.02666666666666664756 ) ;
#1007 = DIRECTION ( 'NONE',  ( -1.000000000000000000, 0.0000000000000000000, 0.0000000000000000000 ) ) ;
#1008 = CIRCLE ( 'NONE', #1155, 0.03999999999999999389 ) ;
#1009 = CARTESIAN_POINT ( 'NONE',  ( 0.0000000000000000000, 0.0000000000000000000, 0.0000000000000000000 ) ) ;
#1010 = VECTOR ( 'NONE', #914, 1000.000000000000000 ) ;
#1011 = CIRCLE ( 'NONE', #1, 0.03999999999999999389 ) ;
#1012 = DIRECTION ( 'NONE',  ( -1.000000000000000000, 0.0000000000000000000, 0.0000000000000000000 ) ) ;
#1013 = AXIS2_PLACEMENT_3D ( 'NONE', #1207, #691, #599 ) ;
#1014 = VERTEX_POINT ( 'NONE', #332 ) ;
#1015 = VERTEX_POINT ( 'NONE', #831 ) ;
#1016 = DIRECTION ( 'NONE',  ( 0.0000000000000000000, 0.0000000000000000000, 1.000000000000000000 ) ) ;
#1017 = CARTESIAN_POINT ( 'NONE',  ( -0.4499999999999999001, 0.9100000000000000311, -0.3599999999999998757 ) ) ;
#1018 = CARTESIAN_POINT ( 'NONE',  ( 0.0000000000000000000, 0.9100000000000000311, 0.3600000000000000977 ) ) ;
#1019 = MECHANICAL_DESIGN_GEOMETRIC_PRESENTATION_REPRESENTATION (  '', ( #486 ), #654 ) ;
#1020 = DIRECTION ( 'NONE',  ( 1.000000000000000000, 0.0000000000000000000, 6.776263578034403945E-17 ) ) ;
#1021 = EDGE_CURVE ( 'NONE', #702, #1278, #601, .T. ) ;
#1022 = DIRECTION ( 'NONE',  ( 0.0000000000000000000, 0.0000000000000000000, -1.000000000000000000 ) ) ;
#1023 = DIRECTION ( 'NONE',  ( 0.0000000000000000000, 0.0000000000000000000, 1.000000000000000000 ) ) ;
#1024 = LINE ( 'NONE', #949, #131 ) ;
#1025 = DIRECTION ( 'NONE',  ( 0.0000000000000000000, 0.0000000000000000000, 1.000000000000000000 ) ) ;
#1026 = VECTOR ( 'NONE', #907, 1000.000000000000000 ) ;
#1027 = CARTESIAN_POINT ( 'NONE',  ( -0.7999999999999998224, 0.9499999999999999556, -0.3599999999999998757 ) ) ;
#1028 = SPHERICAL_SURFACE ( 'NONE', #1160, 0.04000000000000000083 ) ;
#1029 = ORIENTED_EDGE ( 'NONE', *, *, #965, .F. ) ;
#1030 = ORIENTED_EDGE ( 'NONE', *, *, #141, .F. ) ;
#1031 = CARTESIAN_POINT ( 'NONE',  ( -0.7599999999999997868, 0.04000000000000000083, -0.3599999999999998757 ) ) ;
#1032 = ORIENTED_EDGE ( 'NONE', *, *, #575, .T. ) ;
#1033 = VERTEX_POINT ( 'NONE', #39 ) ;
#1034 = AXIS2_PLACEMENT_3D ( 'NONE', #1123, #34, #723 ) ;
#1035 = EDGE_CURVE ( 'NONE', #1033, #1094, #94, .T. ) ;
#1036 = DIRECTION ( 'NONE',  ( 0.0000000000000000000, 0.0000000000000000000, -1.000000000000000000 ) ) ;
#1037 = LINE ( 'NONE', #970, #316 ) ;
#1038 = VECTOR ( 'NONE', #1082, 1000.000000000000000 ) ;
#1039 = CARTESIAN_POINT ( 'NONE',  ( 0.7599999999999996758, 0.9100000000000000311, 0.3600000000000000977 ) ) ;
#1040 = LINE ( 'NONE', #659, #255 ) ;
#1041 = LINE ( 'NONE', #1269, #484 ) ;
#1042 = ORIENTED_EDGE ( 'NONE', *, *, #841, .F. ) ;
#1043 = EDGE_CURVE ( 'NONE', #400, #213, #1024, .T. ) ;
#1044 = EDGE_CURVE ( 'NONE', #67, #230, #1188, .T. ) ;
#1045 = ORIENTED_EDGE ( 'NONE', *, *, #566, .F. ) ;
#1046 = ORIENTED_EDGE ( 'NONE', *, *, #737, .F. ) ;
#1047 = CARTESIAN_POINT ( 'NONE',  ( 0.7599999999999996758, 0.9100000000000000311, 0.3600000000000000977 ) ) ;
#1048 = DIRECTION ( 'NONE',  ( 1.000000000000000000, 0.0000000000000000000, 6.776263578034403945E-17 ) ) ;
#1049 = DIRECTION ( 'NONE',  ( -1.000000000000000000, 0.0000000000000000000, 0.0000000000000000000 ) ) ;
#1050 = CARTESIAN_POINT ( 'NONE',  ( 0.4500000000007275958, 0.9100000000000000311, 0.3599999999999999867 ) ) ;
#1051 = CIRCLE ( 'NONE', #598, 0.03999999999999999389 ) ;
#1052 = FACE_OUTER_BOUND ( 'NONE', #722, .T. ) ;
#1053 = DIRECTION ( 'NONE',  ( 1.000000000000000000, 0.0000000000000000000, 6.776263578034403945E-17 ) ) ;
#1054 = AXIS2_PLACEMENT_3D ( 'NONE', #89, #779, #777 ) ;
#1055 = FACE_OUTER_BOUND ( 'NONE', #853, .T. ) ;
#1056 = CIRCLE ( 'NONE', #356, 0.03999999999999999389 ) ;
#1057 = DIRECTION ( 'NONE',  ( -1.000000000000000000, 0.0000000000000000000, 0.0000000000000000000 ) ) ;
#1058 = DIRECTION ( 'NONE',  ( 1.355252715606880789E-16, 0.0000000000000000000, -1.000000000000000000 ) ) ;
#1059 = ORIENTED_EDGE ( 'NONE', *, *, #65, .T. ) ;
#1060 = VERTEX_POINT ( 'NONE', #249 ) ;
#1061 = ORIENTED_EDGE ( 'NONE', *, *, #1067, .F. ) ;
#1062 = ORIENTED_EDGE ( 'NONE', *, *, #1187, .T. ) ;
#1063 = EDGE_CURVE ( 'NONE', #558, #828, #76, .T. ) ;
#1064 = DIRECTION ( 'NONE',  ( 1.355252715606880789E-16, -0.0000000000000000000, -1.000000000000000000 ) ) ;
#1065 = ADVANCED_FACE ( 'NONE', ( #1106 ), #782, .T. ) ;
#1066 =( GEOMETRIC_REPRESENTATION_CONTEXT ( 3 ) GLOBAL_UNCERTAINTY_ASSIGNED_CONTEXT ( ( #922 ) ) GLOBAL_UNIT_ASSIGNED_CONTEXT ( ( #891, #983, #579 ) ) REPRESENTATION_CONTEXT ( 'NONE', 'WORKASPACE' ) );
#1067 = EDGE_CURVE ( 'NONE', #44, #905, #1085, .T. ) ;
#1068 = FACE_OUTER_BOUND ( 'NONE', #271, .T. ) ;
#1069 = LINE ( 'NONE', #217, #800 ) ;
#1070 = DIRECTION ( 'NONE',  ( -1.000000000000000000, 0.0000000000000000000, -2.710505431213761479E-15 ) ) ;
#1071 = LINE ( 'NONE', #937, #554 ) ;
#1072 = ADVANCED_FACE ( 'NONE', ( #552 ), #644, .T. ) ;
#1073 = CARTESIAN_POINT ( 'NONE',  ( 0.7599999999999997868, 0.0000000000000000000, -0.3599999999999998757 ) ) ;
#1074 = ORIENTED_EDGE ( 'NONE', *, *, #1264, .T. ) ;
#1075 = DIRECTION ( 'NONE',  ( -1.000000000000000000, -0.0000000000000000000, 8.673617379884036705E-17 ) ) ;
#1076 = ORIENTED_EDGE ( 'NONE', *, *, #402, .T. ) ;
#1077 = ORIENTED_EDGE ( 'NONE', *, *, #65, .F. ) ;
#1078 = CARTESIAN_POINT ( 'NONE',  ( 0.4499999999999997891, 0.0000000000000000000, 0.3599999999999998757 ) ) ;
#1079 = ADVANCED_FACE ( 'NONE', ( #817 ), #266, .T. ) ;
#1080 = DIRECTION ( 'NONE',  ( 0.0000000000000000000, 0.0000000000000000000, 1.000000000000000000 ) ) ;
#1081 = STYLED_ITEM ( 'NONE', ( #658 ), #749 ) ;
#1082 = DIRECTION ( 'NONE',  ( 6.776263578034403945E-17, -0.0000000000000000000, -1.000000000000000000 ) ) ;
#1083 = SURFACE_SIDE_STYLE ('',( #201 ) ) ;
#1084 = AXIS2_PLACEMENT_3D ( 'NONE', #724, #128, #516 ) ;
#1085 = CIRCLE ( 'NONE', #448, 0.03999999999999999389 ) ;
#1086 = DIRECTION ( 'NONE',  ( -1.000000000000000000, -0.0000000000000000000, 8.673617379884036705E-17 ) ) ;
#1087 = EDGE_CURVE ( 'NONE', #14, #930, #478, .T. ) ;
#1088 = DIRECTION ( 'NONE',  ( 0.0000000000000000000, 1.000000000000000000, 0.0000000000000000000 ) ) ;
#1089 = CIRCLE ( 'NONE', #422, 0.03999999999999999389 ) ;
#1090 = DIRECTION ( 'NONE',  ( 0.0000000000000000000, 0.0000000000000000000, 1.000000000000000000 ) ) ;
#1091 = FACE_OUTER_BOUND ( 'NONE', #996, .T. ) ;
#1092 = CARTESIAN_POINT ( 'NONE',  ( -0.7599999999999997868, 0.9499999999999999556, 0.4000000000000000777 ) ) ;
#1093 = ORIENTED_EDGE ( 'NONE', *, *, #167, .T. ) ;
#1094 = VERTEX_POINT ( 'NONE', #739 ) ;
#1095 = ORIENTED_EDGE ( 'NONE', *, *, #842, .F. ) ;
#1096 = ORIENTED_EDGE ( 'NONE', *, *, #229, .T. ) ;
#1097 = ADVANCED_FACE ( 'NONE', ( #614 ), #460, .T. ) ;
#1098 = DIRECTION ( 'NONE',  ( 1.000000000000000000, 0.0000000000000000000, 0.0000000000000000000 ) ) ;
#1099 = DIRECTION ( 'NONE',  ( -1.000000000000000000, -2.710505431213761479E-15, 0.0000000000000000000 ) ) ;
#1100 = DIRECTION ( 'NONE',  ( 0.0000000000000000000, 0.0000000000000000000, -1.000000000000000000 ) ) ;
#1101 = DIRECTION ( 'NONE',  ( 1.000000000000000000, -0.0000000000000000000, -6.776263578034403945E-17 ) ) ;
#1102 = FILL_AREA_STYLE_COLOUR ( '', #740 ) ;
#1103 = AXIS2_PLACEMENT_3D ( 'NONE', #733, #838, #822 ) ;
#1104 = DIRECTION ( 'NONE',  ( 0.0000000000000000000, -0.0000000000000000000, -1.000000000000000000 ) ) ;
#1105 = DIRECTION ( 'NONE',  ( 1.000000000000000000, 0.0000000000000000000, -0.0000000000000000000 ) ) ;
#1106 = FACE_OUTER_BOUND ( 'NONE', #487, .T. ) ;
#1107 = CARTESIAN_POINT ( 'NONE',  ( -0.4499999999999997891, 0.04000000000000021594, 0.4000000000000000777 ) ) ;
#1108 = DIRECTION ( 'NONE',  ( -1.000000000000000000, -0.0000000000000000000, -0.0000000000000000000 ) ) ;
#1109 = CIRCLE ( 'NONE', #1259, 0.03999999999999999389 ) ;
#1110 = EDGE_CURVE ( 'NONE', #702, #905, #156, .T. ) ;
#1111 = DIRECTION ( 'NONE',  ( 1.000000000000000000, -0.0000000000000000000, -0.0000000000000000000 ) ) ;
#1112 = VECTOR ( 'NONE', #63, 1000.000000000000000 ) ;
#1113 = DIRECTION ( 'NONE',  ( 1.000000000000000000, -0.0000000000000000000, -6.776263578034403945E-17 ) ) ;
#1114 = VERTEX_POINT ( 'NONE', #374 ) ;
#1115 = ORIENTED_EDGE ( 'NONE', *, *, #1138, .F. ) ;
#1116 = ORIENTED_EDGE ( 'NONE', *, *, #375, .F. ) ;
#1117 = DIRECTION ( 'NONE',  ( 8.673617379884036705E-17, -0.0000000000000000000, 1.000000000000000000 ) ) ;
#1118 = DIRECTION ( 'NONE',  ( -0.0000000000000000000, -0.0000000000000000000, 1.000000000000000000 ) ) ;
#1119 = MECHANICAL_DESIGN_GEOMETRIC_PRESENTATION_REPRESENTATION (  '', ( #1258 ), #1066 ) ;
#1120 = EDGE_CURVE ( 'NONE', #138, #1256, #569, .T. ) ;
#1121 = CARTESIAN_POINT ( 'NONE',  ( 0.7599999999999997868, 0.03999999999999999389, -0.3999999999999998557 ) ) ;
#1122 = EDGE_CURVE ( 'NONE', #546, #325, #1037, .T. ) ;
#1123 = CARTESIAN_POINT ( 'NONE',  ( -0.7999999999999998224, 0.9499999999999999556, -0.3999999999999998557 ) ) ;
#1124 = CARTESIAN_POINT ( 'NONE',  ( -0.7599999999999996758, 0.9100000000000000311, 0.3600000000000000977 ) ) ;
#1125 = FACE_OUTER_BOUND ( 'NONE', #854, .T. ) ;
#1126 = LINE ( 'NONE', #1216, #753 ) ;
#1127 = AXIS2_PLACEMENT_3D ( 'NONE', #943, #62, #263 ) ;
#1128 = CARTESIAN_POINT ( 'NONE',  ( -0.7599999999999997868, 0.03999999999999999389, -0.3599999999999998757 ) ) ;
#1129 = UNCERTAINTY_MEASURE_WITH_UNIT (LENGTH_MEASURE( 1.000000000000000082E-05 ), #1189, 'distance_accuracy_value', 'NONE');
#1130 = CARTESIAN_POINT ( 'NONE',  ( -0.4499999999999997891, 0.9499999999999999556, 0.3599999999999998757 ) ) ;
#1131 = AXIS2_PLACEMENT_3D ( 'NONE', #951, #562, #647 ) ;
#1132 = ORIENTED_EDGE ( 'NONE', *, *, #515, .F. ) ;
#1133 = EDGE_LOOP ( 'NONE', ( #469, #273, #1077 ) ) ;
#1134 = EDGE_LOOP ( 'NONE', ( #1115, #413, #1032, #627 ) ) ;
#1135 = EDGE_LOOP ( 'NONE', ( #1096, #442, #240, #415 ) ) ;
#1136 = CARTESIAN_POINT ( 'NONE',  ( 0.4500000000007275958, 0.04000000000000043104, 0.3866666666666666030 ) ) ;
#1137 = CARTESIAN_POINT ( 'NONE',  ( 0.0000000000000000000, 0.9499999999999999556, 0.0000000000000000000 ) ) ;
#1138 = EDGE_CURVE ( 'NONE', #457, #44, #1156, .T. ) ;
#1139 = CARTESIAN_POINT ( 'NONE',  ( -0.4499999999999998446, 0.03999999999999999389, -0.3599999999999998757 ) ) ;
#1140 = DIRECTION ( 'NONE',  ( -1.355252715606880789E-16, 0.0000000000000000000, -1.000000000000000000 ) ) ;
#1141 = VECTOR ( 'NONE', #1184, 1000.000000000000000 ) ;
#1142 = DIRECTION ( 'NONE',  ( 0.0000000000000000000, 0.0000000000000000000, -1.000000000000000000 ) ) ;
#1143 = AXIS2_PLACEMENT_3D ( 'NONE', #1243, #453, #1036 ) ;
#1144 = DIRECTION ( 'NONE',  ( -1.000000000000000000, 0.0000000000000000000, 0.0000000000000000000 ) ) ;
#1145 = EDGE_CURVE ( 'NONE', #1239, #589, #938, .T. ) ;
#1146 = FACE_OUTER_BOUND ( 'NONE', #559, .T. ) ;
#1147 = ORIENTED_EDGE ( 'NONE', *, *, #631, .F. ) ;
#1148 = ORIENTED_EDGE ( 'NONE', *, *, #321, .T. ) ;
#1149 = DIRECTION ( 'NONE',  ( 1.000000000000000000, 0.0000000000000000000, 6.776263578034403945E-17 ) ) ;
#1150 = VERTEX_POINT ( 'NONE', #852 ) ;
#1151 = ORIENTED_EDGE ( 'NONE', *, *, #314, .F. ) ;
#1152 = DIRECTION ( 'NONE',  ( 0.0000000000000000000, 0.0000000000000000000, -1.000000000000000000 ) ) ;
#1153 = DIRECTION ( 'NONE',  ( -1.000000000000000000, 0.0000000000000000000, 0.0000000000000000000 ) ) ;
#1154 = VECTOR ( 'NONE', #299, 1000.000000000000000 ) ;
#1155 = AXIS2_PLACEMENT_3D ( 'NONE', #524, #1231, #35 ) ;
#1156 = LINE ( 'NONE', #950, #18 ) ;
#1157 = CYLINDRICAL_SURFACE ( 'NONE', #830, 0.03999999999999999389 ) ;
#1158 = CYLINDRICAL_SURFACE ( 'NONE', #611, 0.03999999999999999389 ) ;
#1159 = CARTESIAN_POINT ( 'NONE',  ( 0.4500000000007275958, 0.03999999999999999389, 0.3599999999999999867 ) ) ;
#1160 = AXIS2_PLACEMENT_3D ( 'NONE', #1205, #111, #889 ) ;
#1161 = ORIENTED_EDGE ( 'NONE', *, *, #1246, .F. ) ;
#1162 = EDGE_CURVE ( 'NONE', #137, #67, #358, .T. ) ;
#1163 = ORIENTED_EDGE ( 'NONE', *, *, #550, .T. ) ;
#1164 = ORIENTED_EDGE ( 'NONE', *, *, #763, .F. ) ;
#1165 = DIRECTION ( 'NONE',  ( -1.000000000000000000, -0.0000000000000000000, 8.673617379884036705E-17 ) ) ;
#1166 = ORIENTED_EDGE ( 'NONE', *, *, #704, .T. ) ;
#1167 = UNCERTAINTY_MEASURE_WITH_UNIT (LENGTH_MEASURE( 1.000000000000000082E-05 ), #202, 'distance_accuracy_value', 'NONE');
#1168 = CARTESIAN_POINT ( 'NONE',  ( 0.0000000000000000000, 0.9499999999999999556, 0.0000000000000000000 ) ) ;
#1169 = LINE ( 'NONE', #305, #1154 ) ;
#1170 = DIRECTION ( 'NONE',  ( 1.355252715606880789E-16, -0.0000000000000000000, 1.000000000000000000 ) ) ;
#1171 = FACE_OUTER_BOUND ( 'NONE', #1134, .T. ) ;
#1172 = CARTESIAN_POINT ( 'NONE',  ( 0.4500000000007275958, 0.03999999999999999389, -0.3866666666666666030 ) ) ;
#1173 = AXIS2_PLACEMENT_3D ( 'NONE', #241, #923, #343 ) ;
#1174 = FACE_OUTER_BOUND ( 'NONE', #902, .T. ) ;
#1175 = CARTESIAN_POINT ( 'NONE',  ( 0.7999999999999997113, 0.9100000000000000311, 0.4000000000000000777 ) ) ;
#1176 = DIRECTION ( 'NONE',  ( -1.000000000000000000, -0.0000000000000000000, 8.673617379884036705E-17 ) ) ;
#1177 = ORIENTED_EDGE ( 'NONE', *, *, #402, .F. ) ;
#1178 = VERTEX_POINT ( 'NONE', #564 ) ;
#1179 = VERTEX_POINT ( 'NONE', #473 ) ;
#1180 = EDGE_LOOP ( 'NONE', ( #685, #412, #102, #638 ) ) ;
#1181 = ADVANCED_FACE ( 'NONE', ( #512 ), #38, .T. ) ;
#1182 = EDGE_CURVE ( 'NONE', #416, #1226, #48, .T. ) ;
#1183 = ADVANCED_FACE ( 'NONE', ( #1125 ), #78, .T. ) ;
#1184 = DIRECTION ( 'NONE',  ( 1.000000000000000000, -0.0000000000000000000, -0.0000000000000000000 ) ) ;
#1185 = SURFACE_STYLE_USAGE ( .BOTH. , #1083 ) ;
#1186 = FILL_AREA_STYLE ('',( #963 ) ) ;
#1187 = EDGE_CURVE ( 'NONE', #546, #214, #279, .T. ) ;
#1188 = CIRCLE ( 'NONE', #37, 0.03999999999999999389 ) ;
#1189 =( LENGTH_UNIT ( ) NAMED_UNIT ( * ) SI_UNIT ( .MILLI., .METRE. ) );
#1190 = COLOUR_RGB ( '',0.7921568627450980005, 0.8196078431372548767, 0.9333333333333333481 ) ;
#1191 = CARTESIAN_POINT ( 'NONE',  ( 0.4499999999999998446, 0.0000000000000000000, -0.3599999999999998757 ) ) ;
#1192 = VECTOR ( 'NONE', #944, 1000.000000000000000 ) ;
#1193 = CARTESIAN_POINT ( 'NONE',  ( 0.7999999999999997113, 0.03999999999999999389, 0.4000000000000000777 ) ) ;
#1194 = LINE ( 'NONE', #1092, #465 ) ;
#1195 = ORIENTED_EDGE ( 'NONE', *, *, #31, .F. ) ;
#1196 = EDGE_LOOP ( 'NONE', ( #1263, #824, #1255, #747 ) ) ;
#1197 = DIRECTION ( 'NONE',  ( 0.0000000000000000000, 1.000000000000000000, -0.0000000000000000000 ) ) ;
#1198 = CARTESIAN_POINT ( 'NONE',  ( 0.7599999999999997868, 0.9100000000000000311, -0.3999999999999998557 ) ) ;
#1199 = AXIS2_PLACEMENT_3D ( 'NONE', #976, #87, #565 ) ;
#1200 = ADVANCED_FACE ( 'NONE', ( #1273 ), #175, .F. ) ;
#1201 = CARTESIAN_POINT ( 'NONE',  ( 0.4500000000007275958, 0.9100000000000000311, -0.3599999999999999867 ) ) ;
#1202 = FILL_AREA_STYLE ('',( #1102 ) ) ;
#1203 = LINE ( 'NONE', #798, #1220 ) ;
#1204 = EDGE_CURVE ( 'NONE', #590, #385, #539, .T. ) ;
#1205 = CARTESIAN_POINT ( 'NONE',  ( 0.7599999999999997868, 0.9100000000000000311, -0.3599999999999998757 ) ) ;
#1206 = FACE_OUTER_BOUND ( 'NONE', #245, .T. ) ;
#1207 = CARTESIAN_POINT ( 'NONE',  ( 0.7599999999999997868, 0.03999999999999999389, -0.3599999999999998757 ) ) ;
#1208 = CIRCLE ( 'NONE', #462, 0.03999999999999999389 ) ;
#1209 = ORIENTED_EDGE ( 'NONE', *, *, #1230, .T. ) ;
#1210 = ORIENTED_EDGE ( 'NONE', *, *, #908, .T. ) ;
#1211 = ORIENTED_EDGE ( 'NONE', *, *, #303, .T. ) ;
#1212 = VERTEX_POINT ( 'NONE', #73 ) ;
#1213 = ORIENTED_EDGE ( 'NONE', *, *, #1067, .T. ) ;
#1214 = FILL_AREA_STYLE ('',( #308 ) ) ;
#1215 = EDGE_CURVE ( 'NONE', #962, #791, #525, .T. ) ;
#1216 = CARTESIAN_POINT ( 'NONE',  ( -0.4499999999999999001, 0.03999999999999999389, -0.3866666666666664920 ) ) ;
#1217 = FILL_AREA_STYLE ('',( #36 ) ) ;
#1218 = CIRCLE ( 'NONE', #98, 0.03999999999999999389 ) ;
#1219 = CARTESIAN_POINT ( 'NONE',  ( -0.7999999999999998224, 0.03999999999999999389, -0.3599999999999998757 ) ) ;
#1220 = VECTOR ( 'NONE', #999, 1000.000000000000000 ) ;
#1221 = DIRECTION ( 'NONE',  ( -1.000000000000000000, 0.0000000000000000000, 0.0000000000000000000 ) ) ;
#1222 = LINE ( 'NONE', #295, #836 ) ;
#1223 = DIRECTION ( 'NONE',  ( -1.000000000000000000, 0.0000000000000000000, 0.0000000000000000000 ) ) ;
#1224 = CIRCLE ( 'NONE', #940, 0.02666666666666664756 ) ;
#1225 = AXIS2_PLACEMENT_3D ( 'NONE', #1124, #32, #514 ) ;
#1226 = VERTEX_POINT ( 'NONE', #657 ) ;
#1227 = ORIENTED_EDGE ( 'NONE', *, *, #1087, .T. ) ;
#1228 =( NAMED_UNIT ( * ) PLANE_ANGLE_UNIT ( ) SI_UNIT ( $, .RADIAN. ) );
#1229 = AXIS2_PLACEMENT_3D ( 'NONE', #1280, #596, #682 ) ;
#1230 = EDGE_CURVE ( 'NONE', #1014, #1278, #767, .T. ) ;
#1231 = DIRECTION ( 'NONE',  ( 1.000000000000000000, 0.0000000000000000000, 6.776263578034403945E-17 ) ) ;
#1232 = CARTESIAN_POINT ( 'NONE',  ( 0.7599999999999996758, 0.9499999999999999556, 0.3600000000000000977 ) ) ;
#1233 = VECTOR ( 'NONE', #518, 1000.000000000000000 ) ;
#1234 = CIRCLE ( 'NONE', #870, 0.03999999999999999389 ) ;
#1235 = LINE ( 'NONE', #610, #787 ) ;
#1236 = DIRECTION ( 'NONE',  ( 0.0000000000000000000, -1.000000000000000000, 0.0000000000000000000 ) ) ;
#1237 = AXIS2_PLACEMENT_3D ( 'NONE', #896, #799, #405 ) ;
#1238 = EDGE_LOOP ( 'NONE', ( #534, #1095, #399, #488 ) ) ;
#1239 = VERTEX_POINT ( 'NONE', #170 ) ;
#1240 = CARTESIAN_POINT ( 'NONE',  ( 0.4499999999999998446, 0.03999999999999999389, -0.3599999999999998757 ) ) ;
#1241 = ORIENTED_EDGE ( 'NONE', *, *, #236, .F. ) ;
#1242 = ORIENTED_EDGE ( 'NONE', *, *, #1063, .T. ) ;
#1243 = CARTESIAN_POINT ( 'NONE',  ( -0.7599999999999997868, 0.03999999999999999389, -0.3599999999999998757 ) ) ;
#1244 = DIRECTION ( 'NONE',  ( 0.0000000000000000000, 0.0000000000000000000, -1.000000000000000000 ) ) ;
#1245 = DIRECTION ( 'NONE',  ( -0.0000000000000000000, 0.0000000000000000000, -1.000000000000000000 ) ) ;
#1246 = EDGE_CURVE ( 'NONE', #457, #1033, #1051, .T. ) ;
#1247 = CARTESIAN_POINT ( 'NONE',  ( -0.7599999999999997868, 0.9100000000000000311, -0.3599999999999998757 ) ) ;
#1248 = AXIS2_PLACEMENT_3D ( 'NONE', #794, #708, #987 ) ;
#1249 = VECTOR ( 'NONE', #655, 1000.000000000000000 ) ;
#1250 = DIRECTION ( 'NONE',  ( -2.710505431213761479E-15, -1.000000000000000000, 0.0000000000000000000 ) ) ;
#1251 = EDGE_CURVE ( 'NONE', #900, #213, #1006, .T. ) ;
#1252 = LINE ( 'NONE', #429, #1010 ) ;
#1253 = EDGE_LOOP ( 'NONE', ( #384, #324, #1046, #804 ) ) ;
#1254 = DIRECTION ( 'NONE',  ( 0.0000000000000000000, -1.000000000000000000, -0.0000000000000000000 ) ) ;
#1255 = ORIENTED_EDGE ( 'NONE', *, *, #660, .T. ) ;
#1256 = VERTEX_POINT ( 'NONE', #755 ) ;
#1257 = CARTESIAN_POINT ( 'NONE',  ( -0.7599999999999996758, 0.03999999999999999389, 0.3600000000000000977 ) ) ;
#1258 = STYLED_ITEM ( 'NONE', ( #144 ), #294 ) ;
#1259 = AXIS2_PLACEMENT_3D ( 'NONE', #701, #218, #114 ) ;
#1260 = CIRCLE ( 'NONE', #169, 0.03999999999999999389 ) ;
#1261 = DIRECTION ( 'NONE',  ( -1.000000000000000000, -0.0000000000000000000, 8.673617379884036705E-17 ) ) ;
#1262 = CARTESIAN_POINT ( 'NONE',  ( -0.4499999999999998446, 0.9499999999999999556, -0.3599999999999998757 ) ) ;
#1263 = ORIENTED_EDGE ( 'NONE', *, *, #763, .T. ) ;
#1264 = EDGE_CURVE ( 'NONE', #592, #163, #297, .T. ) ;
#1265 = ORIENTED_EDGE ( 'NONE', *, *, #82, .F. ) ;
#1266 = ORIENTED_EDGE ( 'NONE', *, *, #1043, .F. ) ;
#1267 = ORIENTED_EDGE ( 'NONE', *, *, #321, .F. ) ;
#1268 = ORIENTED_EDGE ( 'NONE', *, *, #110, .F. ) ;
#1269 = CARTESIAN_POINT ( 'NONE',  ( -0.7999999999999998224, 0.9100000000000000311, -0.3999999999999998557 ) ) ;
#1270 = CARTESIAN_POINT ( 'NONE',  ( -0.7999999999999998224, 0.9499999999999999556, -0.3599999999999998757 ) ) ;
#1271 = EDGE_CURVE ( 'NONE', #14, #590, #1169, .T. ) ;
#1272 = ADVANCED_FACE ( 'NONE', ( #765 ), #251, .T. ) ;
#1273 = FACE_OUTER_BOUND ( 'NONE', #83, .T. ) ;
#1274 = DIRECTION ( 'NONE',  ( 0.0000000000000000000, 0.0000000000000000000, 1.000000000000000000 ) ) ;
#1275 = SPHERICAL_SURFACE ( 'NONE', #1103, 0.04000000000000000083 ) ;
#1276 = FACE_OUTER_BOUND ( 'NONE', #366, .T. ) ;
#1277 = ORIENTED_EDGE ( 'NONE', *, *, #90, .F. ) ;
#1278 = VERTEX_POINT ( 'NONE', #1198 ) ;
#1279 = AXIS2_PLACEMENT_3D ( 'NONE', #1009, #520, #909 ) ;
#1280 = CARTESIAN_POINT ( 'NONE',  ( 0.4499999999999997891, 0.9100000000000000311, 0.3600000000000000977 ) ) ;
ENDSEC;
END-ISO-10303-21;
