M48
; DRILL file {KiCad 9.0.6} date 2025-11-10T07:16:27-0800
; FORMAT={-:-/ absolute / inch / decimal}
; #@! TF.CreationDate,2025-11-10T07:16:27-08:00
; #@! TF.GenerationSoftware,Kicad,Pcbnew,9.0.6
; #@! TF.FileFunction,Plated,1,2,PTH
FMAT,2
INCH
; #@! TA.AperFunction,Plated,PTH,ViaDrill
T1C0.0118
; #@! TA.AperFunction,Plated,PTH,ComponentDrill
T2C0.0118
; #@! TA.AperFunction,Plated,PTH,ComponentDrill
T3C0.0394
%
G90
G05
T1
X5.34Y-2.327
X5.344Y-2.11
X5.35Y-2.274
X5.477Y-2.384
X5.504Y-2.1816
X5.556Y-2.324
X5.556Y-2.375
X5.589Y-2.378
X5.6535Y-2.8189
X5.707Y-2.608
X5.709Y-2.1859
X5.728Y-2.075
X5.844Y-2.507
X5.9744Y-2.1654
X5.99Y-2.26
X5.992Y-2.435
X5.9961Y-2.8268
X6.059Y-2.574
X6.074Y-2.238
X6.08Y-1.98
X6.08Y-3.055
X6.086Y-2.075
X6.144Y-3.007
X6.1693Y-2.937
X6.2283Y-2.1102
X6.2303Y-3.0315
X6.3287Y-2.8248
X6.5029Y-2.7677
X6.5521Y-2.7992
X6.6063Y-2.8268
X6.77Y-3.031
X6.793Y-2.944
X6.916Y-2.009
X6.939Y-2.8346
X6.9409Y-2.9429
X6.9417Y-2.322
X7.02Y-2.805
T2
X6.3782Y-2.2857
X6.3782Y-2.3408
X6.4058Y-2.2581
X6.4058Y-2.3133
X6.4058Y-2.3684
X6.4334Y-2.2857
X6.4334Y-2.3408
X6.4609Y-2.2581
X6.4609Y-2.3133
X6.4609Y-2.3684
X6.4885Y-2.2857
X6.4885Y-2.3408
T3
X5.24Y-2.738
X5.668Y-2.9556
X5.768Y-2.9556
X5.868Y-2.9556
X5.968Y-2.9556
X7.1315Y-2.5591
X7.1315Y-2.6591
X7.1315Y-2.7591
M30
