%TF.GenerationSoftware,KiCad,Pcbnew,9.0.6*%
%TF.CreationDate,2025-11-10T07:16:26-08:00*%
%TF.ProjectId,kicad,6b696361-642e-46b6-9963-61645f706362,rev?*%
%TF.SameCoordinates,Original*%
%TF.FileFunction,Copper,L1,Top*%
%TF.FilePolarity,Positive*%
%FSLAX46Y46*%
G04 Gerber Fmt 4.6, Leading zero omitted, Abs format (unit mm)*
G04 Created by KiCad (PCBNEW 9.0.6) date 2025-11-10 07:16:26*
%MOMM*%
%LPD*%
G01*
G04 APERTURE LIST*
G04 Aperture macros list*
%AMRoundRect*
0 Rectangle with rounded corners*
0 $1 Rounding radius*
0 $2 $3 $4 $5 $6 $7 $8 $9 X,Y pos of 4 corners*
0 Add a 4 corners polygon primitive as box body*
4,1,4,$2,$3,$4,$5,$6,$7,$8,$9,$2,$3,0*
0 Add four circle primitives for the rounded corners*
1,1,$1+$1,$2,$3*
1,1,$1+$1,$4,$5*
1,1,$1+$1,$6,$7*
1,1,$1+$1,$8,$9*
0 Add four rect primitives between the rounded corners*
20,1,$1+$1,$2,$3,$4,$5,0*
20,1,$1+$1,$4,$5,$6,$7,0*
20,1,$1+$1,$6,$7,$8,$9,0*
20,1,$1+$1,$8,$9,$2,$3,0*%
%AMFreePoly0*
4,1,23,0.500000,-0.750000,0.000000,-0.750000,0.000000,-0.745722,-0.065263,-0.745722,-0.191342,-0.711940,-0.304381,-0.646677,-0.396677,-0.554381,-0.461940,-0.441342,-0.495722,-0.315263,-0.495722,-0.250000,-0.500000,-0.250000,-0.500000,0.250000,-0.495722,0.250000,-0.495722,0.315263,-0.461940,0.441342,-0.396677,0.554381,-0.304381,0.646677,-0.191342,0.711940,-0.065263,0.745722,0.000000,0.745722,
0.000000,0.750000,0.500000,0.750000,0.500000,-0.750000,0.500000,-0.750000,$1*%
%AMFreePoly1*
4,1,23,0.000000,0.745722,0.065263,0.745722,0.191342,0.711940,0.304381,0.646677,0.396677,0.554381,0.461940,0.441342,0.495722,0.315263,0.495722,0.250000,0.500000,0.250000,0.500000,-0.250000,0.495722,-0.250000,0.495722,-0.315263,0.461940,-0.441342,0.396677,-0.554381,0.304381,-0.646677,0.191342,-0.711940,0.065263,-0.745722,0.000000,-0.745722,0.000000,-0.750000,-0.500000,-0.750000,
-0.500000,0.750000,0.000000,0.750000,0.000000,0.745722,0.000000,0.745722,$1*%
G04 Aperture macros list end*
%TA.AperFunction,SMDPad,CuDef*%
%ADD10RoundRect,0.200000X-0.275000X0.200000X-0.275000X-0.200000X0.275000X-0.200000X0.275000X0.200000X0*%
%TD*%
%TA.AperFunction,SMDPad,CuDef*%
%ADD11RoundRect,0.200000X0.275000X-0.200000X0.275000X0.200000X-0.275000X0.200000X-0.275000X-0.200000X0*%
%TD*%
%TA.AperFunction,SMDPad,CuDef*%
%ADD12RoundRect,0.225000X0.250000X-0.225000X0.250000X0.225000X-0.250000X0.225000X-0.250000X-0.225000X0*%
%TD*%
%TA.AperFunction,SMDPad,CuDef*%
%ADD13R,0.400000X0.480000*%
%TD*%
%TA.AperFunction,SMDPad,CuDef*%
%ADD14R,0.609600X1.701800*%
%TD*%
%TA.AperFunction,SMDPad,CuDef*%
%ADD15R,0.990600X2.844800*%
%TD*%
%TA.AperFunction,SMDPad,CuDef*%
%ADD16R,1.549400X0.609600*%
%TD*%
%TA.AperFunction,SMDPad,CuDef*%
%ADD17R,1.803400X1.193800*%
%TD*%
%TA.AperFunction,ComponentPad*%
%ADD18R,1.700000X1.700000*%
%TD*%
%TA.AperFunction,ComponentPad*%
%ADD19C,1.700000*%
%TD*%
%TA.AperFunction,SMDPad,CuDef*%
%ADD20RoundRect,0.225000X-0.250000X0.225000X-0.250000X-0.225000X0.250000X-0.225000X0.250000X0.225000X0*%
%TD*%
%TA.AperFunction,SMDPad,CuDef*%
%ADD21RoundRect,0.218750X0.256250X-0.218750X0.256250X0.218750X-0.256250X0.218750X-0.256250X-0.218750X0*%
%TD*%
%TA.AperFunction,SMDPad,CuDef*%
%ADD22C,1.500000*%
%TD*%
%TA.AperFunction,SMDPad,CuDef*%
%ADD23RoundRect,0.200000X-0.335876X-0.053033X-0.053033X-0.335876X0.335876X0.053033X0.053033X0.335876X0*%
%TD*%
%TA.AperFunction,SMDPad,CuDef*%
%ADD24RoundRect,0.200000X-0.200000X-0.275000X0.200000X-0.275000X0.200000X0.275000X-0.200000X0.275000X0*%
%TD*%
%TA.AperFunction,SMDPad,CuDef*%
%ADD25RoundRect,0.250000X-0.450000X0.262500X-0.450000X-0.262500X0.450000X-0.262500X0.450000X0.262500X0*%
%TD*%
%TA.AperFunction,SMDPad,CuDef*%
%ADD26R,1.803400X0.660400*%
%TD*%
%TA.AperFunction,SMDPad,CuDef*%
%ADD27R,2.794000X1.092200*%
%TD*%
%TA.AperFunction,SMDPad,CuDef*%
%ADD28RoundRect,0.250000X0.450000X-0.262500X0.450000X0.262500X-0.450000X0.262500X-0.450000X-0.262500X0*%
%TD*%
%TA.AperFunction,SMDPad,CuDef*%
%ADD29FreePoly0,270.000000*%
%TD*%
%TA.AperFunction,SMDPad,CuDef*%
%ADD30FreePoly1,270.000000*%
%TD*%
%TA.AperFunction,SMDPad,CuDef*%
%ADD31RoundRect,0.225000X-0.225000X-0.250000X0.225000X-0.250000X0.225000X0.250000X-0.225000X0.250000X0*%
%TD*%
%TA.AperFunction,SMDPad,CuDef*%
%ADD32R,0.300000X0.325000*%
%TD*%
%TA.AperFunction,SMDPad,CuDef*%
%ADD33R,0.325000X0.300000*%
%TD*%
%TA.AperFunction,SMDPad,CuDef*%
%ADD34R,1.500000X0.900000*%
%TD*%
%TA.AperFunction,SMDPad,CuDef*%
%ADD35R,0.900000X1.500000*%
%TD*%
%TA.AperFunction,HeatsinkPad*%
%ADD36C,0.600000*%
%TD*%
%TA.AperFunction,HeatsinkPad*%
%ADD37R,3.900000X3.900000*%
%TD*%
%TA.AperFunction,SMDPad,CuDef*%
%ADD38RoundRect,0.200000X0.200000X0.275000X-0.200000X0.275000X-0.200000X-0.275000X0.200000X-0.275000X0*%
%TD*%
%TA.AperFunction,ViaPad*%
%ADD39C,0.600000*%
%TD*%
%TA.AperFunction,Conductor*%
%ADD40C,0.152400*%
%TD*%
%TA.AperFunction,Conductor*%
%ADD41C,0.300000*%
%TD*%
%TA.AperFunction,Conductor*%
%ADD42C,0.200000*%
%TD*%
G04 APERTURE END LIST*
D10*
%TO.P,R5,1*%
%TO.N,/D+*%
X148600000Y-68850001D03*
%TO.P,R5,2*%
%TO.N,/DP*%
X148600000Y-70500001D03*
%TD*%
D11*
%TO.P,R8,1*%
%TO.N,/3.3*%
X150213553Y-63299893D03*
%TO.P,R8,2*%
%TO.N,Net-(U2-VDDIO)*%
X150213553Y-61649893D03*
%TD*%
D12*
%TO.P,C3,1*%
%TO.N,/EN*%
X154500000Y-73000000D03*
%TO.P,C3,2*%
%TO.N,GND*%
X154500000Y-71450000D03*
%TD*%
D13*
%TO.P,D2,1*%
%TO.N,GND*%
X143738998Y-55855001D03*
%TO.P,D2,2*%
%TO.N,/BATT_A*%
X143738998Y-57174999D03*
%TD*%
D14*
%TO.P,J3,1,Pin_1*%
%TO.N,GND*%
X162000000Y-73500000D03*
%TO.P,J3,2,Pin_2*%
%TO.N,/QM1*%
X163250000Y-73500000D03*
%TO.P,J3,3,Pin_3*%
%TO.N,/QM2*%
X164500000Y-73500000D03*
%TO.P,J3,4,Pin_4*%
%TO.N,/QM3*%
X165750000Y-73500000D03*
%TO.P,J3,5,Pin_5*%
%TO.N,/QM4*%
X167000000Y-73500000D03*
%TO.P,J3,6,Pin_6*%
%TO.N,/GM*%
X168250000Y-73500000D03*
D15*
%TO.P,J3,7,Pin_7*%
%TO.N,unconnected-(J3-Pin_7-Pad7)*%
X160150001Y-76700001D03*
%TO.P,J3,8,Pin_8*%
%TO.N,unconnected-(J3-Pin_8-Pad8)*%
X170099999Y-76700001D03*
%TD*%
D16*
%TO.P,J2,1,Pin_1*%
%TO.N,GND*%
X133314199Y-60431199D03*
%TO.P,J2,2,Pin_2*%
%TO.N,/3.3*%
X133314199Y-61431200D03*
%TO.P,J2,3,Pin_3*%
%TO.N,/SDA*%
X133314199Y-62431198D03*
%TO.P,J2,4,Pin_4*%
%TO.N,/SCL*%
X133314199Y-63431199D03*
D17*
%TO.P,J2,5,Pin_5*%
%TO.N,unconnected-(J2-Pin_5-Pad5)*%
X129489200Y-59131200D03*
%TO.P,J2,6,Pin_6*%
%TO.N,unconnected-(J2-Pin_6-Pad6)*%
X129489200Y-64731198D03*
%TD*%
D18*
%TO.P,J1,1,Pin_1*%
%TO.N,/EN*%
X151587000Y-75073001D03*
D19*
%TO.P,J1,2,Pin_2*%
%TO.N,/DP*%
X149047000Y-75073001D03*
%TO.P,J1,3,Pin_3*%
%TO.N,/DN*%
X146507001Y-75073001D03*
%TO.P,J1,4,Pin_4*%
%TO.N,/GPIO0*%
X143967000Y-75073001D03*
%TD*%
D10*
%TO.P,R4,1*%
%TO.N,/D-*%
X146900000Y-68850000D03*
%TO.P,R4,2*%
%TO.N,/DN*%
X146900000Y-70500000D03*
%TD*%
D20*
%TO.P,C2,1*%
%TO.N,/3.3*%
X137134998Y-52160500D03*
%TO.P,C2,2*%
%TO.N,GND*%
X137134998Y-53710500D03*
%TD*%
D21*
%TO.P,D1,1,K*%
%TO.N,GND*%
X146685000Y-55245101D03*
%TO.P,D1,2,A*%
%TO.N,Net-(D1-A)*%
X146685000Y-53670099D03*
%TD*%
D22*
%TO.P,TP7,1,1*%
%TO.N,/GM*%
X172500000Y-72000000D03*
%TD*%
D20*
%TO.P,C7,1*%
%TO.N,/3.3*%
X138912998Y-52173500D03*
%TO.P,C7,2*%
%TO.N,GND*%
X138912998Y-53723500D03*
%TD*%
D10*
%TO.P,R12,1*%
%TO.N,/3.3*%
X154051000Y-58230000D03*
%TO.P,R12,2*%
%TO.N,/SDA*%
X154051000Y-59880000D03*
%TD*%
D20*
%TO.P,C1,1*%
%TO.N,/EN*%
X153416000Y-53467000D03*
%TO.P,C1,2*%
%TO.N,GND*%
X153416000Y-55017000D03*
%TD*%
D23*
%TO.P,R1,1*%
%TO.N,/3.3*%
X150419637Y-51943000D03*
%TO.P,R1,2*%
%TO.N,/EN*%
X151586363Y-53109726D03*
%TD*%
D12*
%TO.P,C4,1*%
%TO.N,/GPIO0*%
X140900000Y-72775000D03*
%TO.P,C4,2*%
%TO.N,GND*%
X140900000Y-71225000D03*
%TD*%
D22*
%TO.P,TP3,1,1*%
%TO.N,/QM1*%
X157750000Y-72000000D03*
%TD*%
D12*
%TO.P,C9,1*%
%TO.N,/BATT_A*%
X148317949Y-56668000D03*
%TO.P,C9,2*%
%TO.N,GND*%
X148317949Y-55118000D03*
%TD*%
D24*
%TO.P,R9,1*%
%TO.N,/3.3*%
X140690600Y-66167000D03*
%TO.P,R9,2*%
%TO.N,Net-(U2-CSB)*%
X142340600Y-66167000D03*
%TD*%
D20*
%TO.P,C10,1*%
%TO.N,Net-(U2-VDD)*%
X146530553Y-64684893D03*
%TO.P,C10,2*%
%TO.N,GND*%
X146530553Y-66234893D03*
%TD*%
D21*
%TO.P,D3,1,K*%
%TO.N,Net-(D3-K)*%
X175895000Y-65837002D03*
%TO.P,D3,2,A*%
%TO.N,/IND_LED*%
X175895000Y-64262000D03*
%TD*%
D25*
%TO.P,R2,1*%
%TO.N,/3.3*%
X143992998Y-51919500D03*
%TO.P,R2,2*%
%TO.N,Net-(D1-A)*%
X143992998Y-53744500D03*
%TD*%
D26*
%TO.P,J7,1,Pin_1*%
%TO.N,/3.3*%
X133197600Y-52324000D03*
%TO.P,J7,2,Pin_2*%
%TO.N,GND*%
X133197600Y-53574000D03*
%TO.P,J7,3,Pin_3*%
%TO.N,/VBAT*%
X133197600Y-54824000D03*
D27*
%TO.P,J7,4,Pin_4*%
%TO.N,unconnected-(J7-Pin_4-Pad4)*%
X129997599Y-50474001D03*
%TO.P,J7,5,Pin_5*%
%TO.N,unconnected-(J7-Pin_5-Pad5)*%
X129997599Y-56673999D03*
%TD*%
D22*
%TO.P,TP4,1,1*%
%TO.N,/QM2*%
X176250000Y-72000000D03*
%TD*%
%TO.P,TP5,1,1*%
%TO.N,/QM3*%
X176300000Y-74750000D03*
%TD*%
D18*
%TO.P,J6,1,Pin_1*%
%TO.N,Net-(J6-Pin_1)*%
X181140000Y-65000000D03*
D19*
%TO.P,J6,2,Pin_2*%
%TO.N,Net-(J6-Pin_2)*%
X181140000Y-67540000D03*
%TO.P,J6,3,Pin_3*%
%TO.N,Net-(J6-Pin_3)*%
X181140000Y-70080000D03*
%TD*%
D25*
%TO.P,R3,1*%
%TO.N,/3.3*%
X141198998Y-51919500D03*
%TO.P,R3,2*%
%TO.N,Net-(D1-A)*%
X141198998Y-53744500D03*
%TD*%
D26*
%TO.P,J5,1,Pin_1*%
%TO.N,GND*%
X178119999Y-60089999D03*
%TO.P,J5,2,Pin_2*%
%TO.N,/RX*%
X178119999Y-58839999D03*
%TO.P,J5,3,Pin_3*%
%TO.N,/TX*%
X178119999Y-57589999D03*
D27*
%TO.P,J5,4,Pin_4*%
%TO.N,unconnected-(J5-Pin_4-Pad4)*%
X181320000Y-61939998D03*
%TO.P,J5,5,Pin_5*%
%TO.N,unconnected-(J5-Pin_5-Pad5)*%
X181320000Y-55740000D03*
%TD*%
D11*
%TO.P,R7,1*%
%TO.N,/3.3*%
X140900000Y-76025000D03*
%TO.P,R7,2*%
%TO.N,/GPIO0*%
X140900000Y-74375000D03*
%TD*%
D28*
%TO.P,RD1,1*%
%TO.N,/BATT_A*%
X141706998Y-57237500D03*
%TO.P,RD1,2*%
%TO.N,GND*%
X141706998Y-55412500D03*
%TD*%
D20*
%TO.P,C12,1*%
%TO.N,/3.3*%
X152200000Y-63325000D03*
%TO.P,C12,2*%
%TO.N,GND*%
X152200000Y-64875000D03*
%TD*%
D29*
%TO.P,JP6,1,A*%
%TO.N,GND*%
X138480800Y-62403202D03*
D30*
%TO.P,JP6,2,B*%
%TO.N,Net-(JP5-A)*%
X138480800Y-63703200D03*
%TD*%
D23*
%TO.P,RU1,1*%
%TO.N,/VBAT*%
X136551635Y-55804637D03*
%TO.P,RU1,2*%
%TO.N,/BATT_A*%
X137718361Y-56971363D03*
%TD*%
D22*
%TO.P,TP6,1,1*%
%TO.N,/QM4*%
X172500000Y-74800000D03*
%TD*%
D25*
%TO.P,R11,1*%
%TO.N,Net-(D3-K)*%
X178333400Y-67640200D03*
%TO.P,R11,2*%
%TO.N,GND*%
X178333400Y-69465200D03*
%TD*%
D31*
%TO.P,C5,1*%
%TO.N,/DP*%
X148614600Y-72235803D03*
%TO.P,C5,2*%
%TO.N,GND*%
X150164600Y-72235803D03*
%TD*%
D25*
%TO.P,R10,1*%
%TO.N,Net-(D3-K)*%
X176250600Y-67669400D03*
%TO.P,R10,2*%
%TO.N,GND*%
X176250600Y-69494400D03*
%TD*%
D18*
%TO.P,J4,1,Pin_1*%
%TO.N,GND*%
X133096000Y-69545200D03*
%TD*%
D11*
%TO.P,R14,1*%
%TO.N,/3.3*%
X154051000Y-62991000D03*
%TO.P,R14,2*%
%TO.N,/SCL*%
X154051000Y-61341000D03*
%TD*%
D31*
%TO.P,C6,1*%
%TO.N,GND*%
X145325600Y-72253601D03*
%TO.P,C6,2*%
%TO.N,/DN*%
X146875600Y-72253601D03*
%TD*%
D32*
%TO.P,U2,1,VDDIO*%
%TO.N,Net-(U2-VDDIO)*%
X143203553Y-62230000D03*
%TO.P,U2,2,SCK*%
%TO.N,/SCL*%
X142703553Y-62230000D03*
D33*
%TO.P,U2,3,VSS_1*%
%TO.N,GND*%
X142178553Y-62480000D03*
%TO.P,U2,4,SDI*%
%TO.N,/SDA*%
X142178553Y-62980000D03*
%TO.P,U2,5,SDO*%
%TO.N,Net-(JP5-A)*%
X142178553Y-63480000D03*
D32*
%TO.P,U2,6,CSB*%
%TO.N,Net-(U2-CSB)*%
X142703553Y-63730000D03*
%TO.P,U2,7,INT*%
%TO.N,/BAR_INT*%
X143203553Y-63730000D03*
D33*
%TO.P,U2,8,VSS_2*%
%TO.N,GND*%
X143728553Y-63480000D03*
%TO.P,U2,9,VSS_3*%
X143728553Y-62980000D03*
%TO.P,U2,10,VDD*%
%TO.N,Net-(U2-VDD)*%
X143728553Y-62480000D03*
%TD*%
D34*
%TO.P,U1,1,GND*%
%TO.N,GND*%
X156157526Y-51036611D03*
%TO.P,U1,2,3V3*%
%TO.N,/3.3*%
X156157526Y-52306611D03*
%TO.P,U1,3,EN*%
%TO.N,/EN*%
X156157526Y-53576611D03*
%TO.P,U1,4,IO4*%
%TO.N,/BATT_A*%
X156157526Y-54846611D03*
%TO.P,U1,5,IO5*%
%TO.N,unconnected-(U1-IO5-Pad5)*%
X156157526Y-56116611D03*
%TO.P,U1,6,IO6*%
%TO.N,unconnected-(U1-IO6-Pad6)*%
X156157526Y-57386611D03*
%TO.P,U1,7,IO7*%
%TO.N,unconnected-(U1-IO7-Pad7)*%
X156157526Y-58656611D03*
%TO.P,U1,8,IO15*%
%TO.N,/SDA*%
X156157526Y-59926611D03*
%TO.P,U1,9,IO16*%
%TO.N,/SCL*%
X156157526Y-61196611D03*
%TO.P,U1,10,IO17*%
%TO.N,unconnected-(U1-IO17-Pad10)*%
X156157526Y-62466611D03*
%TO.P,U1,11,IO18*%
%TO.N,unconnected-(U1-IO18-Pad11)*%
X156157526Y-63736611D03*
%TO.P,U1,12,IO8*%
%TO.N,/BAR_INT*%
X156157526Y-65006611D03*
%TO.P,U1,13,IO19*%
%TO.N,/D-*%
X156157526Y-66276611D03*
%TO.P,U1,14,IO20*%
%TO.N,/D+*%
X156157526Y-67546611D03*
D35*
%TO.P,U1,15,IO3*%
%TO.N,unconnected-(U1-IO3-Pad15)*%
X157922526Y-68796611D03*
%TO.P,U1,16,IO46*%
%TO.N,unconnected-(U1-IO46-Pad16)*%
X159192526Y-68796611D03*
%TO.P,U1,17,IO9*%
%TO.N,unconnected-(U1-IO9-Pad17)*%
X160462526Y-68796611D03*
%TO.P,U1,18,IO10*%
%TO.N,unconnected-(U1-IO10-Pad18)*%
X161732526Y-68796611D03*
%TO.P,U1,19,IO11*%
%TO.N,/QM1*%
X163002526Y-68796611D03*
%TO.P,U1,20,IO12*%
%TO.N,/QM2*%
X164272526Y-68796611D03*
%TO.P,U1,21,IO13*%
%TO.N,/QM3*%
X165542526Y-68796611D03*
%TO.P,U1,22,IO14*%
%TO.N,/QM4*%
X166812526Y-68796611D03*
%TO.P,U1,23,IO21*%
%TO.N,/GM*%
X168082526Y-68796611D03*
%TO.P,U1,24,IO47*%
%TO.N,unconnected-(U1-IO47-Pad24)*%
X169352526Y-68796611D03*
%TO.P,U1,25,IO48*%
%TO.N,unconnected-(U1-IO48-Pad25)*%
X170622526Y-68796611D03*
%TO.P,U1,26,IO45*%
%TO.N,unconnected-(U1-IO45-Pad26)*%
X171892526Y-68796611D03*
D34*
%TO.P,U1,27,IO0*%
%TO.N,/GPIO0*%
X173657526Y-67546611D03*
%TO.P,U1,28,IO35*%
%TO.N,unconnected-(U1-IO35-Pad28)*%
X173657526Y-66276611D03*
%TO.P,U1,29,IO36*%
%TO.N,unconnected-(U1-IO36-Pad29)*%
X173657526Y-65006611D03*
%TO.P,U1,30,IO37*%
%TO.N,unconnected-(U1-IO37-Pad30)*%
X173657526Y-63736611D03*
%TO.P,U1,31,IO38*%
%TO.N,/IND_LED*%
X173657526Y-62466611D03*
%TO.P,U1,32,IO39*%
%TO.N,Net-(J6-Pin_3)*%
X173657526Y-61196611D03*
%TO.P,U1,33,IO40*%
%TO.N,Net-(J6-Pin_2)*%
X173657526Y-59926611D03*
%TO.P,U1,34,IO41*%
%TO.N,Net-(J6-Pin_1)*%
X173657526Y-58656611D03*
%TO.P,U1,35,IO42*%
%TO.N,unconnected-(U1-IO42-Pad35)*%
X173657526Y-57386611D03*
%TO.P,U1,36,RXD0*%
%TO.N,unconnected-(U1-RXD0-Pad36)*%
X173657526Y-56116611D03*
%TO.P,U1,37,TXD0*%
%TO.N,unconnected-(U1-TXD0-Pad37)*%
X173657526Y-54846611D03*
%TO.P,U1,38,IO2*%
%TO.N,/RX*%
X173657526Y-53576611D03*
%TO.P,U1,39,IO1*%
%TO.N,/TX*%
X173657526Y-52306611D03*
%TO.P,U1,40,GND__1*%
%TO.N,GND*%
X173657526Y-51036611D03*
D36*
%TO.P,U1,41*%
X162007526Y-58056611D03*
X162007526Y-59456611D03*
X162707526Y-57356611D03*
X162707526Y-58756611D03*
X162707526Y-60156611D03*
X163407526Y-58056611D03*
D37*
X163407526Y-58756611D03*
D36*
X163407526Y-59456611D03*
X164107526Y-57356611D03*
X164107526Y-58756611D03*
X164107526Y-60156611D03*
X164807526Y-58056611D03*
X164807526Y-59456611D03*
%TD*%
D20*
%TO.P,C11,1*%
%TO.N,Net-(U2-VDDIO)*%
X146558000Y-61505800D03*
%TO.P,C11,2*%
%TO.N,GND*%
X146558000Y-63055800D03*
%TD*%
D11*
%TO.P,R6,1*%
%TO.N,/3.3*%
X154500000Y-76225000D03*
%TO.P,R6,2*%
%TO.N,/EN*%
X154500000Y-74575000D03*
%TD*%
D12*
%TO.P,C8,1*%
%TO.N,/BATT_A*%
X150114000Y-56668000D03*
%TO.P,C8,2*%
%TO.N,GND*%
X150114000Y-55118000D03*
%TD*%
D29*
%TO.P,JP5,1,A*%
%TO.N,Net-(JP5-A)*%
X137744200Y-65938400D03*
D30*
%TO.P,JP5,2,B*%
%TO.N,/3.3*%
X137744200Y-67238398D03*
%TD*%
D38*
%TO.P,R16,1*%
%TO.N,/3.3*%
X149831553Y-65078893D03*
%TO.P,R16,2*%
%TO.N,Net-(U2-VDD)*%
X148181553Y-65078893D03*
%TD*%
D39*
%TO.N,/EN*%
X158200000Y-53600000D03*
X156700000Y-74600000D03*
%TO.N,GND*%
X175666400Y-51028600D03*
X135636000Y-59105800D03*
X144957800Y-66243200D03*
X176320000Y-58980000D03*
X139801600Y-55412500D03*
X178308000Y-71247000D03*
X148437600Y-63677800D03*
X160750000Y-71750000D03*
X151750000Y-55000000D03*
X154432000Y-50292000D03*
X145008998Y-55522500D03*
X141960600Y-60401200D03*
X152300000Y-71800000D03*
X135737998Y-53594000D03*
X153898600Y-65379600D03*
X143600000Y-71600000D03*
X139115800Y-60553600D03*
%TO.N,/3.3*%
X154279600Y-56845200D03*
X135890000Y-57759600D03*
X156057600Y-76377800D03*
X145491200Y-52705000D03*
X154584400Y-52705000D03*
X154432000Y-77597000D03*
X152196800Y-61849000D03*
%TO.N,/GPIO0*%
X171958000Y-76987400D03*
X158250000Y-77000000D03*
%TO.N,/BATT_A*%
X152146000Y-57404000D03*
%TO.N,/SDA*%
X141122400Y-60325000D03*
X141122400Y-59029600D03*
%TO.N,/QM2*%
X176250000Y-72000000D03*
X165173800Y-70300000D03*
%TO.N,/QM3*%
X166423800Y-71100000D03*
X176300000Y-74750000D03*
%TO.N,/QM4*%
X172542200Y-74777600D03*
X167800000Y-71800000D03*
%TD*%
D40*
%TO.N,/EN*%
X154001999Y-75073001D02*
X154500000Y-74575000D01*
X151587000Y-75073001D02*
X154001999Y-75073001D01*
X156047915Y-53467000D02*
X156157526Y-53576611D01*
X151586363Y-53109726D02*
X153058726Y-53109726D01*
X156180915Y-53600000D02*
X158200000Y-53600000D01*
X153416000Y-53467000D02*
X156047915Y-53467000D01*
X153058726Y-53109726D02*
X153416000Y-53467000D01*
X156675000Y-74575000D02*
X154500000Y-74575000D01*
X156157526Y-53576611D02*
X156180915Y-53600000D01*
X154500000Y-74575000D02*
X154500000Y-73000000D01*
X156700000Y-74600000D02*
X156675000Y-74575000D01*
X155873137Y-53861000D02*
X156157526Y-53576611D01*
%TO.N,GND*%
X152400000Y-71700000D02*
X152500000Y-71700000D01*
X153394000Y-64875000D02*
X153898600Y-65379600D01*
D41*
X139801600Y-55412500D02*
X139461498Y-55412500D01*
D40*
X176305200Y-69465200D02*
X178333400Y-69465200D01*
D41*
X133197600Y-53574000D02*
X135717998Y-53574000D01*
D40*
X145008998Y-55522500D02*
X144071499Y-55522500D01*
X153416000Y-55017000D02*
X151767000Y-55017000D01*
D41*
X134289800Y-60452000D02*
X135636000Y-59105800D01*
D40*
X178119999Y-60089999D02*
X177429999Y-60089999D01*
X143225000Y-71225000D02*
X140900000Y-71225000D01*
D41*
X155176611Y-51036611D02*
X154432000Y-50292000D01*
D40*
X144071499Y-55522500D02*
X143738998Y-55855001D01*
X144966107Y-66234893D02*
X146530553Y-66234893D01*
X144253601Y-72253601D02*
X145325600Y-72253601D01*
X143728553Y-63480000D02*
X143728553Y-62980000D01*
X162000000Y-73000000D02*
X162000000Y-73500000D01*
X152300000Y-71800000D02*
X151864197Y-72235803D01*
X137147998Y-53723500D02*
X137134998Y-53710500D01*
D41*
X133858000Y-60452000D02*
X134289800Y-60452000D01*
X135737998Y-53594000D02*
X137018498Y-53594000D01*
D40*
X142178553Y-62480000D02*
X142178553Y-60619153D01*
X150114000Y-55118000D02*
X151632000Y-55118000D01*
X143738998Y-55855001D02*
X142149499Y-55855001D01*
X137018498Y-53594000D02*
X137134998Y-53710500D01*
X144957800Y-66243200D02*
X144966107Y-66234893D01*
X151632000Y-55118000D02*
X151750000Y-55000000D01*
X151864197Y-72235803D02*
X150164600Y-72235803D01*
X178333400Y-69465200D02*
X178333400Y-71221600D01*
X152650000Y-71450000D02*
X154500000Y-71450000D01*
D41*
X156157526Y-51036611D02*
X155176611Y-51036611D01*
X138912998Y-53723500D02*
X137147998Y-53723500D01*
D40*
X175658389Y-51036611D02*
X175666400Y-51028600D01*
X136997498Y-53848000D02*
X137134998Y-53710500D01*
X142178553Y-60619153D02*
X141960600Y-60401200D01*
X152300000Y-71800000D02*
X152650000Y-71450000D01*
X177429999Y-60089999D02*
X176320000Y-58980000D01*
X143728553Y-65013953D02*
X144957800Y-66243200D01*
X146558000Y-63055800D02*
X147815600Y-63055800D01*
X143600000Y-71600000D02*
X144253601Y-72253601D01*
X139115800Y-61768202D02*
X139115800Y-60553600D01*
X150114000Y-55118000D02*
X148317949Y-55118000D01*
X173657526Y-51036611D02*
X175658389Y-51036611D01*
D41*
X138912998Y-54864000D02*
X138912998Y-53723500D01*
D40*
X176250600Y-69494400D02*
X176276000Y-69494400D01*
X138480800Y-62403202D02*
X139115800Y-61768202D01*
X147815600Y-63055800D02*
X148437600Y-63677800D01*
X178333400Y-71221600D02*
X178308000Y-71247000D01*
X151767000Y-55017000D02*
X151750000Y-55000000D01*
X160750000Y-71750000D02*
X162000000Y-73000000D01*
X142149499Y-55855001D02*
X141706998Y-55412500D01*
X146685000Y-55245101D02*
X145286397Y-55245101D01*
X152200000Y-64875000D02*
X153394000Y-64875000D01*
X152300000Y-71800000D02*
X152400000Y-71700000D01*
X150215000Y-55017000D02*
X150114000Y-55118000D01*
X143600000Y-71600000D02*
X143225000Y-71225000D01*
X176276000Y-69494400D02*
X176305200Y-69465200D01*
D41*
X139461498Y-55412500D02*
X138912998Y-54864000D01*
X139801600Y-55412500D02*
X141706998Y-55412500D01*
D40*
X143728553Y-63480000D02*
X143728553Y-65013953D01*
X135717998Y-53574000D02*
X135737998Y-53594000D01*
X145286397Y-55245101D02*
X145008998Y-55522500D01*
D41*
%TO.N,/3.3*%
X150396137Y-51919500D02*
X150419637Y-51943000D01*
D40*
X138899998Y-52160500D02*
X138912998Y-52173500D01*
D41*
X134980198Y-67238398D02*
X131673600Y-63931800D01*
D40*
X152200000Y-61852200D02*
X152196800Y-61849000D01*
D41*
X139524498Y-51919500D02*
X141198998Y-51919500D01*
X137744200Y-67238398D02*
X139619202Y-67238398D01*
X139270498Y-52173500D02*
X139524498Y-51919500D01*
X141198998Y-51919500D02*
X143992998Y-51919500D01*
X154432000Y-77597000D02*
X142472000Y-77597000D01*
X152534000Y-62991000D02*
X152200000Y-63325000D01*
X154279600Y-58001400D02*
X154051000Y-58230000D01*
X137134998Y-52160500D02*
X138899998Y-52160500D01*
X154584400Y-51546000D02*
X154584400Y-52705000D01*
X137744200Y-72869200D02*
X140900000Y-76025000D01*
X133858000Y-61452001D02*
X133224098Y-61452001D01*
D40*
X149800000Y-65047340D02*
X149831553Y-65078893D01*
D41*
X133197600Y-52324000D02*
X136971498Y-52324000D01*
X152049893Y-63299893D02*
X150213553Y-63299893D01*
D40*
X152200000Y-63325000D02*
X152075000Y-63325000D01*
D41*
X152200000Y-63325000D02*
X152200000Y-61852200D01*
X139619202Y-67238398D02*
X140690600Y-66167000D01*
D40*
X152075000Y-63325000D02*
X152049893Y-63299893D01*
D41*
X145465800Y-52679600D02*
X145491200Y-52705000D01*
X154279600Y-56845200D02*
X154279600Y-58001400D01*
X154584400Y-51546000D02*
X154764915Y-51546000D01*
X154500000Y-76225000D02*
X155904800Y-76225000D01*
X143992998Y-51919500D02*
X145465800Y-51919500D01*
D40*
X138912998Y-52173500D02*
X139270498Y-52173500D01*
D41*
X149800000Y-63713446D02*
X149800000Y-65047340D01*
X150213553Y-63299893D02*
X149800000Y-63713446D01*
X150816637Y-51546000D02*
X154584400Y-51546000D01*
X131673600Y-60290298D02*
X134204298Y-57759600D01*
X155525526Y-52306611D02*
X156157526Y-52306611D01*
X145465800Y-51919500D02*
X145465800Y-52679600D01*
X154764915Y-51546000D02*
X155525526Y-52306611D01*
X137744200Y-67238398D02*
X137744200Y-72869200D01*
X131673600Y-63931800D02*
X131673600Y-61417200D01*
X154051000Y-62991000D02*
X152534000Y-62991000D01*
X133314199Y-61431200D02*
X131687600Y-61431200D01*
D40*
X136971498Y-52324000D02*
X137134998Y-52160500D01*
X155904800Y-76225000D02*
X156057600Y-76377800D01*
D41*
X137744200Y-67238398D02*
X134980198Y-67238398D01*
X134204298Y-57759600D02*
X135890000Y-57759600D01*
X142472000Y-77597000D02*
X140900000Y-76025000D01*
X131673600Y-61417200D02*
X131673600Y-60290298D01*
X150419637Y-51943000D02*
X150816637Y-51546000D01*
X145465800Y-51919500D02*
X150396137Y-51919500D01*
X133388100Y-61452001D02*
X133858000Y-61452001D01*
D40*
X131687600Y-61431200D02*
X131673600Y-61417200D01*
%TO.N,/GPIO0*%
X174980600Y-74676000D02*
X172669200Y-76987400D01*
X145893999Y-77000000D02*
X158250000Y-77000000D01*
X140900000Y-74375000D02*
X140900000Y-72375000D01*
X143967000Y-75073001D02*
X145893999Y-77000000D01*
X172669200Y-76987400D02*
X171958000Y-76987400D01*
X174980600Y-68376800D02*
X174980600Y-74676000D01*
X173657526Y-67546611D02*
X174150411Y-67546611D01*
X143967000Y-75073001D02*
X141598001Y-75073001D01*
X141598001Y-75073001D02*
X140900000Y-74375000D01*
X174150411Y-67546611D02*
X174980600Y-68376800D01*
D42*
%TO.N,/DP*%
X148614600Y-70514601D02*
X148600000Y-70500001D01*
X148614600Y-70602201D02*
X148640600Y-70576201D01*
X149047000Y-72668203D02*
X148614600Y-72235803D01*
X148335800Y-72514603D02*
X148614600Y-72235803D01*
X149047000Y-75073001D02*
X149047000Y-72668203D01*
X148614600Y-72235803D02*
X148614600Y-70514601D01*
%TO.N,/DN*%
X146507001Y-72622200D02*
X146875600Y-72253601D01*
X146875600Y-70524400D02*
X146900000Y-70500000D01*
X146875600Y-72253601D02*
X146875600Y-70524400D01*
X146507001Y-75073001D02*
X146507001Y-72622200D01*
D40*
%TO.N,/BATT_A*%
X143738998Y-57174999D02*
X147810950Y-57174999D01*
X152146000Y-56922000D02*
X151892000Y-56668000D01*
X143738998Y-57174999D02*
X141769499Y-57174999D01*
X155673126Y-54846611D02*
X154519737Y-56000000D01*
X137718361Y-56971363D02*
X141440861Y-56971363D01*
X152146000Y-57404000D02*
X152146000Y-56922000D01*
X143763997Y-57150000D02*
X143738998Y-57174999D01*
X152560000Y-56000000D02*
X151892000Y-56668000D01*
X151892000Y-56668000D02*
X150114000Y-56668000D01*
X156157526Y-54846611D02*
X155673126Y-54846611D01*
X150114000Y-56668000D02*
X148317949Y-56668000D01*
X141769499Y-57174999D02*
X141706998Y-57237500D01*
X154519737Y-56000000D02*
X152560000Y-56000000D01*
X147810950Y-57174999D02*
X148317949Y-56668000D01*
X141440861Y-56971363D02*
X141706998Y-57237500D01*
%TO.N,Net-(U2-VDD)*%
X146530553Y-64684893D02*
X147787553Y-64684893D01*
X147787553Y-64684893D02*
X148181553Y-65078893D01*
X143728553Y-62480000D02*
X144325660Y-62480000D01*
X144325660Y-62480000D02*
X146530553Y-64684893D01*
%TO.N,Net-(U2-VDDIO)*%
X146558000Y-61505800D02*
X146647200Y-61505800D01*
X146647200Y-61505800D02*
X146791293Y-61649893D01*
X143927753Y-61505800D02*
X146558000Y-61505800D01*
X143203553Y-62230000D02*
X143927753Y-61505800D01*
X146791293Y-61649893D02*
X150213553Y-61649893D01*
%TO.N,Net-(D1-A)*%
X144067399Y-53670099D02*
X143992998Y-53744500D01*
X146685000Y-53670099D02*
X144067399Y-53670099D01*
X141198998Y-53744500D02*
X143992998Y-53744500D01*
%TO.N,/IND_LED*%
X175895000Y-64219685D02*
X175895000Y-64262000D01*
X173657526Y-62466611D02*
X174141926Y-62466611D01*
X174141926Y-62466611D02*
X175895000Y-64219685D01*
%TO.N,Net-(D3-K)*%
X175895000Y-65837002D02*
X175895000Y-67313800D01*
X176250600Y-67669400D02*
X178304200Y-67669400D01*
X178304200Y-67669400D02*
X178333400Y-67640200D01*
X175895000Y-67313800D02*
X176250600Y-67669400D01*
D42*
%TO.N,/D-*%
X149125800Y-66624200D02*
X154207388Y-66624200D01*
X146750000Y-68850000D02*
X146587198Y-69012802D01*
X155809937Y-66624200D02*
X156157526Y-66276611D01*
X149083090Y-66666909D02*
X149125800Y-66624200D01*
X148623471Y-67126529D02*
X149083090Y-66666909D01*
X154207388Y-66624200D02*
X155809937Y-66624200D01*
X146900000Y-68850000D02*
X148623471Y-67126529D01*
X146900000Y-68850000D02*
X146750000Y-68850000D01*
%TO.N,/D+*%
X152665777Y-68535254D02*
X152665777Y-68134200D01*
X155809937Y-67894200D02*
X156157526Y-67546611D01*
X151705777Y-67163150D02*
X151825777Y-67163150D01*
X148600000Y-68850001D02*
X149555801Y-67894200D01*
X149555801Y-67894200D02*
X151225777Y-67894200D01*
X153025777Y-67894200D02*
X154227398Y-67894200D01*
X152065777Y-67403150D02*
X152065777Y-67654200D01*
X152905777Y-67894200D02*
X153025777Y-67894200D01*
X152065777Y-67654200D02*
X152065777Y-68134200D01*
X151465777Y-67654200D02*
X151465777Y-67403150D01*
X154227398Y-67894200D02*
X155809937Y-67894200D01*
X152065777Y-68134200D02*
X152065777Y-68535254D01*
X152305777Y-68775254D02*
X152425777Y-68775254D01*
X152665777Y-68134200D02*
G75*
G02*
X152905777Y-67894177I240023J0D01*
G01*
X151825777Y-67163150D02*
G75*
G02*
X152065750Y-67403150I23J-239950D01*
G01*
X152425777Y-68775254D02*
G75*
G03*
X152665754Y-68535254I23J239954D01*
G01*
X151465777Y-67403150D02*
G75*
G02*
X151705777Y-67163077I240023J50D01*
G01*
X152065777Y-68535254D02*
G75*
G03*
X152305777Y-68775323I240023J-46D01*
G01*
X151225777Y-67894200D02*
G75*
G03*
X151465800Y-67654200I23J240000D01*
G01*
D40*
%TO.N,/SDA*%
X142178553Y-62980000D02*
X141811653Y-62980000D01*
X154051000Y-59880000D02*
X152768800Y-58597800D01*
X138346101Y-58597800D02*
X134491902Y-62451999D01*
X134491902Y-62451999D02*
X133858000Y-62451999D01*
X141122400Y-59029600D02*
X141122400Y-58597800D01*
X152768800Y-58597800D02*
X141122400Y-58597800D01*
X141811653Y-62980000D02*
X141122400Y-62290747D01*
X141122400Y-58597800D02*
X138346101Y-58597800D01*
X156110915Y-59880000D02*
X156157526Y-59926611D01*
X154051000Y-59880000D02*
X156110915Y-59880000D01*
X141122400Y-62290747D02*
X141122400Y-60325000D01*
%TO.N,/SCL*%
X142710000Y-59690000D02*
X143256000Y-59690000D01*
X152400000Y-59690000D02*
X154051000Y-61341000D01*
X138089900Y-59690000D02*
X142710000Y-59690000D01*
X133858000Y-63452000D02*
X134327900Y-63452000D01*
X134327900Y-63452000D02*
X138089900Y-59690000D01*
X142703553Y-59696447D02*
X142710000Y-59690000D01*
X154195389Y-61196611D02*
X154051000Y-61341000D01*
X156157526Y-61196611D02*
X154195389Y-61196611D01*
X142703553Y-62230000D02*
X142703553Y-59696447D01*
X143256000Y-59690000D02*
X152400000Y-59690000D01*
%TO.N,/QM1*%
X163250000Y-70500000D02*
X163250000Y-69044085D01*
X157750000Y-72000000D02*
X159000000Y-70750000D01*
X163250000Y-73500000D02*
X163250000Y-70500000D01*
X163250000Y-69044085D02*
X163002526Y-68796611D01*
X159000000Y-70750000D02*
X163250000Y-70750000D01*
%TO.N,/QM2*%
X164250000Y-70300000D02*
X164250000Y-71750000D01*
X164250000Y-68819137D02*
X164272526Y-68796611D01*
X165173800Y-70300000D02*
X164250000Y-70300000D01*
X164250000Y-73250000D02*
X164250000Y-71750000D01*
X175750000Y-71750000D02*
X176000000Y-72000000D01*
X164250000Y-70150000D02*
X164250000Y-70300000D01*
X164250000Y-71750000D02*
X164250000Y-68819137D01*
X164500000Y-73500000D02*
X164250000Y-73250000D01*
%TO.N,/QM3*%
X165750000Y-71900000D02*
X165750000Y-71100000D01*
X165750000Y-69004085D02*
X165542526Y-68796611D01*
X165750000Y-73500000D02*
X165750000Y-71900000D01*
X165750000Y-71100000D02*
X165750000Y-69004085D01*
X165750000Y-71100000D02*
X166423800Y-71100000D01*
%TO.N,/QM4*%
X172500000Y-74400000D02*
X172500000Y-74800000D01*
X167000000Y-73500000D02*
X167000000Y-71800000D01*
X167000000Y-71800000D02*
X167000000Y-68984085D01*
X167000000Y-68984085D02*
X166812526Y-68796611D01*
X167000000Y-71800000D02*
X167800000Y-71800000D01*
%TO.N,/GM*%
X168250000Y-68964084D02*
X168082526Y-68796610D01*
X172500000Y-72000000D02*
X171975600Y-71475600D01*
X168250000Y-73500000D02*
X168500000Y-73250000D01*
X168250000Y-69350000D02*
X168250000Y-68964084D01*
X171975600Y-71475600D02*
X168500000Y-71475600D01*
X168500000Y-69214084D02*
X168082526Y-68796610D01*
X168500000Y-70300000D02*
X168500000Y-69214084D01*
X168500000Y-71475600D02*
X168500000Y-70300000D01*
X168500000Y-73250000D02*
X168500000Y-71475600D01*
%TO.N,/RX*%
X177548499Y-58839999D02*
X176590000Y-57881500D01*
X176590000Y-57881500D02*
X176590000Y-55606685D01*
X176590000Y-55606685D02*
X174559926Y-53576611D01*
X174559926Y-53576611D02*
X173657526Y-53576611D01*
X178119999Y-58839999D02*
X177548499Y-58839999D01*
X173684137Y-53550000D02*
X173657526Y-53576611D01*
D42*
%TO.N,/TX*%
X173664137Y-52300000D02*
X173657526Y-52306611D01*
D40*
X178119999Y-57589999D02*
X178119999Y-55866684D01*
X178119999Y-55866684D02*
X174559926Y-52306611D01*
X174559926Y-52306611D02*
X173657526Y-52306611D01*
%TO.N,Net-(JP5-A)*%
X138480800Y-63703200D02*
X137744200Y-64439800D01*
X137744200Y-64439800D02*
X137744200Y-65938400D01*
X142178553Y-63480000D02*
X138704000Y-63480000D01*
X138704000Y-63480000D02*
X138480800Y-63703200D01*
%TO.N,/BAR_INT*%
X143203553Y-65502549D02*
X145087204Y-67386200D01*
X145087204Y-67386200D02*
X147421600Y-67386200D01*
X147421600Y-67386200D02*
X148590000Y-66217800D01*
X154461937Y-66217800D02*
X155673126Y-65006611D01*
X155673126Y-65006611D02*
X156157526Y-65006611D01*
X148590000Y-66217800D02*
X154461937Y-66217800D01*
X143203553Y-63730000D02*
X143203553Y-65502549D01*
%TO.N,/VBAT*%
X133197600Y-54824000D02*
X135570998Y-54824000D01*
X135570998Y-54824000D02*
X136551635Y-55804637D01*
%TO.N,Net-(U2-CSB)*%
X142340600Y-64092953D02*
X142703553Y-63730000D01*
X142340600Y-66167000D02*
X142340600Y-64092953D01*
%TO.N,Net-(J6-Pin_3)*%
X179519100Y-66155785D02*
X174559926Y-61196611D01*
X181140000Y-70080000D02*
X179519100Y-68459100D01*
X179519100Y-68459100D02*
X179519100Y-66155785D01*
X174559926Y-61196611D02*
X173657526Y-61196611D01*
%TO.N,Net-(J6-Pin_2)*%
X181140000Y-67276901D02*
X174684726Y-60821627D01*
X174684726Y-60051411D02*
X174559926Y-59926611D01*
X181140000Y-67540000D02*
X181140000Y-67276901D01*
X174684726Y-60821627D02*
X174684726Y-60051411D01*
X174559926Y-59926611D02*
X173657526Y-59926611D01*
%TO.N,Net-(J6-Pin_1)*%
X174326611Y-58656611D02*
X173657526Y-58656611D01*
X181140000Y-65000000D02*
X180670000Y-65000000D01*
X180670000Y-65000000D02*
X174326611Y-58656611D01*
%TD*%
M02*
