%TF.GenerationSoftware,KiCad,Pcbnew,9.0.6*%
%TF.CreationDate,2025-11-10T07:16:27-08:00*%
%TF.ProjectId,kicad,6b696361-642e-46b6-9963-61645f706362,rev?*%
%TF.SameCoordinates,Original*%
%TF.FileFunction,Soldermask,Top*%
%TF.FilePolarity,Negative*%
%FSLAX46Y46*%
G04 Gerber Fmt 4.6, Leading zero omitted, Abs format (unit mm)*
G04 Created by KiCad (PCBNEW 9.0.6) date 2025-11-10 07:16:27*
%MOMM*%
%LPD*%
G01*
G04 APERTURE LIST*
G04 Aperture macros list*
%AMRoundRect*
0 Rectangle with rounded corners*
0 $1 Rounding radius*
0 $2 $3 $4 $5 $6 $7 $8 $9 X,Y pos of 4 corners*
0 Add a 4 corners polygon primitive as box body*
4,1,4,$2,$3,$4,$5,$6,$7,$8,$9,$2,$3,0*
0 Add four circle primitives for the rounded corners*
1,1,$1+$1,$2,$3*
1,1,$1+$1,$4,$5*
1,1,$1+$1,$6,$7*
1,1,$1+$1,$8,$9*
0 Add four rect primitives between the rounded corners*
20,1,$1+$1,$2,$3,$4,$5,0*
20,1,$1+$1,$4,$5,$6,$7,0*
20,1,$1+$1,$6,$7,$8,$9,0*
20,1,$1+$1,$8,$9,$2,$3,0*%
%AMFreePoly0*
4,1,39,0.535921,0.785921,0.550800,0.750000,0.550800,-0.750000,0.535921,-0.785921,0.500000,-0.800800,0.000000,-0.800800,-0.010328,-0.796522,-0.065263,-0.796522,-0.078411,-0.794791,-0.204490,-0.761009,-0.216742,-0.755934,-0.329781,-0.690671,-0.340302,-0.682598,-0.432598,-0.590302,-0.440671,-0.579781,-0.505934,-0.466742,-0.511009,-0.454490,-0.544791,-0.328411,-0.546522,-0.315263,-0.546522,-0.260327,
-0.550800,-0.250000,-0.550800,0.250000,-0.546522,0.260327,-0.546522,0.315263,-0.544791,0.328411,-0.511009,0.454490,-0.505934,0.466742,-0.440671,0.579781,-0.432598,0.590302,-0.340302,0.682598,-0.329781,0.690671,-0.216742,0.755934,-0.204490,0.761009,-0.078411,0.794791,-0.065263,0.796522,-0.010328,0.796522,0.000000,0.800800,0.500000,0.800800,0.535921,0.785921,0.535921,0.785921,
$1*%
%AMFreePoly1*
4,1,39,0.010328,0.796522,0.065263,0.796522,0.078411,0.794791,0.204490,0.761009,0.216742,0.755934,0.329781,0.690671,0.340302,0.682598,0.432598,0.590302,0.440671,0.579781,0.505934,0.466742,0.511009,0.454490,0.544791,0.328411,0.546522,0.315263,0.546522,0.260327,0.550800,0.250000,0.550800,-0.250000,0.546522,-0.260327,0.546522,-0.315263,0.544791,-0.328411,0.511009,-0.454490,
0.505934,-0.466742,0.440671,-0.579781,0.432598,-0.590302,0.340302,-0.682598,0.329781,-0.690671,0.216742,-0.755934,0.204490,-0.761009,0.078411,-0.794791,0.065263,-0.796522,0.010328,-0.796522,0.000000,-0.800800,-0.500000,-0.800800,-0.535921,-0.785921,-0.550800,-0.750000,-0.550800,0.750000,-0.535921,0.785921,-0.500000,0.800800,0.000000,0.800800,0.010328,0.796522,0.010328,0.796522,
$1*%
G04 Aperture macros list end*
%ADD10C,0.000000*%
%ADD11RoundRect,0.225400X-0.300400X0.225400X-0.300400X-0.225400X0.300400X-0.225400X0.300400X0.225400X0*%
%ADD12RoundRect,0.225400X0.300400X-0.225400X0.300400X0.225400X-0.300400X0.225400X-0.300400X-0.225400X0*%
%ADD13RoundRect,0.250400X0.275400X-0.250400X0.275400X0.250400X-0.275400X0.250400X-0.275400X-0.250400X0*%
%ADD14RoundRect,0.102000X-0.200000X0.240000X-0.200000X-0.240000X0.200000X-0.240000X0.200000X0.240000X0*%
%ADD15RoundRect,0.050800X-0.304800X-0.850900X0.304800X-0.850900X0.304800X0.850900X-0.304800X0.850900X0*%
%ADD16RoundRect,0.050800X-0.495300X-1.422400X0.495300X-1.422400X0.495300X1.422400X-0.495300X1.422400X0*%
%ADD17RoundRect,0.050800X-0.774700X0.304800X-0.774700X-0.304800X0.774700X-0.304800X0.774700X0.304800X0*%
%ADD18RoundRect,0.050800X-0.901700X0.596900X-0.901700X-0.596900X0.901700X-0.596900X0.901700X0.596900X0*%
%ADD19RoundRect,0.050800X-0.850000X0.850000X-0.850000X-0.850000X0.850000X-0.850000X0.850000X0.850000X0*%
%ADD20C,1.801600*%
%ADD21RoundRect,0.250400X-0.275400X0.250400X-0.275400X-0.250400X0.275400X-0.250400X0.275400X0.250400X0*%
%ADD22RoundRect,0.244150X0.281650X-0.244150X0.281650X0.244150X-0.281650X0.244150X-0.281650X-0.244150X0*%
%ADD23C,1.601600*%
%ADD24RoundRect,0.225400X-0.371797X-0.053033X-0.053033X-0.371797X0.371797X0.053033X0.053033X0.371797X0*%
%ADD25RoundRect,0.225400X-0.225400X-0.300400X0.225400X-0.300400X0.225400X0.300400X-0.225400X0.300400X0*%
%ADD26RoundRect,0.274780X-0.476020X0.288520X-0.476020X-0.288520X0.476020X-0.288520X0.476020X0.288520X0*%
%ADD27C,2.301600*%
%ADD28RoundRect,0.050800X-0.901700X0.330200X-0.901700X-0.330200X0.901700X-0.330200X0.901700X0.330200X0*%
%ADD29RoundRect,0.050800X-1.397000X0.546100X-1.397000X-0.546100X1.397000X-0.546100X1.397000X0.546100X0*%
%ADD30RoundRect,0.050800X-0.850000X-0.850000X0.850000X-0.850000X0.850000X0.850000X-0.850000X0.850000X0*%
%ADD31RoundRect,0.050800X0.901700X-0.330200X0.901700X0.330200X-0.901700X0.330200X-0.901700X-0.330200X0*%
%ADD32RoundRect,0.050800X1.397000X-0.546100X1.397000X0.546100X-1.397000X0.546100X-1.397000X-0.546100X0*%
%ADD33RoundRect,0.274780X0.476020X-0.288520X0.476020X0.288520X-0.476020X0.288520X-0.476020X-0.288520X0*%
%ADD34FreePoly0,270.000000*%
%ADD35FreePoly1,270.000000*%
%ADD36RoundRect,0.250400X-0.250400X-0.275400X0.250400X-0.275400X0.250400X0.275400X-0.250400X0.275400X0*%
%ADD37RoundRect,0.050800X-0.150000X-0.162500X0.150000X-0.162500X0.150000X0.162500X-0.150000X0.162500X0*%
%ADD38RoundRect,0.050800X-0.162500X0.150000X-0.162500X-0.150000X0.162500X-0.150000X0.162500X0.150000X0*%
%ADD39RoundRect,0.050800X-0.750000X-0.450000X0.750000X-0.450000X0.750000X0.450000X-0.750000X0.450000X0*%
%ADD40RoundRect,0.050800X0.750000X0.450000X-0.750000X0.450000X-0.750000X-0.450000X0.750000X-0.450000X0*%
%ADD41RoundRect,0.050800X-0.450000X0.750000X-0.450000X-0.750000X0.450000X-0.750000X0.450000X0.750000X0*%
%ADD42C,0.701600*%
%ADD43RoundRect,0.050800X-1.950000X-1.950000X1.950000X-1.950000X1.950000X1.950000X-1.950000X1.950000X0*%
%ADD44RoundRect,0.225400X0.225400X0.300400X-0.225400X0.300400X-0.225400X-0.300400X0.225400X-0.300400X0*%
G04 APERTURE END LIST*
D10*
%TO.C,JP6*%
G36*
X139230800Y-63203201D02*
G01*
X137730800Y-63203201D01*
X137730800Y-62903201D01*
X139230800Y-62903201D01*
X139230800Y-63203201D01*
G37*
%TO.C,JP5*%
G36*
X138494200Y-66738399D02*
G01*
X136994200Y-66738399D01*
X136994200Y-66438399D01*
X138494200Y-66438399D01*
X138494200Y-66738399D01*
G37*
%TD*%
D11*
%TO.C,R5*%
X148600000Y-68850001D03*
X148600000Y-70500001D03*
%TD*%
D12*
%TO.C,R8*%
X150213553Y-63299893D03*
X150213553Y-61649893D03*
%TD*%
D13*
%TO.C,C3*%
X154500000Y-73000000D03*
X154500000Y-71450000D03*
%TD*%
D14*
%TO.C,D2*%
X143738998Y-55855001D03*
X143738998Y-57174999D03*
%TD*%
D15*
%TO.C,J3*%
X162000000Y-73500000D03*
X163250000Y-73500000D03*
X164500000Y-73500000D03*
X165750000Y-73500000D03*
X167000000Y-73500000D03*
X168250000Y-73500000D03*
D16*
X160150001Y-76700001D03*
X170099999Y-76700001D03*
%TD*%
D17*
%TO.C,J2*%
X133314199Y-60431199D03*
X133314199Y-61431200D03*
X133314199Y-62431198D03*
X133314199Y-63431199D03*
D18*
X129489200Y-59131200D03*
X129489200Y-64731198D03*
%TD*%
D19*
%TO.C,J1*%
X151587000Y-75073001D03*
D20*
X149047000Y-75073001D03*
X146507001Y-75073001D03*
X143967000Y-75073001D03*
%TD*%
D11*
%TO.C,R4*%
X146900000Y-68850000D03*
X146900000Y-70500000D03*
%TD*%
D21*
%TO.C,C2*%
X137134998Y-52160500D03*
X137134998Y-53710500D03*
%TD*%
D22*
%TO.C,D1*%
X146685000Y-55245101D03*
X146685000Y-53670099D03*
%TD*%
D23*
%TO.C,TP7*%
X172500000Y-72000000D03*
%TD*%
D21*
%TO.C,C7*%
X138912998Y-52173500D03*
X138912998Y-53723500D03*
%TD*%
D11*
%TO.C,R12*%
X154051000Y-58230000D03*
X154051000Y-59880000D03*
%TD*%
D21*
%TO.C,C1*%
X153416000Y-53467000D03*
X153416000Y-55017000D03*
%TD*%
D24*
%TO.C,R1*%
X150419637Y-51943000D03*
X151586363Y-53109726D03*
%TD*%
D13*
%TO.C,C4*%
X140900000Y-72775000D03*
X140900000Y-71225000D03*
%TD*%
D23*
%TO.C,TP3*%
X157750000Y-72000000D03*
%TD*%
D13*
%TO.C,C9*%
X148317949Y-56668000D03*
X148317949Y-55118000D03*
%TD*%
D25*
%TO.C,R9*%
X140690600Y-66167000D03*
X142340600Y-66167000D03*
%TD*%
D21*
%TO.C,C10*%
X146530553Y-64684893D03*
X146530553Y-66234893D03*
%TD*%
D22*
%TO.C,D3*%
X175895000Y-65837002D03*
X175895000Y-64262000D03*
%TD*%
D26*
%TO.C,R2*%
X143992998Y-51919500D03*
X143992998Y-53744500D03*
%TD*%
D27*
%TO.C,H3*%
X180213000Y-52324000D03*
%TD*%
D28*
%TO.C,J7*%
X133197600Y-52324000D03*
X133197600Y-53574000D03*
X133197600Y-54824000D03*
D29*
X129997599Y-50474001D03*
X129997599Y-56673999D03*
%TD*%
D23*
%TO.C,TP4*%
X176250000Y-72000000D03*
%TD*%
%TO.C,TP5*%
X176300000Y-74750000D03*
%TD*%
D30*
%TO.C,J6*%
X181140000Y-65000000D03*
D20*
X181140000Y-67540000D03*
X181140000Y-70080000D03*
%TD*%
D26*
%TO.C,R3*%
X141198998Y-51919500D03*
X141198998Y-53744500D03*
%TD*%
D31*
%TO.C,J5*%
X178119999Y-60089999D03*
X178119999Y-58839999D03*
X178119999Y-57589999D03*
D32*
X181320000Y-61939998D03*
X181320000Y-55740000D03*
%TD*%
D12*
%TO.C,R7*%
X140900000Y-76025000D03*
X140900000Y-74375000D03*
%TD*%
D33*
%TO.C,RD1*%
X141706998Y-57237500D03*
X141706998Y-55412500D03*
%TD*%
D21*
%TO.C,C12*%
X152200000Y-63325000D03*
X152200000Y-64875000D03*
%TD*%
D34*
%TO.C,JP6*%
X138480800Y-62403202D03*
D35*
X138480800Y-63703200D03*
%TD*%
D24*
%TO.C,RU1*%
X136551635Y-55804637D03*
X137718361Y-56971363D03*
%TD*%
D23*
%TO.C,TP6*%
X172500000Y-74800000D03*
%TD*%
D26*
%TO.C,R11*%
X178333400Y-67640200D03*
X178333400Y-69465200D03*
%TD*%
D36*
%TO.C,C5*%
X148614600Y-72235803D03*
X150164600Y-72235803D03*
%TD*%
D26*
%TO.C,R10*%
X176250600Y-67669400D03*
X176250600Y-69494400D03*
%TD*%
D30*
%TO.C,J4*%
X133096000Y-69545200D03*
%TD*%
D12*
%TO.C,R14*%
X154051000Y-62991000D03*
X154051000Y-61341000D03*
%TD*%
D36*
%TO.C,C6*%
X145325600Y-72253601D03*
X146875600Y-72253601D03*
%TD*%
D37*
%TO.C,U2*%
X143203553Y-62230000D03*
X142703553Y-62230000D03*
D38*
X142178553Y-62480000D03*
X142178553Y-62980000D03*
X142178553Y-63480000D03*
D37*
X142703553Y-63730000D03*
X143203553Y-63730000D03*
D38*
X143728553Y-63480000D03*
X143728553Y-62980000D03*
X143728553Y-62480000D03*
%TD*%
D27*
%TO.C,H1*%
X131137000Y-75450000D03*
%TD*%
D39*
%TO.C,U1*%
X156157526Y-51036611D03*
X156157526Y-52306611D03*
X156157526Y-53576611D03*
X156157526Y-54846611D03*
X156157526Y-56116611D03*
X156157526Y-57386611D03*
X156157526Y-58656611D03*
X156157526Y-59926611D03*
X156157526Y-61196611D03*
X156157526Y-62466611D03*
X156157526Y-63736611D03*
X156157526Y-65006611D03*
X156157526Y-66276611D03*
D40*
X156157526Y-67546611D03*
D41*
X157922526Y-68796611D03*
X159192526Y-68796611D03*
X160462526Y-68796611D03*
X161732526Y-68796611D03*
X163002526Y-68796611D03*
X164272526Y-68796611D03*
X165542526Y-68796611D03*
X166812526Y-68796611D03*
X168082526Y-68796611D03*
X169352526Y-68796611D03*
X170622526Y-68796611D03*
X171892526Y-68796611D03*
D39*
X173657526Y-67546611D03*
X173657526Y-66276611D03*
X173657526Y-65006611D03*
X173657526Y-63736611D03*
X173657526Y-62466611D03*
X173657526Y-61196611D03*
X173657526Y-59926611D03*
X173657526Y-58656611D03*
X173657526Y-57386611D03*
X173657526Y-56116611D03*
X173657526Y-54846611D03*
X173657526Y-53576611D03*
X173657526Y-52306611D03*
X173657526Y-51036611D03*
D42*
X162007526Y-58056611D03*
X162007526Y-59456611D03*
X162707526Y-57356611D03*
X162707526Y-58756611D03*
X162707526Y-60156611D03*
X163407526Y-58056611D03*
D43*
X163407526Y-58756611D03*
D42*
X163407526Y-59456611D03*
X164107526Y-57356611D03*
X164107526Y-58756611D03*
X164107526Y-60156611D03*
X164807526Y-58056611D03*
X164807526Y-59456611D03*
%TD*%
D21*
%TO.C,C11*%
X146558000Y-61505800D03*
X146558000Y-63055800D03*
%TD*%
D12*
%TO.C,R6*%
X154500000Y-76225000D03*
X154500000Y-74575000D03*
%TD*%
D13*
%TO.C,C8*%
X150114000Y-56668000D03*
X150114000Y-55118000D03*
%TD*%
D27*
%TO.C,H4*%
X180213000Y-75438000D03*
%TD*%
D34*
%TO.C,JP5*%
X137744200Y-65938400D03*
D35*
X137744200Y-67238398D03*
%TD*%
D44*
%TO.C,R16*%
X149831553Y-65078893D03*
X148181553Y-65078893D03*
%TD*%
D27*
%TO.C,H2*%
X131137000Y-46450000D03*
%TD*%
G36*
X143910239Y-61995685D02*
G01*
X143955994Y-62048489D01*
X143967200Y-62100000D01*
X143967200Y-63833200D01*
X143947515Y-63900239D01*
X143894711Y-63945994D01*
X143843200Y-63957200D01*
X142059200Y-63957200D01*
X141992161Y-63937515D01*
X141946406Y-63884711D01*
X141935200Y-63833200D01*
X141935200Y-62100000D01*
X141954885Y-62032961D01*
X142007689Y-61987206D01*
X142059200Y-61976000D01*
X143843200Y-61976000D01*
X143910239Y-61995685D01*
G37*
M02*
